<svg xmlns="http://www.w3.org/2000/svg" xml:space="preserve" viewBox="0 0 603 415"><path fill="#F7F7F6" d="M436 416H1V1h603v415H436m-68.046-288.991s-.018.045-.084-.661c-.978-.427-1.957-.855-3.585-1.504-4.713-2.715-9.425-5.43-14.33-8.78-11.959-7.787-23.688-15.964-35.977-23.187-5.732-3.369-12.742-3.316-18.715.194-9.021 5.302-17.729 11.142-26.503 16.857-2.726 1.776-5.235 3.887-8.504 6.106a4615.354 4615.354 0 0 1-18.76 11.169c-.24.176-.42.402-.53.772 0 0-.095-.008-.804.093-1.347.495-2.697 1.426-4.041 1.418-11.471-.064-22.941-.355-34.413-.462-6.685-.062-8.662 1.955-8.698 8.54-.041 7.436-.035 14.871-.647 22.5-.98.368-1.958.736-3.54 1.183-.254.297-.51.594-1.098 1.388-.558.552-1.115 1.104-2.34 1.768-6.96 4.406-13.938 8.783-20.851 13.26-.737.476-1.098 1.533-2.173 2.951-.085 1.652-.243 3.305-.244 4.957-.03 25.256-.013 50.512-.102 75.768-.007 1.963 1.253 5.186-3.115 4.023l-5.8-3.056c-.884-1.145.104-4.326-1.062-5.783-4.193-5.24-9.113-9.9-13.94-14.971-1.335 1.636-2.228 2.437-2.763 3.43-8.863 16.455-11.83 33.906-6.513 51.896 2.574 8.708 7.478 16.729 10.926 25.681-1.299.305-2.794 1.19-3.868.827-14.592-4.927-28.31-2.474-41.435 4.766-5.184 2.86-5.337 5.688-.381 9.16 7.215 5.057 14.618 9.85 22.021 14.631 11.081 7.157 23.853 7.985 36.367 8.324 4.942.134 9.986-3.476 13.415-4.784 7.38 1.28 13.62 3.284 19.867 3.305 65.59.231 131.181.16 196.771.069 1.852-.003 3.701-1.152 6.194-1.732 1.1.638 2.201 1.277 3.12 2.672-1.491.408-3.01.736-4.469 1.24-3.51 1.216-6.992 2.514-10.485 3.778l.23 1.842c1.38.754 2.678 1.866 4.152 2.2 5.258 1.186 10.555 2.248 15.882 3.064 2.255.346 4.622-.037 7.716.063 1.053.112 2.105.223 3.415 1.051 7.931.323 15.861.704 23.796.915 1.335.035 2.688-.66 4.724-1.24.724-.068 1.448-.135 2.315.466 6.683.57 13.37 1.632 20.049 1.578 7.24-.058 14.527-.803 21.694-1.9 7.3-1.118 14.491-2.974 21.693-4.663.894-.209 2.145-1.353 2.177-2.109.035-.83-.984-1.981-1.841-2.506-1.24-.76-2.71-1.27-4.148-1.557-5.81-1.157-11.645-2.188-16.982-3.807 3.354-2.86 7.097-5.387 9.942-8.687 2.313-2.685 3.55-6.297 5.381-10.013-.03-.173-.058-.347.383-.909 2.448-10.272-1.032-14.331-11.202-13.143-.697.081-1.455-.352-2.128-1.013.158-.271.316-.542 1.026-1.22.39-1.046 1.379-2.321 1.08-3.103-3.25-8.475-6.701-16.873-10.057-26.08-1.743-6.776-3.84-13.31-11.659-16.734-.896.01-1.792.021-3.421.02-1.687.004-3.373.008-5.515-.286-.87.105-1.74.21-3.252.42-.43.064-.86.129-1.371-.372.078-1.283-.312-2.897.318-3.788 2.323-3.283 4.983-6.326 7.622-10.195 7.105-12.44 2.253-24.635-11.169-29.04-.145-12.113-.295-24.226-.433-36.339-.057-4.931-.087-9.863.24-15.452-.955-1.723-1.481-4.074-2.935-5.065-9.102-6.209-18.41-12.114-27.836-18.613-.3-.163-.598-.325-1.529-.473-.402-.12-.804-.238-1.343-1.157-.292-4.434-.83-8.869-.83-13.303-.002-13.289 1.723-14.874-14.874-14.736-9.745.082-19.497-.571-29.202-.919 0 0 .004.046-.189-.42-.275-.18-.55-.359-.83-.583m-221.815 41.133s.062-.02.724-.185a517.112 517.112 0 0 0-1.734-7.689c-.093-.38-.186-.76-.145-1.906l1.429-2.28c.671.82 1.51 1.553 1.985 2.475 2.092 4.07 6.32 6.263 9.112 3.775 2.965-2.64 4.584-7.151 9.674-3.572.159.111.797-.5 1.232-.736 4.095-2.206 6.218-5.008 2.665-9.277 8.937-7.599 9.017-8.936 1.158-15.449 2.16-4.8 2.243-6.73-1.377-9.45-1.723-1.296-4.766-.836-8.151-1.3-4.859-7.438-9.472-7.717-13.965.47-.567-.177-1.162-.468-1.781-.536-1.915-.21-4.89-1.168-5.553-.33-1.635 2.064-6.211 3.364-3.242 7.648.35.504-.67 2.375-1.487 3.162-.974.937-2.415 1.388-4.172 2.517.15 1.52.3 3.04.417 5.19.004.421.007.842-.634 1.435-1.123.678-2.247 1.355-3.854 1.932 0 0-.464-.167-.605-.847-2.937-2.53-3.288-.35-4.075 1.966-.389 1.143-1.87 2.58-2.918 2.63-.908.045-1.922-1.66-2.854-2.624-1.258-1.302-3.216-3.96-3.604-3.745-2.924 1.622-7.857-1.396-9.355 3.66 0 0 .22.163-.558.142-.113 3.301-.227 6.603-.458 9.782 0 0 .107.131-.752.027-.86.085-1.719.17-2.952.171 0 0-.33-.194-.404-.9-1.467-2.332-3.005-3.704-5.193.005-.2.246-.395.496-1.147 1.023-.17.575-.34 1.15-.556 1.675 0 0 .053.05-.66.09-3.185 2.58-3.487 4.09-1.168 5.71 0 0 .003.023.108.545.307.137.614.275.956.504 0 0 .027-.095-.046.606 2.516 2.396 4.673 4.868 1.147 8.648-1.043.368-2.087.737-3.874 1.09-2.163 3.734-1.27 6.654 2.566 9.219 0 0 .123.41.143 1.173 3.056-.065 6.111-.13 9.325-.103 0 0 .106.15-.224.962-.452 1.873-1.16 3.732-1.266 5.624-.068 1.241.735 2.531.972 3.876 0 0 .169-.094.183.63 2.662 1.084 5.325 2.17 8.242 3.168 0 0 .27.002 1.02.076.86-1.916 1.72-3.833 3.16-6.202.475-.103.95-.206 1.617.424a770.264 770.264 0 0 0 6.353 6.403c3.111-.724 6.366-1.133 9.22-2.427.598-.27-.888-3.998-.308-5.771.571-1.745 2.322-3.445 3.996-4.35.881-.476 2.744.696 4.094 1.284 4.362 1.902 4.363-2.245 5.727-4.235 1.346-1.964 2.135-3.94-.87-5.762-1.652-1.002-3.797-3.695-3.425-4.935.539-1.79 3.163-2.953 5.395-4.398.342-.108.574-.331.747-.708M262.934 58.755c.323 2.222.78 4.09 3.716 2.36 1.952-1.15 4.05-2.05 6.775-2.676 3.35 2.773 6.77 5.466 10.03 8.341 3.448 3.041 4.31 2.821 6.14-2.104l18.577-33.559-1.168-1.62c-3.431 1.432-6.862 2.864-10.96 4.326-1.032.357-2.064.715-3.756 1.024-.435.078-.87.156-2.115.192l-41.208 12.468-.113 1.82c6.188.757 11.964 2.093 14.056 8.86 0 0 .04-.167.026.568M499.71 110.87c7.49-.35 8.254-1.025 8.352-7.376.2-12.862.2-12.704-13.018-12.688-4.124.005-5.985 1.9-7.955 5.348-1.167-.004-2.333-.01-3.5-.01-17.165.02-34.33-.01-51.495.104-3.218.021-7.117-.378-7.26 5.683.14 13.016.28 26.032.603 39.743 2.292.697 4.58 1.98 6.878 1.999 19.26.15 38.52.098 57.781.008 1.692-.008 3.381-.715 5.658-1.265.453-.394.906-.788 2.085-1.507.343-1.722.961-3.44.982-5.165.1-8.25.037-16.503.889-24.874m-14.077 95.135c.486-3.492-.905-7.214 4.525-9.06 7.802-2.65 11.177-10.338 9.657-18.627-1.34-7.315-7.84-12.865-15.445-13.192-8.016-.344-15.134 4.787-17.189 12.39-2.002 7.408 1.059 15.909 8.365 18.829 5.552 2.219 6.551 5.613 5.673 11.125-.749 1.406-2.105 2.794-2.144 4.22-.205 7.48-.12 14.969-.043 22.454.033 3.315 1.636 5.477 5.165 5.342 3.625-.138 4.687-2.638 4.662-5.835-.054-6.987.102-13.988-.332-20.951-.125-2.003-1.975-3.897-2.894-6.695m-269.886-89.573c2.04 2.202 2.32 6.372 8.09 6.206-1.569-4.871-3.288-9.08-4.217-13.456-.728-3.427-1.812-7.77-.385-10.458 3.03-5.71 7.24-10.912 13.285-14.14 3.299-1.762 6.566-3.645 9.61-5.808 5.318-3.779 10.275-8.088 15.733-11.64 3.133-2.04 2.382-3.159.306-4.95-7.574 5.163-13.88 11.982-23.091 13.55-1.113 1.355-2.08 3.062-3.506 4.184-7.167 5.638-15.999 9.303-15.98 21.205.009 4.75-1.1 9.683.155 15.307M94.407 240.677c2.026 2.097 3.788 4.576 6.14 6.202 3.485 2.407 9.49.97 12.11-2.375 3.128-3.991 3.184-9.884.176-13.213-3.107-3.438-6.56-5.543-11.38-3.517-5.278 2.218-7.434 5.726-7.046 12.903m285.018-139.861c-1.258 5.08 3.858 1.989 4.581 4.208l3.037 4.886 4.851-5.704 3.895-.89.406-1.513-4.534-2.127-4.481-6.435-3.581 6.515c-.682.103-2.124.32-4.174 1.06M185.383 82.989c1.49-.016 3.02.159 4.458-.126.754-.149 1.348-1.103 2.015-1.693-.71-.711-1.4-2.015-2.132-2.039a239.286 239.286 0 0 0-15.9.011c-.812.028-1.583 1.258-2.373 1.932.843.624 1.655 1.729 2.534 1.785 3.467.223 6.954.116 11.398.13m146.013-13.512c-1.547 1.466-2.059 3.245.613 3.381 6.196.315 12.418.1 18.63.1l.513-2.13c-1.493-.599-2.967-1.655-4.48-1.713-4.816-.185-9.646.002-15.276.362m166.57 199.533 3.818-1.518c-5.907-3.55-11.87-2.127-17.66-2.373-.972-.041-1.994 1.1-2.993 1.694 1.027.73 2.021 2.03 3.086 2.09 4.272.246 8.566.107 13.749.107m-397.498 24.303c-1.023-.784-2.012-2.187-3.074-2.244-4.622-.25-9.266-.16-13.9-.07-1.133.022-2.258.511-3.386.785l.06 2.028c6.536 0 13.073 0 20.3-.499M255.063 93.505c.365 1.647.29 3.68 1.267 4.79.544.618 3.146.122 4.232-.674.738-.542.82-3.53.57-3.617-1.752-.607-3.668-.743-6.069-.5m-145.939 196.71-4.043 2.465c.526.726 1.052 2.063 1.578 2.063 1.556 0 3.113-.526 4.67-.847-.495-1.137-.99-2.273-2.205-3.68m397.005-21.44c1.132.071 2.296.335 3.384.15.812-.14 1.525-.858 2.282-1.32-.651-.808-1.215-2.202-1.971-2.315-2.156-.324-4.923-.867-3.695 3.485M200.499 82.966l2.34-2.422c-1.249-.506-2.485-1.356-3.75-1.398-.868-.029-1.775 1.063-2.664 1.654 1.09.726 2.18 1.451 4.074 2.166z"/><path fill="#EBEAE9" d="M368.93 128.037c9.748.323 19.5.976 29.245.894 16.597-.138 14.872 1.447 14.874 14.736 0 4.434.538 8.869.715 14.02-.166 16.892-.218 33.069-.426 49.562-.235.777-.313 1.238-.719 1.75-1.783 1.338-3.238 2.627-5.036 3.966-5.123 4.01-9.903 7.967-15.026 11.975-5.514 4.379-10.687 8.707-16.08 13.202-.795.66-1.369 1.155-2.273 1.712-3.199 1.835-6.068 3.606-9.417 5.308-22.293-.098-44.104-.127-65.916-.148-.83 0-1.879-.227-2.442.181-.953.69-2.19 1.793-2.207 2.742-.017.958 1.116 2.416 2.084 2.797 1.312.517 2.946.26 4.441.261 19.148.026 38.296.04 57.264.351-4.094 3.436-8.008 6.577-12.397 9.672-6.57-.04-12.672-.2-18.754.083-1.583.074-3.102 1.533-4.65 2.356 1.53 1.165 2.953 3.108 4.613 3.337 3.718.513 7.555.173 11.2.495-4.395 3.73-8.235 8.17-13.078 10.12-2.35.947-6.578-2.771-9.95-4.394.007-.017-.026-.003-.227-.298-3.355-1.036-6.51-1.777-10.017-2.604-.829-.02-1.304.045-2.156.042-3.43 1.245-6.482 2.558-9.56 3.865-.026-.006-.017.048-.366.087-7.665 4.365-7.66 4.359-14.274-1.015-2.171-1.764-4.38-3.483-6.227-5.475 2.15-.389 3.957-.635 5.764-.64 10.627-.038 21.257.095 31.878-.155 1.415-.033 2.787-1.914 4.179-2.94-1.34-.968-2.673-2.766-4.023-2.778-15.105-.14-30.212-.004-45.665.034-4.448-3.375-8.55-6.726-12.15-10.09 9.814-.023 19.13.113 28.434-.179 1.706-.054 3.358-1.845 5.035-2.835-1.654-1.011-3.295-2.872-4.964-2.898-11.965-.187-23.936-.001-36.248.01-6.115-4.432-11.972-8.7-17.642-13.206-11.232-8.926-22.36-17.983-33.511-27.45-.085-15.182-.19-29.9-.295-44.62.015-7.435.009-14.87.05-22.305.036-6.586 2.013-8.603 8.698-8.541 11.472.107 22.942.398 34.413.462 1.344.008 2.694-.923 4.694-1.15 1.952.458 3.248.795 4.55.815 14.432.23 28.864.522 43.297.577 24.063.091 48.126.076 72.188-.055 2.696-.014 5.387-1.065 8.08-1.636m8.665 38.339c-.208-3.551-2.681-4.284-5.549-4.288-24.274-.03-48.548-.024-72.821-.004-.982 0-2.171-.055-2.895.447-.964.67-2.256 1.941-2.154 2.806.138 1.164 1.265 2.55 2.35 3.164 1.046.592 2.578.417 3.896.418 23.442.02 46.885.064 70.327-.067 2.166-.013 4.325-1.174 6.846-2.476M287.5 228.074c-15.818 0-31.635-.013-47.453.02-1.646.003-3.425-.058-4.894.53-1.192.478-2.993 2.208-2.794 2.816.434 1.327 1.798 2.628 3.11 3.302 1.065.546 2.608.186 3.94.186 22.643.007 45.288.008 67.932.009 1.165 0 2.52.36 3.453-.108 1.472-.74 2.662-2.04 3.971-3.104-1.294-.926-2.537-2.561-3.89-2.66-7.444-.538-14.914-.7-23.375-.991m71.998-26.116c3.994 0 7.988.041 11.982-.016 2.411-.034 5.457.612 5.479-3.242.022-3.922-3.157-2.676-5.177-2.685-19.303-.083-38.607-.05-57.91-.05-5.325-.001-10.66-.168-15.97.118-1.339.073-2.6 1.596-3.896 2.453 1.196 1.117 2.236 2.548 3.64 3.249 1.075.536 2.61.17 3.94.17 18.972.005 37.942.003 57.912.003m-64.126 10.502c-2.538 3.309-1.57 5.292 2.425 5.474 4.983.228 9.985.056 14.978.056 19.81-.003 39.618-.008 59.426-.007 2.446 0 5.208-.069 4.61-3.424-.192-1.072-2.753-2.448-4.236-2.454-25.465-.104-50.931-.014-77.203.355m-7.871-27.432c7.83-.003 15.662.11 23.484-.126 1.234-.038 2.42-1.65 3.629-2.535-1.063-1.088-2.02-2.32-3.235-3.198-.557-.403-1.617-.133-2.45-.133-23.653-.008-47.309-.088-70.96.133-1.887.017-3.754 2.121-5.63 3.256 1.896.868 3.783 2.467 5.689 2.49 16.155.2 32.315.114 49.473.113m-35.998-22.952c-4.33 0-8.659.017-12.988-.008-2.722-.016-6.074-.185-6.189 3.328-.116 3.58 3.197 3.548 5.947 3.545 13.821-.014 27.642-.014 41.463 0 2.753.004 6.056.034 5.93-3.56-.123-3.526-3.473-3.32-6.188-3.314-8.992.019-17.984.008-27.975.009m79.14 22.955c14.133-.007 28.268.052 42.4-.129 1.333-.017 2.646-1.54 3.969-2.365-1.256-1.165-2.37-2.577-3.819-3.404-.88-.502-2.275-.106-3.44-.106-13.302 0-26.605-.043-39.907.04-2.79.017-7.148-1.167-7.223 2.997-.083 4.556 4.447 2.433 8.02 2.967M259.5 211.984c-7.8.005-15.603-.125-23.393.15-1.288.045-2.514 1.864-3.768 2.863 1.262.991 2.512 2.83 3.787 2.846 15.098.203 30.2.223 45.298-.005 1.474-.023 2.918-2.015 4.376-3.093-1.464-.918-2.898-2.566-4.396-2.627-6.958-.286-13.934-.131-21.904-.134m-3-16.002c-6.652-.005-13.31-.159-19.952.1-1.429.056-2.8 1.6-4.197 2.458 1.366 1.137 2.716 3.238 4.1 3.26 14.964.239 29.934.24 44.898.012 1.498-.023 2.966-1.977 4.448-3.034-1.45-.936-2.874-2.632-4.353-2.68-7.974-.264-15.961-.12-24.944-.116m100 38.086c5.326.003 10.662.188 15.972-.105 1.543-.086 3.01-1.542 4.512-2.37-1.43-.883-2.853-2.517-4.295-2.535a1825.758 1825.758 0 0 0-45.436.005c-1.43.018-2.842 1.683-4.262 2.583 1.516.806 3.016 2.273 4.549 2.309 9.316.219 18.64.112 28.96.113z"/><path fill="#FBB749" d="M193.234 204.955c11.172 9.002 22.3 18.059 33.532 26.985 5.67 4.505 11.527 8.774 17.75 13.521 2.677 2.114 4.905 3.857 7.133 5.6 4.102 3.35 8.204 6.702 12.766 10.403 2.776 2.369 5.093 4.388 7.41 6.406 2.19 1.74 4.399 3.458 6.57 5.222 6.614 5.374 6.609 5.38 14.217 1.357A76.3 76.3 0 0 1 281 280.61c-.26-1.32-.216-2.609-.823-3.113-5.464-4.537-11.014-8.973-16.607-13.35-1.413-1.106-2.996-2.524-4.63-2.72-6.004-.719-12.06-1.31-18.102-1.361-19.289-.162-38.584-.277-57.867.104-4.362.086-8.547 1.961-8.639-4.361l-3.652 4.048c-.566-1.54-1.12-3.084-1.703-4.618-.382-1.002-.805-1.989-1.755-4.319-5.7 7.78.13 14.25.223 20.643-2.064-.584-3.76-1.063-5.715-1.723-1.063-1.388-1.868-2.595-2.674-3.803 4.211.49 2.951-2.734 2.958-4.697.089-25.256.072-50.512.102-75.768.001-1.652.159-3.305.686-4.971 3.073 2.338 5.568 4.867 8.362 7.006 5.157 3.947 10.49 7.665 15.82 11.803 2.13 2.065 4.19 3.805 6.25 5.546z"/><path fill="#F9823B" d="M158.979 265.7c.884 1.544 1.69 2.751 2.757 4.605.284 13.325.304 26.003.305 39.151-.36 6.828-.7 13.186-1.084 19.176-3.546-9.435-7.547-18.347-10.424-27.609-3.36-10.812-5.87-21.898-8.472-32.93-.958-4.067-1.124-8.32-1.651-12.487l-1.612.222c.506 5.874.184 11.967 1.679 17.578 3.869 14.526 8.262 28.932 13.05 43.183 1.502 4.47 4.928 8.292 7.474 12.825-.013 3.5-.027 6.588-.255 9.536a4.696 4.696 0 0 1-.924-1.147c-.27-.496-.532-.649-1.172-.837-5.103-3.12-9.9-6.083-14.788-9.276-.258-.556-.525-.725-.89-.708.002.028.056.034.068-.31-.957-1.807-1.924-3.27-2.891-4.733-3.85-8.332-8.753-16.353-11.327-25.061-5.317-17.99-2.35-35.44 6.513-51.896.535-.993 1.428-1.794 2.762-3.43 4.828 5.07 9.748 9.73 13.941 14.971 1.166 1.457.178 4.638 1.061 5.783 1.934 1.019 3.868 2.037 5.88 3.393z"/><path fill="#EC9D38" d="M115.019 192.308c-.476.103-.951.206-1.998.705-1.494 2.175-2.416 3.953-3.338 5.732 0 0-.27-.002-.64-.198-2.874-1.362-5.38-2.53-7.886-3.696 0 0-.169.094-.094-.306.72-2.18 1.724-3.928 1.891-5.753.123-1.334-.855-2.77-1.342-4.16 0 0-.106-.149-.322-.53-3.187-.347-6.158-.313-9.129-.28 0 0-.123-.41-.214-.972-.638-3.256-1.185-5.948-1.732-8.64 1.044-.37 2.088-.738 3.815-1.195 1.684-1.759 3.9-4.07 3.429-4.966-.964-1.833-3.373-2.907-5.187-4.294 0 0-.027.095-.14-.177-.324-.548-.603-.708-.948-.754 0 0-.003-.024.038-.357.64-2.027 1.24-3.721 1.84-5.416 0 0-.053-.05.23-.183.468-.693.651-1.254.835-1.815.19-.254.385-.504 1.101-.908 1.928.18 3.34.52 4.75.86 0 0 .331.193.683.47 1.387.07 2.423-.136 3.459-.344 0 0-.107-.13.291-.184 5.252-3.057.5-6.498.838-9.708 0 0-.22-.163.26-.13 4.899-1.118 9.932-5.061 11.729 3.475.569 2.703 5.523 2.542 7.313.071 1.151-1.588 2.284-3.19 3.425-4.786 0 0 .464.167.911.484 2.626 1.656 4.806 2.995 6.985 4.335l-1.685.371c0 2.864-.587 5.895.17 8.542.718 2.513 3.244 2.947 6.062 1.448 1.747.03 3.089.055 4.43.08.094.38.187.76.307 1.823.366 2.846.706 5.008 1.045 7.17 0 0-.062.02-.342.032-.508.245-.736.477-.965.71-1.734 1.43-4.358 2.594-4.897 4.384-.372 1.24 1.773 3.933 3.425 4.935 3.005 1.822 2.216 3.798.87 5.762-1.364 1.99-1.365 6.137-5.727 4.235-1.35-.588-3.213-1.76-4.094-1.284-1.674.905-3.425 2.605-3.996 4.35-.58 1.773.906 5.5.307 5.771-2.853 1.294-6.108 1.703-9.478 1.798-1.205-3.678-.941-7.967-6.285-6.507m-4.286-23.832c-1.02 5.515.963 9.325 5.462 10.502 4.505 1.179 8.588-1.114 10.098-5.67 1.279-3.856-1.042-8.246-5.336-9.806-4.583-1.664-7.59.566-10.224 4.974z"/><path fill="#FCBD4E" d="M260.917 115.773c2.608-1.958 5.117-4.069 7.843-5.845 8.774-5.715 17.482-11.555 26.503-16.857 5.973-3.51 12.983-3.563 18.715-.194 12.29 7.223 24.018 15.4 35.865 23.832-3.211 1.494-6.288 2.939-9.414 3.056-5.162.194-10.355-.702-15.537-.73-18.753-.105-37.51.084-56.26-.181-2.585-.037-5.144-2.006-7.715-3.08z"/><path fill="#FDCC61" d="M425.05 101.017c-.073-5.147 3.826-4.748 7.044-4.769 17.164-.115 34.33-.084 51.495-.103 1.167-.002 2.333.005 4.031.47.534 4.04.536 7.621.339 11.477-1.13 1.463-2.061 2.65-3.207 3.958-.492.319-.678.583-.776.926-.005.014-.026-.01-.342.017-1.095.674-1.874 1.321-2.65 1.986.002.018-.023-.009-.348.027-1.434 1.005-2.544 1.974-3.656 2.96-.003.017-.033.001-.377.043-2.8 1.893-5.429 3.56-7.676 5.637-3.42 3.16-6.82 5.943-11.917 4.344-.01.006.005-.016-.024-.36-7.008-6.127-13.987-11.91-21.124-17.99-3.71-3.073-7.26-5.848-10.811-8.623z"/><path fill="#F8B549" d="M260.586 115.903c2.902.945 5.46 2.914 8.047 2.95 18.75.266 37.506.077 56.26.181 5.181.029 10.374.925 15.536.731 3.126-.117 6.203-1.562 9.51-2.738 4.92 2.387 9.633 5.102 14.813 8.212 1.372.869 2.278 1.342 3.184 1.815 0 0 .018-.045.108.216.37.436.652.612.933.788 0 0-.004-.046-.026-.033-2.714.583-5.405 1.634-8.1 1.648-24.063.13-48.126.146-72.189.055-14.433-.055-28.865-.348-43.297-.577-1.302-.02-2.598-.357-4.195-.865-.299-.319-.204-.311.022-.41.522-.268.678-.524.695-.866 6.123-3.659 12.246-7.317 18.7-11.107z"/><path fill="#F14543" d="M451.025 277.658c.43-.065.86-.13 1.973-.06 1.465.003 2.245-.127 3.025-.256 1.686-.004 3.372-.008 5.703.18 1.527.209 2.41.226 3.293.243 7.304 2.97 9.4 9.503 11.091 16.97-.066.89-.081 1.09-.467 1.322-5.771 2.273-5.771 2.273-9.364-5.475-.098 1.467-.195 2.935-.72 4.405-5.54-.327-10.648-.837-15.765-.946-7.814-.168-15.69.504-23.429-.275-4.734-.476-8.838-1.079-12.487 4.46.895-5.116 1.52-8.687 2.182-12.592.714-1.727 1.392-3.119 2.373-4.685 4.74-5.595 10.823-3.803 16.647-3.563 5.838 6.16 10.576 6.15 15.945.272z"/><path fill="#FCEEB9" d="M139.949 322.249a11.024 11.024 0 0 1 2.731 4.416c-3.656 1.654-6.225.627-9.098-1.35-2.165-1.49-5.303-2.336-7.948-2.21-6.11.293-12.552-2.084-18.187 3.311-2.297 2.2-6.985 1.728-10.399 2.98-3.96 1.45-4.17 4.023-.83 6.528 5.51 4.13 11.142 8.097 16.965 12.39 2.385 1.11 4.528 1.962 6.693 2.794.023-.021.038.04.144.26.332.476.615.624 1.226.902 3.692 1.14 7.112 2.043 10.687 3.138.409.428.709.553 1.059.585.004.017.037.008.269.276 1.4.413 2.57.558 3.976.74.237.036.716.051 1.002.298 2.424.054 4.563-.14 6.918-.451.493-.307.71-.55 1.102-.927.436-.341.635-.602 1.044-.944.21-.08.622-.264.893.002 1.789 1.122 3.305 1.978 5.141 2.839 1.084-.27 1.848-.544 2.726-.976.113-.159.275-.513.563-.536.67-.09 1.05-.155 1.677-.235.248-.014.717-.175 1-.208.758-.312 1.235-.591 2.008-.876.745-.345 1.194-.684 1.861-1.127.502-.28.72-.514 1.187-.846.768-.437 1.224-.834 2.056-1.17 2.067.57 3.76 1.08 5.52 1.865.708.632 1.346.99 2.1 1.537.324.426.586.54 1.274.602 1.849.345 3.324.617 5.193.96 1.726.03 3.058-.01 4.863-.002 65.526.065 130.58.082 195.633.088.993 0 1.986-.15 3.34-.153 1.12-.376 1.883-.83 2.923-1.093.451.604.623 1.02.795 1.434-1.85.615-3.7 1.764-5.55 1.767-65.59.09-131.182.162-196.772-.069-6.247-.021-12.487-2.024-19.867-3.305-3.43 1.308-8.473 4.918-13.415 4.784-12.514-.339-25.286-1.167-36.367-8.324-7.403-4.78-14.806-9.574-22.021-14.63-4.956-3.473-4.803-6.3.381-9.16 13.125-7.241 26.843-9.694 41.435-4.767 1.074.362 2.57-.522 4.069-1.137z"/><path fill="#FBBD51" d="M495.167 142.584c-1.69.382-3.379 1.09-5.07 1.097-19.261.09-38.523.143-57.782-.008-2.298-.018-4.586-1.302-6.776-2.37.103-.369.491-.414.875-.374 7.409-3.746 14.875-6.923 21.283-11.562 3.447-2.496 5.762-3.687 9.318-1.393 0 0-.015.022.148.341 2.526 3.465 5.148 3.332 8.135 1.142 1.788-1.31 3.797-2.32 5.921-3.2 2.439 1.61 4.736 2.85 6.872 4.323 5.729 3.948 11.39 7.996 17.076 12.004z"/><path fill="#FBB749" d="M376.698 237.975c5.172-4.328 10.345-8.656 15.902-12.99.385-.005.47.084.45.479 1.054 1.427 2.074 3.283 3.213 3.36 8.987.605 17.996 1.131 27 1.142 5.299.006 10.603-.94 15.9-1.516 5.83-.633 6.927-4.555 6.876-9.585-.12-11.96-.037-23.922.158-35.892.447-.028.701-.037.956-.038.042 4.932.072 9.864.129 14.795.138 12.113.288 24.226.017 36.832-7.552-.845-11.635 5.185-17.648 7.456-1.018-.161-1.88-.091-2.259-.486-3.09-3.22-6.228-3.272-9.62-.485-.6.492-1.511.794-2.299.84-9.335.533-18.65.91-26.05-6.444-.11-.11-.583.144-1.174.308v3.743c-3.352.241-2.942-6.193-7.54-3.337-1.542.705-2.777 1.262-4.01 1.818z"/><path fill="#422718" d="M430.03 242.035c5.634-2.288 9.717-8.318 17.248-7.04 13.859 3.479 18.711 15.674 11.27 28.255-.366-4.11-2.333-7.42-6.191-8.835-4.768-1.747-9.808-2.753-14.584-4.04-3.05 3.914-5.933 7.611-9.079 11.09-2.765-6.875-3.539-13.388 1.337-19.43z"/><path fill="#F6C59D" d="m428.957 261.684 8.816-11.308c4.776 1.286 9.816 2.292 14.584 4.04 3.858 1.414 5.825 4.725 6.139 9.2-2.251 3.362-4.911 6.405-7.234 9.688-.63.891-.24 2.505-.277 4.07-5.329 6.163-10.067 6.173-15.597-.143.229-1.68.798-3.155.311-4.071-2.077-3.915-4.466-7.665-6.742-11.476z"/><path fill="#ECDC99" d="M144.917 158.745c-1.409.359-2.75.335-4.484-.081-1.839-4.623-5.248-8.815-.647-13.186.085-.08-.219-.57-.093-.262l-6.755-3.284c-.003-.42-.006-.842.038-1.998.05-2.13.051-3.527.053-4.923 1.239-.661 2.68-1.112 3.654-2.049.818-.787 1.837-2.658 1.487-3.162-2.97-4.284 1.607-5.584 3.242-7.648.664-.838 3.638.12 5.553.33.619.068 1.214.359 1.78.535 4.494-8.186 9.107-7.907 13.966-.47 3.385.465 6.428.005 8.151 1.3 3.62 2.72 3.538 4.65 1.377 9.451 7.86 6.513 7.779 7.85-1.158 15.449 3.553 4.269 1.43 7.071-2.665 9.277-.435.235-1.073.847-1.232.736-5.09-3.58-6.709.931-9.674 3.572-2.793 2.488-7.02.295-9.112-3.775-.474-.922-1.314-1.655-1.985-2.475-.476.76-.953 1.52-1.496 2.663m-3.753-14.799c-.014 1.78.042 3.564-.064 5.338-.072 1.203-.37 2.393-.566 3.588 1.186.047 2.612.543 3.516.06 3.537-1.89 5.615-.5 7.274 2.605.653 1.222 1.533 2.323 2.806 4.217 3.012-6.951 6.953-9.304 12.684-4.002l2.766-3.147c-3.867-5.565-3.18-7.419 3.204-9.619.785-.27 2.026-1.292 1.927-1.652-.248-.892-.99-1.917-1.815-2.336-4.807-2.448-5.291-3.79-3.162-8.7.375-.865.42-2.56-.097-2.97-.839-.666-2.567-1.158-3.401-.724-4.584 2.379-6.725.923-7.488-3.94-.15-.957-1.55-2.313-2.453-2.377-.818-.059-2.23 1.237-2.54 2.205-1.588 4.952-4.4 5.716-8.712 3.194-.77-.45-2.46-.373-3.037.18-.573.548-.627 2.128-.303 3.04 1.934 5.448 1.355 6.545-4.293 8.15-.868.246-1.499 1.324-2.24 2.018.773.656 1.503 1.373 2.33 1.953 1.124.79 2.322 1.475 3.664 2.919z"/><path fill="#D5D6D8" d="M481.248 358.754c5.826 1.077 11.661 2.108 17.471 3.265 1.438.286 2.908.797 4.148 1.557.857.525 1.876 1.676 1.841 2.506-.032.756-1.284 1.9-2.177 2.11-7.202 1.688-14.393 3.544-21.693 4.661-7.167 1.098-14.453 1.843-21.694 1.901-6.679.054-13.366-1.008-19.674-1.972 15.453-1.06 28.903-6.672 41.778-14.028z"/><path fill="#F8AE3E" d="M495.46 142.5c-5.98-3.924-11.64-7.972-17.369-11.92-2.136-1.472-4.433-2.713-6.725-4.62 1.815-3.038 3.698-5.516 5.58-7.993 0 0 .031.016.4.011 1.45-1.005 2.532-2.006 3.615-3.008 0 0 .025.027.378.017 1.106-.68 1.859-1.35 2.611-2.02 0 0 .02.023.251-.096.512-.326.69-.6.766-.94.93-1.188 1.862-2.376 3.301-3.73 1.762 1.322 3.016 2.809 4.219 4.235 1.133-.424 2.32-.868 3.46-.954-.241 1.151-.647 1.957-.6 2.735.549 9.008 1.167 18.012 1.766 27.017-.453.394-.906.788-1.652 1.266z"/><path fill="#EE9B32" d="M186.914 199.084c-5.26-3.813-10.592-7.531-15.75-11.478-2.793-2.139-5.288-4.668-8.09-7.322.362-1.088.723-2.145 1.46-2.622 6.913-4.476 13.891-8.853 21.245-12.924.67 1.943 1.178 3.549 1.185 5.157.047 9.73-.02 19.46-.05 29.19z"/><path fill="#5E7DC5" d="M481.857 206.866c.24-4.908-.76-8.302-6.311-10.521-7.306-2.92-10.367-11.421-8.365-18.829 2.055-7.603 9.173-12.734 17.189-12.39 7.606.327 14.104 5.877 15.445 13.192 1.52 8.289-1.855 15.978-9.657 18.628-5.43 1.845-4.04 5.567-4.897 9.525-1.383.442-2.394.418-3.404.395m-6.15-14.922c6.771 3.704 11.873 3.438 16.491-.858 4.024-3.744 5.258-9.798 2.78-14.604-2.487-4.82-6.454-7.6-11.995-7.384-5.069.197-8.914 2.786-10.954 7.383-2.481 5.588-1.32 10.697 3.678 15.463z"/><path fill="#275875" d="M484.057 324.914c.73.194 1.487.627 2.184.546 10.17-1.188 13.65 2.871 10.567 13.341-8.824 2.367-17.577 3.163-23.613 11.228-1.073-3.997-1.763-6.566-2.423-9.488.948-3.74 1.867-7.128 3.118-10.532 3.61-1.71 6.889-3.402 10.167-5.095z"/><path fill="#355A6D" d="M388.378 357.107c-.494-.432-.666-.847-1.216-1.706a37.425 37.425 0 0 0-3.074-2.523c-.043.01.038.05-.005-.233-.363-.446-.683-.61-1.016-.728-.013.047.07-.002.042-.293-.348-.46-.668-.628-.98-.751.008.044.084-.005.088-.35-.706-1.25-1.416-2.154-2.127-3.403-.277-.95-.552-1.553-.825-2.157-3.925-8.7.406-15.158 10.043-15.05 1.985.023 3.973-.216 6.04.03 2.155.352 4.233.339 6.39.688 1.27 3.945 2.24 7.625 3.75 11.067.635 1.448 2.41 2.396 3.998 3.659 1.237.006 2.141-.076 3.396.122 3.942.369 7.533.457 11.384.684.42.252.582.364.625.756-1.301 1.077-2.88 1.617-3.602 2.718-3.214 4.899-7.675 7.818-13.59 9.171-1.098-.179-1.884-.36-3.058-.596-3.12.997-5.853 2.047-8.852 2.891-1.44-.825-2.614-1.444-3.788-2.063-1.1-.638-2.201-1.277-3.623-1.933m15.565-11.85c-.312-1.61-1.043-3.272-.854-4.821.523-4.275-1.663-6.898-5.277-7.716-3.446-.78-7.391-1.145-10.695-.207-2.658.756-5.683 3.294-6.783 5.81-2.21 5.056 7.212 16.618 12.73 16.532 2.482-.04 4.971.386 8.379.68 2.308-1.924 6.686-4.233 2.5-10.279z"/><path fill="#E13B32" d="M495.993 111.123c-1.187.445-2.373.89-3.506 1.313-1.203-1.426-2.457-2.913-4.02-4.51-.311-3.69-.313-7.27-.377-11.286.969-3.934 2.83-5.829 6.954-5.834 13.217-.016 13.217-.174 13.018 12.688-.098 6.351-.863 7.027-9.135 7.387-1.5.089-2.217.166-2.934.242z"/><path fill="#EC9F40" d="M447.337 182.606c-.439.33-.693.34-1.393.359-.616-.003-.785-.008-1.006-.342-4.239-4.444-8.055-9.122-15.11-10.561 4.736 5.797 5.692 10.884 1.974 13.146-2.392 1.456-6.639 1.361-9.414.295-3.205-1.232-2.725-6.759.345-11.122l4.025 1.44.458-7.09-12.173-7.202c0 14.985 0 29.277-.002 43.888-.013.746-.025 1.172-.29 1.59-.587-.03-.922-.052-1.256-.074.051-16.177.103-32.354.337-48.847.586-.197.988-.078 1.817.261.714.396 1 .57 1.287.746 9.24 6.006 18.55 11.911 27.651 18.12 1.454.991 1.98 3.342 2.75 5.393z"/><path fill="#FAF7E8" d="M215.577 116.078c-1.086-5.27.024-10.204.016-14.953-.02-11.902 8.812-15.567 15.979-21.205 1.426-1.122 2.393-2.829 3.506-4.185 9.21-1.567 15.517-8.386 23.09-13.55 2.077 1.792 2.828 2.91-.305 4.95-5.458 3.553-10.415 7.862-15.734 11.641-3.043 2.163-6.31 4.046-9.609 5.808-6.045 3.228-10.255 8.43-13.285 14.14-1.427 2.687-.343 7.03.385 10.458.929 4.376 2.648 8.585 4.217 13.456-5.77.166-6.05-4.004-8.26-6.56z"/><path fill="#253D5B" d="M481.493 358.483c-13.12 7.627-26.57 13.238-42.094 13.965-1.17.127-1.895.194-3.302.138-1.486-.305-2.288-.486-3.09-.894.001-.227 0-.681.416-.684 1.801-.013 3.187-.023 4.965-.034 2.45-.559 4.658-.811 6.54-1.731 5.4-2.641 10.485-5.998 16.026-8.26 9.894-4.036 19.933-7.66 28.39-15.022 2.764-2.005 5.182-3.97 7.6-5.933-1.714 3.2-2.952 6.812-5.265 9.497-2.845 3.3-6.588 5.826-10.186 8.958z"/><path fill="#F18645" d="M481.538 207.168c1.33-.279 2.34-.255 3.653-.27 1.36 1.905 3.21 3.8 3.336 5.802.434 6.963.278 13.964.332 20.95.025 3.198-1.037 5.698-4.662 5.836-3.53.135-5.132-2.027-5.165-5.342-.076-7.485-.162-14.975.043-22.455.039-1.425 1.395-2.813 2.463-4.521z"/><path fill="#F8D66F" d="m296.711 33.793 10.293-4.295 1.168 1.62c-6.193 11.185-12.385 22.371-18.871 33.305.731-6.96.705-13.503-3.146-19.724 4.873-3.486 9.592-6.67 14.811-10.191l-4.255-.715z"/><path fill="#234A6A" d="M437.996 370.974c-1.386.01-2.772.021-4.576-.22-.42-.42-.421-.589-.416-1.13.68-5.55 5.32-5.569 8.783-7.126 7.025-3.16 14.053-6.314 21.062-9.51 1.357-.618 2.631-1.417 3.944-2.133-1.159-.939-2.272-1.944-3.495-2.79-.641-.442-1.475-.606-1.789-.959 2.668-1.312 7.159 2.58 7.606-3.394a185.418 185.418 0 0 0 1.627-2.818l2.453 9.135c6.036-8.065 14.789-8.861 23.378-11.033.429.17.458.343.43.774-2.477 2.222-4.895 4.186-7.898 5.923-1.832-.118-3.203-.306-4.307.15-7.576 3.126-15.197 6.176-22.606 9.67-6.88 3.243-13.597 6.86-20.198 10.642-1.696.971-2.685 3.18-3.998 4.82z"/><path fill="#FCDE73" d="M286.002 45c4.004 5.92 4.03 12.463 3 19.585-1.237 5.016-2.099 5.236-5.548 2.195-3.26-2.875-6.68-5.568-10.317-8.81-.877-1.671-1.467-2.874-1.855-4.33 5.042-3.05 9.88-5.844 14.72-8.64z"/><path fill="#D58A2E" d="M186.984 199.41c-.04-10.055.027-19.785-.02-29.515-.007-1.608-.515-3.214-.851-5.213.497-.943 1.054-1.495 2.067-2.358.719-.592.983-.874 1.247-1.157.978-.367 1.957-.735 3.234-1.2.404 14.622.51 29.34.594 44.523-2.08-1.276-4.14-3.016-6.27-5.08z"/><path fill="#E8DECB" d="M94.28 240.304c-.261-6.804 1.895-10.312 7.173-12.53 4.82-2.026 8.273.08 11.38 3.517 3.008 3.33 2.952 9.222-.176 13.213-2.62 3.344-8.625 4.782-12.11 2.375-2.352-1.626-4.114-4.105-6.267-6.575m11.067 2.712c4.055-.524 6.275-3.223 4.959-6.764-.803-2.16-3.982-4.337-6.353-4.673-1.393-.197-4.173 2.946-4.78 5.036-1.16 3.996 1.336 6.12 6.174 6.401z"/><path fill="#F9CA51" d="M286.155 44.699c-4.992 3.097-9.831 5.891-15.183 9.1-1.9 1.835-3.135 3.48-4.745 4.572-.694.472-2.163-.199-3.28-.35 0 0-.039.166-.04-.25-1.465-7.859-1.395-7.688 5.88-10.71 2.933-1.217 5.48-3.363 8.606-5.08 4.061-1.144 8.69-.26 10.921-4.909.23-.015.691-.062 1.07-.065 1.44-.706 2.502-1.409 3.564-2.111 1.032-.358 2.064-.716 3.43-1.088 1.565.192 2.796.399 4.588.7-5.22 3.521-9.938 6.705-14.81 10.19z"/><path fill="#F8E17F" d="M276.99 41.974c-2.722 1.724-5.27 3.87-8.203 5.088-7.275 3.02-7.345 2.85-5.965 10.702-2.006-6.344-7.782-7.68-13.97-8.437l.113-1.82c13.736-4.156 27.472-8.312 41.455-12.217-.307.74-.86 1.23-1.415 1.72 0 0-.46.047-1.072.076-4.055 1.648-7.499 3.268-10.942 4.888z"/><path fill="#D5D6D8" d="M391.91 359.419c1.265.24 2.439.86 3.877 2.065.875 2.58 1.485 4.573 2.28 6.863 2.069 1.068 3.954 1.838 5.924 2.82.085.21.075.665.075.665-2.315.052-4.682.435-6.937.09-5.327-.817-10.624-1.879-15.882-3.066-1.474-.333-2.772-1.445-4.151-2.2l-.231-1.84c3.493-1.265 6.975-2.563 10.485-3.778 1.458-.505 2.978-.833 4.56-1.62z"/><path fill="#E8DECB" d="M379.73 100.554c1.745-.479 3.187-.695 3.869-.798l3.581-6.515 4.48 6.435 4.535 2.127-.406 1.514-3.895.889-4.851 5.704-3.037-4.886c-.723-2.22-5.839.872-4.277-4.47z"/><path fill="#D65B5B" d="M404.456 371.908c-.39-.076-.38-.53-.353-1.11.429-2.333.83-4.088 1.356-5.919.302-.364.253-.61-.077-1.154.006-.798.064-1.254.44-1.696 3.13.588 7.602-1.27 6.951 4.51-.007.066 1.459.297 2.258.701.318.515.616.779.913 1.043l.381-.827c-.445-.149-.89-.297-1.152-.714 1.36-.939 2.537-1.61 4.71-2.846 0 2.806 0 4.654-.378 6.674-4.086.697-7.794 1.222-11.502 1.748a135.467 135.467 0 0 1-3.547-.41z"/><path fill="#F8B549" d="m426.03 140.889-.582.068c-.334-12.994-.474-26.01-.506-39.483 3.66 2.318 7.21 5.093 10.9 8.566-2.853 6.376-5.573 1.196-9.812-.108v30.957z"/><path fill="#FCEEB9" d="M132.616 142.018c2.425.936 4.528 1.959 7.077 3.198-.126-.308.178.181.093.262-4.6 4.37-1.192 8.563.241 13.18-2.426 1.89-4.952 1.456-5.67-1.057-.757-2.647-.17-5.678-.17-8.542l1.685-.37c-2.18-1.34-4.359-2.68-6.744-4.286.919-.944 2.043-1.621 3.488-2.385z"/><path fill="#E8DECB" d="M184.9 82.99c-3.96-.015-7.448.092-10.915-.13-.879-.057-1.69-1.162-2.534-1.786.79-.674 1.561-1.904 2.373-1.932 5.296-.18 10.604-.183 15.9-.01.732.023 1.422 1.327 2.132 2.038-.667.59-1.261 1.544-2.015 1.693-1.438.285-2.967.11-4.94.127zM331.799 69.318c5.227-.201 10.057-.388 14.873-.203 1.513.058 2.987 1.114 4.48 1.714l-.514 2.13c-6.211 0-12.433.214-18.629-.101-2.672-.136-2.16-1.915-.21-3.54zM497.518 269.012c-4.735-.002-9.029.137-13.3-.108-1.066-.061-2.06-1.36-3.087-2.09 1-.595 2.021-1.736 2.993-1.695 5.79.246 11.753-1.177 17.66 2.373-1.273.506-2.546 1.012-4.266 1.52z"/><path fill="#FBBD51" d="M495.947 111.482c.763-.435 1.48-.512 2.551-.54.36 8.3.422 16.552.323 24.802-.021 1.725-.639 3.443-1.345 5.327-.962-8.842-1.58-17.846-2.13-26.854-.046-.778.36-1.584.601-2.735z"/><path fill="#FCEEB9" d="M127.905 143.53c-1.07 1.935-2.203 3.537-3.354 5.125-1.79 2.47-6.744 2.632-7.313-.071-1.797-8.536-6.83-4.593-11.62-3.398.909-5.166 5.842-2.148 8.766-3.77.388-.215 2.346 2.443 3.604 3.745.932.965 1.946 2.669 2.854 2.625 1.048-.051 2.53-1.488 2.918-2.63.787-2.317 1.138-4.498 4.145-1.627z"/><path fill="#D5D6D8" d="M408.131 372.676c3.58-.884 7.288-1.41 11.75-1.962 1.546.037 2.34.1 3.542.234 3.467.37 6.525.67 9.583.97.803.182 1.605.363 2.745.78-1.007.593-2.36 1.287-3.695 1.252-7.935-.211-15.865-.592-23.925-1.274z"/><path fill="#E8DECB" d="M100.122 293.562c-6.881.25-13.418.25-19.954.25l-.06-2.028c1.128-.274 2.253-.763 3.386-.785 4.634-.09 9.278-.18 13.9.07 1.062.057 2.051 1.46 2.728 2.493z"/><path fill="#C14248" d="M476.014 296.024c.015-.2.03-.398.076-.895 3.428 8.122 6.879 16.52 10.128 24.995.3.782-.688 2.057-1.518 3.124a.715.715 0 0 1-.757-.772c1.153-10.268-5.108-17.834-7.929-26.452z"/><path fill="#C14248" d="M484.085 324.68c-3.306 1.927-6.585 3.62-10.59 5.23-2.645-1.01-4.563-1.94-6.431-3.213.129-.8.21-1.253.63-1.609 2.446.616 4.705 1.877 6.626 1.485 3.31-.676 6.408-2.38 9.595-3.654 0 0 .347.349.51.532.004.454-.154.725-.34 1.23z"/><path fill="#E8DECB" d="M255.332 93.24c2.132.021 4.048.157 5.8.764.25.086.168 3.075-.57 3.617-1.086.796-3.688 1.292-4.232.674-.976-1.11-.902-3.143-.998-5.055z"/><path fill="#EC9F40" d="M262.94 58.388c1.124-.216 2.593.455 3.287-.017 1.61-1.093 2.845-2.737 4.542-4.318.9 1.043 1.49 2.246 2.023 3.724-2.091 1.288-4.19 2.188-6.142 3.337-2.937 1.73-3.393-.137-3.71-2.726z"/><path fill="#E8DECB" d="M109.484 290.35c.855 1.272 1.35 2.408 1.845 3.545-1.557.32-3.114.848-4.67.847-.526 0-1.052-1.337-1.578-2.063 1.348-.821 2.695-1.643 4.403-2.329zM505.816 268.54c-.915-4.117 1.852-3.574 4.008-3.25.756.113 1.32 1.507 1.971 2.316-.757.46-1.47 1.18-2.282 1.318-1.088.186-2.252-.078-3.697-.384zM200.097 82.972c-1.492-.72-2.582-1.446-3.672-2.172.89-.59 1.796-1.683 2.665-1.654 1.264.042 2.5.892 3.749 1.398-.78.807-1.56 1.615-2.742 2.428z"/><path fill="#FCEEB9" d="M104.86 145.228c.051 3.22 4.803 6.662-.39 9.78a44.25 44.25 0 0 1 .39-9.78zM92.235 164.105c1.85 1.037 4.26 2.11 5.224 3.944.471.897-1.745 3.207-3.12 4.844 2.533-3.57.376-6.041-2.104-8.788zM115.114 192.674c5.249-1.826 4.985 2.463 5.919 5.893-1.95-1.589-3.886-3.558-5.919-5.893zM101.447 185.039c.652.984 1.63 2.419 1.507 3.753-.167 1.825-1.172 3.573-1.804 5.715-.399-.907-1.202-2.197-1.134-3.438.105-1.892.814-3.751 1.431-6.03zM89.843 174.202c.919 2.7 1.466 5.392 1.999 8.461-3.64-1.815-4.533-4.735-1.999-8.461zM92.171 184.204c2.961-.415 5.932-.449 9.04-.147-2.919.4-5.974.464-9.04.147zM101.164 195.212c2.499.806 5.005 1.973 7.752 3.379-2.42-.847-5.083-1.932-7.752-3.379zM92.706 157.07c-.243 1.676-.843 3.37-1.471 5.395-2.373-1.284-2.071-2.793 1.47-5.394z"/><path fill="#ECDC99" d="M146.532 168.04c-.67-2.08-1.01-4.242-1.292-6.807.579 1.973 1.1 4.349 1.292 6.807z"/><path fill="#FCEEB9" d="M99.942 154.651c-1.375.014-2.786-.325-4.565-.692 1.523-3.365 3.061-1.993 4.565.692zM110.058 198.782c.547-1.816 1.469-3.594 2.673-5.543a23.665 23.665 0 0 1-2.673 5.543z"/><path fill="#F8D66F" d="M289.384 37.007c.175-.486.73-.976 1.442-1.696.593-.308 1.027-.386 1.792-.44-.732.727-1.794 1.43-3.234 2.136z"/><path fill="#FCEEB9" d="M132.77 135.245c.257 1.162.256 2.559.223 4.374-.182-1.1-.332-2.62-.223-4.374z"/><path fill="#EBEAE9" d="M367.903 126.701c-.873-.12-1.779-.593-2.826-1.35.836.142 1.815.57 2.826 1.35z"/><path fill="#FCEEB9" d="M103.69 155.08c-.606.259-1.642.466-2.842.438.694-.32 1.554-.406 2.842-.439z"/><path fill="#F6C59D" d="M455.795 277.193c-.552.278-1.332.408-2.475.351.507-.29 1.377-.395 2.475-.351zM464.761 277.537c-.625.211-1.508.194-2.669-.009.62-.197 1.515-.207 2.67.01z"/><path fill="#FCEEB9" d="M93.846 155.19c.097.424-.086.985-.53 1.703-.09-.417.08-.992.53-1.704z"/><path fill="#EBEAE9" d="M241.692 127.107c.178.245.022.5-.502.723-.113-.225.065-.451.502-.723z"/><path fill="#ECDC99" d="M145.143 168.857c-.02-.226.208-.458.69-.684.133.346-.099.57-.69.684z"/><path fill="#EBEAE9" d="M189.125 161.207c.038.243-.226.525-.778.869-.033-.235.222-.532.778-.869z"/><path fill="#FCEEB9" d="M91.237 163.085c.292-.215.57-.055.878.447-.212.089-.519-.049-.878-.447z"/><path fill="#EBEAE9" d="M416.843 158.846c-.194.072-.48-.103-.878-.506.188-.065.487.097.878.506zM368.88 127.825c-.184.057-.466-.119-.835-.533.188-.059.464.12.836.533z"/><path fill="#FDC152" d="M281.004 281.004c3.966-2.084 7.933-4.167 11.957-6.593.057-.343.048-.397.461-.414 3.459-1.27 6.504-2.521 9.55-3.774.475-.065.95-.13 2.028.12 3.725 1.1 6.847 1.885 9.969 2.67 0 0 .033-.015.077.353 5.346 3.457 10.648 6.546 15.952 9.635.002-.001.001.003.058.345 2.618 4.373 5.524 7.89 11.2 7.647.248.002.744.007.783.359 2.349 1.78 4.658 3.21 7.31 4.676 1.442.351 2.54.665 3.694 1.314 1.356 1.11 2.657 1.883 4.257 2.81.804.587 1.267 1.084 1.817 1.447 11.345 7.499 22.68 15.01 34.082 22.42 1.04.677 2.515.685 3.92 1.273.545.895.959 1.52 1.59 2.473-1.145.118-1.892.195-2.874.003-2.804-.855-6.332-2.793-7.768-1.776-4.602 3.257-8.284 3.356-11.224-.142-2.8.464-4.83 1.192-6.782 1.02-2.125-.188-4.172-1.771-6.259-1.784a6088.993 6088.993 0 0 0-68.393-.033c-4.783.025-9.556.953-14.344 1.077-13.602.35-27.211.758-40.812.63-7.962-.075-15.873-2.554-23.891.096-2.627.868-5.564.796-8.2.844 4.73-3.235 9.334-6.11 13.852-9.113 2.095-1.392 4.021-3.037 6.386-4.61 2.027-.758 3.818-1.269 5.337-2.216 12.32-7.684 24.64-15.367 36.837-23.244 3.36-2.17 6.298-4.991 9.43-7.513z"/><path fill="#C2C2C2" d="M377.416 166.713c-2.342.965-4.501 2.126-6.667 2.139-23.442.13-46.885.086-70.327.067-1.318-.001-2.85.174-3.896-.418-1.085-.614-2.212-2-2.35-3.164-.102-.865 1.19-2.137 2.154-2.806.724-.502 1.913-.447 2.895-.447 24.273-.02 48.547-.026 72.821.004 2.868.004 5.341.737 5.37 4.625zM287.999 228.074c7.96.291 15.431.453 22.874.992 1.354.098 2.597 1.733 3.891 2.659-1.31 1.063-2.5 2.364-3.971 3.104-.934.469-2.288.108-3.453.108-22.644 0-45.289-.002-67.933-.009-1.33 0-2.874.36-3.939-.186-1.312-.674-2.676-1.975-3.11-3.302-.2-.608 1.602-2.338 2.794-2.816 1.469-.588 3.248-.527 4.894-.53 15.818-.033 31.635-.02 47.953-.02zM358.998 201.958c-19.47 0-38.441.002-57.412-.003-1.33 0-2.866.366-3.94-.17-1.405-.701-2.445-2.132-3.641-3.25 1.296-.856 2.557-2.38 3.897-2.452 5.31-.286 10.644-.119 15.969-.119 19.303 0 38.607-.032 57.91.051 2.02.01 5.199-1.237 5.177 2.685-.022 3.854-3.068 3.208-5.48 3.242-3.993.057-7.987.016-12.48.016zM295.774 212.299c25.869-.208 51.335-.298 76.8-.194 1.483.006 4.044 1.382 4.236 2.454.598 3.355-2.164 3.424-4.61 3.424-19.808-.001-39.617.004-59.426.007-4.993 0-9.995.172-14.978-.056-3.995-.182-4.963-2.165-2.022-5.635zM287 185.028c-16.658 0-32.818.088-48.973-.112-1.906-.024-3.793-1.623-5.688-2.491 1.875-1.135 3.742-3.239 5.628-3.256 23.652-.221 47.308-.14 70.962-.133.832 0 1.892-.27 2.45.133 1.213.878 2.171 2.11 3.234 3.198-1.209.884-2.395 2.497-3.629 2.535-7.822.236-15.655.123-23.984.126z"/><path fill="#C2C1BF" d="M358.191 251.051c-19.148-.016-38.296-.03-57.444-.056-1.495-.002-3.13.256-4.441-.261-.968-.381-2.1-1.839-2.084-2.797.017-.95 1.254-2.052 2.207-2.742.563-.408 1.612-.182 2.442-.18 21.812.02 43.623.05 65.802.458-1.916 2.114-4.199 3.846-6.482 5.578z"/><path fill="#C2C2C2" d="M252.002 162.076c9.49 0 18.483.01 27.475-.01 2.715-.005 6.065-.211 6.188 3.315.126 3.594-3.177 3.564-5.93 3.56-13.821-.014-27.642-.014-41.463 0-2.75.003-6.063.035-5.947-3.545.115-3.513 3.467-3.344 6.189-3.328 4.33.025 8.659.008 13.488.008z"/><path fill="#FBB749" d="M358.011 251.346c2.463-2.027 4.746-3.76 7.143-5.803 2.982-2.083 5.851-3.854 9.35-5.555.92.385 1.209.7 1.456 1.369-1.767 1.75-3.494 3.146-5.22 4.543-3.744 3.03-8.384 5.433-11.038 9.227-4.82 6.892-7.71 15.368-17.602 16.878-.597.091-1.098.722-1.675 1.046-3.614 2.027-7.237 4.037-10.914 6.084l1.485 3.866c-5.302-3.089-10.604-6.178-15.956-9.618 3.327 1.255 7.555 4.973 9.905 4.026 4.843-1.95 8.683-6.39 13.417-10.124a608.2 608.2 0 0 0 7.727-6.222c3.914-3.14 7.828-6.281 11.922-9.717z"/><path fill="#C2C2C2" d="M330.167 185.03c-3.098-.533-7.628 1.59-7.545-2.966.075-4.164 4.433-2.98 7.223-2.998 13.302-.082 26.605-.039 39.908-.039 1.164 0 2.56-.396 3.44.106 1.448.827 2.562 2.239 3.818 3.404-1.323.824-2.636 2.348-3.97 2.365-14.13.181-28.266.122-42.874.129zM260 211.984c7.47.003 14.446-.152 21.404.134 1.498.061 2.932 1.71 4.396 2.627-1.458 1.078-2.902 3.07-4.376 3.093-15.097.228-30.2.208-45.298.005-1.275-.017-2.525-1.855-3.787-2.846 1.254-1 2.48-2.818 3.768-2.863 7.79-.275 15.594-.145 23.893-.15zM257 195.982c8.483-.003 16.47-.148 24.444.116 1.479.048 2.903 1.744 4.353 2.68-1.482 1.057-2.95 3.011-4.448 3.034a1442.17 1442.17 0 0 1-44.898-.012c-1.384-.022-2.734-2.123-4.1-3.26 1.397-.858 2.768-2.402 4.197-2.458 6.642-.259 13.3-.105 20.452-.1z"/><path fill="#C2C1BF" d="M272.168 267.617c-2.66-1.765-4.977-3.784-7.408-6.13 14.994-.387 30.101-.523 45.206-.383 1.35.012 2.683 1.81 4.023 2.779-1.392 1.025-2.764 2.906-4.179 2.939-10.621.25-21.25.117-31.878.154-1.807.006-3.613.252-5.764.64zM356 234.068c-9.82-.001-19.144.106-28.46-.113-1.533-.036-3.033-1.503-4.549-2.309 1.42-.9 2.831-2.565 4.262-2.583 15.144-.19 30.292-.19 45.436-.005 1.442.018 2.864 1.652 4.295 2.536-1.502.827-2.969 2.283-4.512 2.369-5.31.293-10.646.108-16.472.105zM252.15 251.049c-2.729-1.731-4.957-3.474-7.292-5.532 11.862-.382 23.833-.568 35.798-.381 1.67.026 3.31 1.887 4.964 2.898-1.677.99-3.329 2.781-5.035 2.835-9.304.292-18.62.156-28.434.18zM345.614 261.018c-1.94 2.013-4.356 3.981-7.11 5.953-4.126-.004-7.963.336-11.681-.177-1.66-.229-3.083-2.172-4.613-3.337 1.548-.823 3.067-2.282 4.65-2.356 6.082-.283 12.184-.122 18.754-.083z"/><path fill="#FBB749" d="M392.942 224.935c4.738-4.003 9.518-7.96 14.676-11.93.379-.01.45.068.39.405-.41 4.08-.74 7.974-5.049 9.362-3.21 1.034-6.586 1.55-9.889 2.297l-.128-.134z"/><path fill="#F8B549" d="M376.001 241.002c-.288-.314-.577-.629-1.166-1.077.273-.628.847-1.122 1.642-1.783 1.455-.723 2.69-1.28 4.38-1.637 2.679 6.568-2.492 3.798-4.856 4.497z"/><path fill="#FBB749" d="M302.595 270.155c-2.67 1.32-5.714 2.573-9.147 3.848a96.992 96.992 0 0 1 9.147-3.848zM314.768 272.717c-2.921-.49-6.043-1.274-9.415-2.289a77.442 77.442 0 0 1 9.415 2.289zM407.961 212.954c1.42-1.328 2.875-2.617 4.689-3.926.358-.02.419.04.354.384-1.689 1.45-3.312 2.556-4.935 3.661l-.108-.119zM413.338 207.249c.491-.294.826-.273 1.368.07-.407.797-1.022 1.273-1.637 1.748l-.091-.089c.047-.491.125-.952.36-1.73z"/><path fill="#FAB03F" d="M281 280.608c-3.128 2.918-6.067 5.74-9.426 7.909-12.196 7.877-24.518 15.56-36.837 23.244-1.52.947-3.31 1.458-5.587 2.002.094-1.022.768-1.902 1.513-2.718 1.393-1.525 2.827-3.012 4.243-4.514-1.89-.842-3.756-2.314-5.677-2.39-3.593-.141-7.222.853-10.828.799-11.252-.17-22.502-.555-33.748-.974-3.01-.112-6.003-.642-8.593-.933l-1.557 5.954h-12.442c-.02-12.679-.041-25.357-.067-38.502 1.692.014 3.388.493 5.452 1.077-.093-6.394-5.923-12.863-.223-20.643.95 2.33 1.373 3.317 1.755 4.32.583 1.533 1.137 3.077 1.703 4.617l3.652-4.048c.092 6.322 4.277 4.447 8.64 4.361 19.282-.381 38.577-.266 57.866-.104 6.042.05 12.098.642 18.103 1.361 1.633.196 3.216 1.614 4.629 2.72 5.593 4.377 11.143 8.813 16.607 13.35.607.504.562 1.792.823 3.112z"/><path fill="#F8AA3B" d="M162.04 309.456c3.8-.47 7.579-.47 12.463-.47l1.557-5.953c2.59.291 5.584.82 8.593.933 11.246.419 22.496.805 33.748.974 3.606.054 7.235-.94 10.828-.799 1.92.076 3.786 1.548 5.677 2.39-1.416 1.502-2.85 2.99-4.243 4.514-.745.816-1.419 1.696-1.875 2.762-1.753 1.743-3.68 3.388-5.774 4.78-4.518 3.004-9.122 5.878-14.157 9.262-7.6 5.193-14.786 9.854-21.852 14.692-5.13 3.512-10.098 7.26-15.14 10.902-1.69-.51-3.383-1.02-5.458-1.935-1.413-2.415-2.44-4.425-3.455-6.802-.655-2.117-1.324-3.867-1.992-5.618.014-3.086.028-6.173.041-9.674.34-6.772.68-13.13 1.04-19.958z"/><path fill="#FBCD36" d="M160.746 338.95c.882 1.889 1.55 3.639 1.818 5.735-1.378.192-2.456.257-3.316-.145-15.141-7.08-31.361-10.044-47.722-12.314-2.894-.402-5.994.68-9 1.077.059.482.116.965.174 1.447 17.192 1.197 34.05 4.193 50.118 10.394 4.139 1.597 10.255 1.428 11.23 7.916-.156.294-.374.529-1.168.828a9.89 9.89 0 0 0-1.866 1.112c-.476.28-.953.56-1.82.722-.64.046-.89.209-1.138.372-.38.065-.76.13-1.627.171-.602.03-.72.084-.836.139l.357.604c-.765.274-1.53.549-2.844.571-1.112-1.203-1.469-2.476-2.3-3.005-.66-.422-1.9.064-2.881.147 0 0-.412.184-.864.34-.648.419-.844.683-1.04.947-.155.297-.371.54-1.297.842-2.69.145-4.73.178-6.77.21 0 0-.48-.015-.955-.313-1.64-.447-2.805-.597-3.97-.746 0 0-.033.01-.166-.232-.45-.345-.768-.45-1.085-.555-3.42-.901-6.84-1.803-10.635-3.168-.588-.748-.873-.893-1.229-.898 0 0-.015-.061-.135-.404-1.402-3.87-4.393-2.498-6.839-2.688-5.58-4.035-11.212-8.002-16.722-12.132-3.34-2.505-3.13-5.078.83-6.529 3.414-1.25 8.102-.78 10.399-2.979 5.635-5.395 12.077-3.018 18.187-3.31 2.645-.127 5.783.719 7.948 2.21 2.873 1.976 5.442 3.003 9.087 1.693.36.007.305 0 .422.176.318.426.566.612.862.735 4.797 2.963 9.594 5.926 14.81 9.238.611.589.85.76 1.139.865.21.263.42.526.844.927z"/><path fill="#FE904B" d="M160.957 328.632c-2.502-3.75-5.928-7.574-7.43-12.043-4.788-14.251-9.181-28.657-13.05-43.183-1.495-5.61-1.173-11.704-1.679-17.578l1.612-.222c.527 4.168.693 8.42 1.651 12.486 2.601 11.033 5.113 22.119 8.472 32.931 2.877 9.262 6.878 18.174 10.424 27.609z"/><path fill="#FCEEB9" d="M143.862 327.69c-.205.107-.453-.08-.773-.532.248-.193.515-.024.773.532z"/><path fill="#F8AA3B" d="M159.822 337.803c-.208.116-.448-.056-.752-.487.22-.162.482-.009.752.487z"/><path fill="#FAF0E4" d="M110.894 168.13c2.473-4.062 5.48-6.292 10.063-4.628 4.294 1.56 6.615 5.95 5.336 9.806-1.51 4.556-5.593 6.849-10.098 5.67-4.5-1.177-6.481-4.987-5.301-10.848z"/><path fill="#F7B041" d="M426.414 140.929c-.384-10.173-.384-20.306-.384-30.997 4.24 1.304 6.959 6.484 9.97.406 7 5.382 13.978 11.165 20.986 17.292-3.527-1.95-5.842-.759-9.29 1.737-6.407 4.64-13.873 7.816-21.282 11.562zM476.603 118.009c-1.539 2.435-3.422 4.913-5.451 7.687-2.057 1.442-4.066 2.45-5.854 3.761-2.987 2.19-5.61 2.323-8.125-1.147 4.935 1.279 8.335-1.504 11.754-4.664 2.247-2.078 4.875-3.744 7.676-5.637zM480.636 115.006c-.758.966-1.84 1.967-3.288 2.955.744-.981 1.854-1.95 3.288-2.955zM483.634 112.993c-.436.643-1.189 1.313-2.297 1.976.423-.655 1.202-1.302 2.297-1.976zM484.752 112.05c.14.22-.039.495-.545.806-.133-.223.053-.487.545-.806z"/><path fill="#FAB243" d="M375.96 241.357c2.405-1.054 7.576 1.716 5.204-5 4.143-3.056 3.733 3.378 7.085 3.137v-3.743c.59-.164 1.063-.418 1.174-.308 7.4 7.353 16.715 6.977 26.05 6.443.788-.045 1.7-.347 2.299-.84 3.392-2.786 6.53-2.734 9.62.486.379.395 1.241.325 2.26.486-4.497 6.06-3.723 12.572-.958 19.447 2.539 4.03 4.928 7.78 7.005 11.695.487.916-.082 2.392-.475 3.766-5.968.22-12.051-1.572-16.834 3.983-.346.133-.429.054-.416-.353.404-4.777-1.539-5.291-5.03-3.558-2 .994-5.65 2.872-5.933 2.476-2.992-4.186-6.653-1.472-10.04-1.511-14.559-.17-29.117-.472-43.677-.663-.893-.012-2.338.268-2.6.838-1.563 3.398-4.5 2.786-7.282 2.878-5.056.167-5.612.96-4.764 5.943-2.783-1.347-5.216-2.651-7.649-3.955V283c-.522-1.351-1.041-2.703-1.488-3.866 3.677-2.047 7.3-4.057 10.914-6.084.577-.324 1.078-.955 1.675-1.046 9.891-1.51 12.781-9.986 17.602-16.878 2.654-3.794 7.294-6.197 11.039-9.227 1.725-1.397 3.452-2.792 5.219-4.543z"/><path fill="#E33738" d="M483.943 322.476c-3.215 1.716-6.314 3.421-9.623 4.097-1.92.392-4.18-.87-6.73-1.804-.437-.862-.43-1.306-.094-1.915 9.074-2.351 9.484-4.377 2.972-14.168l-.785 3.646c-21.728-.16-42.786-.314-63.81-.838.989-2.768 1.944-5.168 3.282-7.517 4.991 1.095 9.096.956 11.298-5.428 1.057 6.446 5.094 6.69 9.79 6.539 8.515-.273 17.046-.036 25.57-.1 10.214-.077 10.214-.117 10.173-10.004l.293-4.402c3.593 7.748 3.593 7.748 9.364 5.475 3.192 8.585 9.453 16.15 8.3 26.42z"/><path fill="#EC3C3A" d="M465.559 294.987c.468 9.884.468 9.924-9.746 10.001-8.524.064-17.055-.173-25.57.1-4.696.15-8.733-.093-9.79-6.54-2.202 6.385-6.307 6.524-11.248 5.027-.344-1.808-.356-3.162-.178-4.82 1.724-3.462 3.258-6.62 4.952-10.05a111.964 111.964 0 0 1 2.044-2.737l-2.145 12.258c3.65-5.539 7.753-4.936 12.487-4.46 7.74.779 15.615.107 23.429.275 5.117.11 10.225.62 15.765.946z"/><path fill="#FAB243" d="M416.06 285.634c-.665 1.156-1.293 1.977-2.387 3.012-2.026-4.313.769-6.216 4.288-7.683l.125.12c-.634 1.432-1.312 2.824-2.026 4.55z"/><path fill="#FDCA5C" d="M171.936 353.717c4.97-3.917 9.94-7.664 15.07-11.176 7.065-4.838 14.252-9.499 21.692-14.384 3.1-.505 6.037-.433 8.664-1.3 8.018-2.651 15.929-.172 23.89-.097 13.602.128 27.211-.28 40.813-.63 4.788-.124 9.56-1.052 14.344-1.077 22.797-.118 45.596-.104 68.393.033 2.087.013 4.134 1.596 6.259 1.783 1.951.173 3.982-.555 6.782-1.02 2.94 3.499 6.622 3.4 11.224.143 1.436-1.017 4.964.921 7.636 1.983-.41.853-.922 1.228-1.434 1.604-1.988.118-3.976.357-5.961.335-9.637-.109-13.968 6.349-10.043 15.049.273.604.548 1.208.822 2.536.709 1.605 1.418 2.487 2.126 3.369 0 0-.076.05-.01.262.355.404.645.595.934.785 0 0-.083.049.02.25.392.39.68.576.969.763 0 0-.081-.04-.082.335a577.316 577.316 0 0 1-.066 3.409c-.994.08-1.987.23-2.98.23-65.054-.006-130.107-.023-195.871-.303-2.147-.126-3.583.01-5.018.146-1.476-.272-2.951-.544-4.92-1.065-.71-.463-.968-.585-1.27-.615-.638-.358-1.276-.716-1.983-1.348z"/><path fill="#FAD863" d="M164.36 353.022c-1.287-6.45-7.403-6.28-11.542-7.878-16.068-6.201-32.926-9.197-50.118-10.394l-.173-1.447c3.005-.397 6.105-1.479 9-1.077 16.36 2.27 32.58 5.234 47.721 12.314.86.402 1.938.337 3.303.511 1.415 2.032 2.443 4.042 3.48 6.396-.448.741-.904 1.138-1.672 1.575zM148.196 354.987c.71-.349 1.95-.835 2.61-.413.831.53 1.188 1.802 1.98 3-1.285-.61-2.801-1.465-4.59-2.587zM113.183 348.313c2.203-.067 5.194-1.439 6.573 2.452-2.045-.489-4.188-1.342-6.573-2.452zM384.337 356.749c-.337-1.089-.315-2.1-.25-3.498.929.312 1.812 1.01 2.796 1.96-.662.708-1.424 1.162-2.546 1.538zM138.239 357.307c1.754-.28 3.795-.312 6.268-.34-1.705.2-3.844.394-6.268.34zM180.502 356.816c1.042-.207 2.478-.343 4.152-.265-1.094.255-2.426.296-4.152.265zM133.26 356.269c.934-.119 2.099.03 3.502.442-.931.116-2.1-.03-3.501-.442zM161.31 354.995c.155-.324.607-.654 1.351-1.003-.156.32-.605.658-1.35 1.003zM158.303 356.08c.002-.15.25-.312.608-.326.11.15-.36.31-.608.325zM156.063 356.85c-.232-.043-.351-.245-.47-.446.117-.055.234-.11.547-.115.198.048.036.402-.077.56zM174.035 355.254c.186-.159.444-.037.78.353-.194.186-.456.073-.78-.353zM146.26 355.929c-.043-.185.153-.449.59-.789.044.187-.155.448-.59.789zM131.933 355.408c.162-.089.48.016.926.344-.217.21-.517.084-.926-.344zM120.02 351.367c.25-.214.535-.07.852.44-.237.185-.52.037-.852-.44z"/><path fill="#FCB94A" d="M413.004 209.412c.68-.82 1.295-1.296 1.955-2.084.057-.739.069-1.165.43-1.972 1.772-1.202 3.31-1.872 4.597-2.868 8.365-6.472 16.676-13.016 25.004-19.536l.76.022c.252 11.969.168 23.931.29 35.891.05 5.03-1.048 8.952-6.878 9.585-5.296.575-10.6 1.522-15.9 1.516-9.003-.01-18.012-.537-26.999-1.142-1.14-.077-2.16-1.933-3.214-3.36 3.324-1.142 6.7-1.658 9.91-2.692 4.308-1.388 4.64-5.283 5.05-9.362 1.683-1.442 3.306-2.548 4.995-3.998z"/><path fill="#FAF7E8" d="M141.076 143.589c-1.254-1.087-2.452-1.772-3.576-2.562-.827-.58-1.557-1.297-2.33-1.953.741-.694 1.372-1.772 2.24-2.018 5.648-1.605 6.227-2.702 4.293-8.15-.324-.912-.27-2.492.303-3.04.577-.553 2.266-.63 3.037-.18 4.313 2.522 7.124 1.758 8.711-3.194.31-.968 1.723-2.264 2.54-2.205.903.064 2.304 1.42 2.454 2.376.763 4.864 2.904 6.32 7.488 3.94.834-.433 2.562.059 3.401.724.518.41.472 2.106.097 2.972-2.13 4.91-1.645 6.251 3.162 8.699.825.42 1.567 1.444 1.815 2.336.1.36-1.142 1.381-1.927 1.652-6.383 2.2-7.071 4.054-3.204 9.619l-2.766 3.147c-5.731-5.302-9.672-2.95-12.684 4.002-1.273-1.894-2.153-2.995-2.806-4.217-1.66-3.105-3.737-4.495-7.274-2.605-.904.483-2.33-.013-3.516-.06.196-1.195.494-2.385.566-3.588.106-1.774.05-3.558-.024-5.695m8.184-7.707c-.372 1.093-.926 2.16-1.082 3.283-.518 3.739 2.788 7.661 6.492 7.854 4.299.223 7.652-2.584 7.23-6.826-.217-2.17-1.515-4.815-3.197-6.129-2.973-2.322-6.238-1.28-9.443 1.818z"/><path fill="#F1F4F9" d="M475.4 191.721c-4.692-4.543-5.852-9.652-3.371-15.24 2.04-4.597 5.885-7.186 10.954-7.383 5.541-.216 9.508 2.563 11.995 7.384 2.478 4.806 1.244 10.86-2.78 14.604-4.618 4.296-9.72 4.562-16.798.635z"/><path fill="#B6B0AF" d="M467.015 327.042c1.917.929 3.835 1.858 6.147 2.885-.523 3.486-1.442 6.874-2.39 10.614-.515 1.206-1 2.06-1.922 2.915-.578-1.48-.721-2.964-.907-4.834-1.79-7.604-1.8-7.171-9.663-5.88-5.672.93-11.344 1.89-17.05 2.553-1.054.123-2.266-1.104-3.361-2.07-.592-2.325-1.228-4.289-1.8-6.603 1.106-.998 2.154-2.21 3.193-2.202 7.69.058 15.383.253 23.061.668 1.595.086 3.13 1.274 4.692 1.954z"/><path fill="#235977" d="M404.045 345.642c4.084 5.66-.294 7.969-2.602 9.893-3.408-.294-5.897-.72-8.38-.68-5.517.086-14.94-11.476-12.73-16.531 1.101-2.517 4.126-5.055 6.784-5.81 3.304-.939 7.249-.574 10.695.206 3.614.818 5.8 3.441 5.277 7.716-.19 1.549.542 3.21.956 5.206z"/><path fill="#AFABA8" d="M437.825 333.587c1.14.604 2.35 1.83 3.405 1.708 5.706-.664 11.378-1.623 17.05-2.554 7.864-1.29 7.873-1.723 9.289 5.805-3.94-.188-7.588-1.282-11.149-1.05-5.85.383-11.643 2.308-17.46 2.306-5.322-.003-8.898 1.437-11.348 6.374-1.118.193-1.86.329-2.604.464a27.06 27.06 0 0 1-1.035-.772c-4.182-.512-7.812-.59-11.442-.67-.904.083-1.808.165-3.234-.2-2.192-2.961-4.25-6.772-.353-7.585 4.687-.978 9.983.097 14.849 1.097 4.445.913 7.887-.297 9.614-4.505 1.744-.138 3.081-.278 4.418-.418z"/><path fill="#274763" d="M424.891 346.919c.86-.414 1.603-.55 3.106-.594 9.492.32 18.223.546 26.696 1.026-2.956.627-5.631.915-6.313 4.408-.106.544-1.555.827-2.4.818-.59-1.104-1.172-2.4-1.736-2.393-5.33.071-10.659.364-16.066.596.443 4.675.58 8.15 4.589 9.482-2.637 1.22-5.044 2.166-7.497 3.132l1.283 6.602h6.445c0 .17.002.338.006.761.003.254.004.708.003.935-3.059-.074-6.117-.374-9.584-1.124 1.593-4.353.66-7.053-3.665-8.332-3.911-1.157-7.83-2.288-11.747-3.43 5.603-1.35 10.064-4.27 13.278-9.169.722-1.101 2.3-1.641 3.602-2.718z"/><path fill="#B6B0AF" d="M433 334.003c-1.32 4.21-4.762 5.42-9.207 4.507-4.866-1-10.162-2.075-14.85-1.097-3.896.813-1.838 4.624.021 7.496-1.066-.815-2.841-1.763-3.476-3.21-1.51-3.443-2.48-7.123-3.673-11.477.085-1.592.175-2.415.627-3.224 3.051 1.325 5.49 4.391 8.835 1.167.26-.25.962-.07 1.456-.046 5.363.27 11.444-2.57 15.477 3.667.31.48 1.898.132 3.138.315.714.73 1.183 1.317 1.652 1.902z"/><path fill="#F8B549" d="M402.08 326.985c-.09.822-.18 1.645-.346 2.876-2.153.421-4.23.434-6.387.082.434-.74.946-1.115 1.59-1.699.88-.284 1.627-.361 2.772-.48-.631-.953-1.045-1.577-1.586-2.914-.383-3.006-1.038-5.347-.777-7.58.239-2.042 1.213-5.501 2.306-5.684 5.26-.879 4.51-5.838 6.724-8.675.933-1.196 1.648-2.563 2.462-3.852a135.08 135.08 0 0 1-.015 4.464c-1.006 2.803-1.961 5.203-3.18 8.087-.446.768-.628 1.052-1.212 1.352-3.639-.19-5.032 1.503-4.533 4.515.53 3.202 1.439 6.341 2.182 9.508z"/><path fill="#CE727B" d="M407.699 358.808c4.228 1.14 8.148 2.27 12.06 3.428 4.325 1.279 5.257 3.98 3.254 8.262-.793.316-1.586.253-2.755.045-.375-1.993-.375-3.841-.375-6.647-2.173 1.237-3.35 1.907-4.705 2.84-.178.264-.168.253-.168.253-.778-.153-2.244-.384-2.237-.45.65-5.78-3.821-3.922-7.074-4.87-.579-1.118-.714-1.863-.805-2.807l.135-.597c.786.182 1.572.364 2.67.543z"/><path fill="#F1F4F9" d="M404.641 358.212c.388.053.298.45-.055.836-.818 1.902-1.35 3.402-1.737 4.939-.659 2.613-1.709 4.664-4.966 4.063-.61-1.993-1.221-3.986-1.83-6.36 2.735-1.43 5.468-2.481 8.588-3.478z"/><path fill="#A5A2A1" d="M412.882 345.48c3.28-.203 6.909-.124 10.831.25-3.298.206-6.889.118-10.83-.25z"/><path fill="#FAD863" d="M382.217 350.522c-.712-.536-1.421-1.418-2.127-2.678.711.525 1.42 1.429 2.127 2.678zM384.083 352.645c-.246.096-.534-.09-.913-.525.23-.085.55.079.913.525zM383.109 351.624c-.261.1-.551-.09-.914-.538.246-.09.566.078.914.538z"/><path fill="#F09B2E" d="M444.938 182.623c-8.276 6.85-16.587 13.393-24.952 19.865-1.286.996-2.825 1.666-4.595 2.548-.348-14.23-.348-28.522-.348-43.507 4.951 2.93 8.71 5.152 12.173 7.201l-.458 7.092-4.025-1.441c-3.07 4.363-3.55 9.89-.345 11.122 2.775 1.066 7.022 1.16 9.414-.295 3.718-2.262 2.762-7.35-1.975-13.146 7.056 1.44 10.872 6.117 15.11 10.56z"/><path fill="#274763" d="M438.388 370.974c.921-1.64 1.91-3.848 3.606-4.82 6.6-3.78 13.318-7.398 20.198-10.642 7.409-3.493 15.03-6.543 22.606-9.67 1.104-.455 2.475-.267 3.961-.108-7.872 7.59-17.911 11.213-27.805 15.25-5.541 2.26-10.627 5.618-16.027 8.259-1.88.92-4.088 1.172-6.539 1.73z"/><path fill="#A5A2A1" d="M454.95 347.099c-8.73-.228-17.461-.455-26.577-.831 1.689-5.03 5.265-6.469 10.588-6.466 5.816.002 11.61-1.923 17.46-2.305 3.56-.233 7.207.861 11.19 1.435.518 1.56.66 3.043 1.068 4.783-.011 5.972-4.502 2.08-7.604 3.312-2.619.014-4.372.043-6.125.072z"/><path fill="#235370" d="M454.693 347.35c2.01-.28 3.763-.31 5.95-.26 1.18.37 2.014.533 2.655.976 1.223.845 2.336 1.85 3.495 2.789-1.313.716-2.587 1.515-3.944 2.133-7.009 3.196-14.037 6.35-21.062 9.51-3.463 1.557-8.103 1.576-8.783 7.126-2.11.372-4.213.372-6.45.372l-1.284-6.602c2.453-.966 4.86-1.913 7.872-3.139 4.688-2.607 8.772-4.936 12.856-7.266.827-.403 2.276-.686 2.382-1.23.682-3.493 3.357-3.781 6.313-4.408z"/><path fill="#F7F7F6" d="M104.941 243.013c-4.432-.279-6.928-2.402-5.768-6.398.607-2.09 3.387-5.233 4.78-5.036 2.371.336 5.55 2.513 6.353 4.673 1.316 3.541-.904 6.24-5.365 6.761z"/><path fill="#F8D66F" d="M277.393 41.981c3.041-1.627 6.485-3.247 10.309-4.88-1.62 4.62-6.248 3.736-10.31 4.88z"/><path fill="#F7F7F6" d="M398.067 368.347c3.073.304 4.123-1.747 4.782-4.36.388-1.537.919-3.037 1.693-4.74.443.559.578 1.304.838 2.409.066.815.008 1.271-.105 2.281-.054.555.06 1.019.06 1.019-.401 1.754-.803 3.509-1.317 5.632-1.997-.403-3.882-1.173-5.951-2.24z"/><path fill="#CE727B" d="M414.995 367.005c.44.154.885.302 1.33.45l-.381.828c-.297-.264-.595-.528-.913-1.043-.02-.25-.031-.24-.036-.235zM405.459 364.88c-.123.076-.238-.388-.13-.6.383-.01.432.235.13.6z"/><path fill="#C0BABA" d="M402.442 326.998c-1.105-3.18-2.013-6.319-2.544-9.52-.499-3.013.894-4.707 5.018-4.472 17.82.353 34.753.638 51.683 1.017 10.132.226 8.878-1.906 10.567 8.996-.006.444-.013.888.084 1.652.023.773-.057 1.227-.186 2.026-1.612-.335-3.146-1.523-4.741-1.609-7.678-.415-15.371-.61-23.06-.668-1.04-.007-2.088 1.204-3.59 2.209-4.135.106-4.974 2.202-4.57 5.326-.995-.037-2.583.31-2.893-.169-4.033-6.238-10.114-3.398-15.477-3.667-.494-.024-1.196-.205-1.456.046-3.345 3.224-5.784.158-8.835-1.167z"/><path fill="#F8AE3E" d="M409.027 298.754c-1.003 1.594-1.718 2.96-2.651 4.157-2.214 2.837-1.464 7.796-6.724 8.675-1.093.183-2.067 3.642-2.306 5.684-.261 2.233.394 4.574.645 7.31-1.277.124-2.751.116-3.792-.56-11.401-7.41-22.737-14.922-34.082-22.42-.55-.364-1.013-.861-1.868-1.785-1.655-1.262-2.958-2.035-4.26-2.808-1.1-.314-2.198-.628-3.795-1.276-2.73-1.8-4.962-3.265-7.194-4.731 0 0-.496-.005-.746-.338-.251-.776-.253-1.218-.3-1.98-.682-.772-1.32-1.225-2.207-1.68l-.748-.001c-1.199-5.026-.643-5.818 4.413-5.985 2.781-.092 5.719.52 7.282-2.878.262-.57 1.707-.85 2.6-.838 14.56.19 29.118.492 43.678.663 3.386.04 7.047-2.675 10.039 1.51.283.397 3.932-1.481 5.934-2.475 3.49-1.733 5.433-1.22 5.03 3.558-3.533 1.874-6.328 3.777-4.462 8.363-1.228 3.217-2.762 6.374-4.486 9.835z"/><path fill="#FBB749" d="M338.648 286.959c.351.042.85.043 1.145.362.932.773 1.569 1.226 2.206 1.68l.007 1.659c-5.426.576-8.332-2.941-10.95-7.314 2.376.962 4.809 2.266 7.592 3.613zM343.04 291.352c2.192 1.114 4.424 2.579 6.81 4.342a49.06 49.06 0 0 1-6.81-4.342z"/><path fill="#FAB243" d="M354.043 297.342c1.248.438 2.551 1.211 3.906 2.32-1.25-.437-2.55-1.21-3.906-2.32z"/><path fill="#C14248" d="M467.496 322.854c-2.02-10.737-.765-8.605-10.897-8.831-16.93-.379-33.863-.664-51.28-1.033-.304-.328-.122-.612.29-1.012 21.288.04 42.346.195 64.074.354l.785-3.646c6.512 9.791 6.102 11.817-2.972 14.168z"/><path fill="#ECDC99" d="M149.505 135.58c2.96-2.796 6.225-3.838 9.198-1.516 1.682 1.314 2.98 3.959 3.197 6.129.422 4.242-2.931 7.049-7.23 6.826-3.704-.193-7.01-4.115-6.492-7.854.156-1.123.71-2.19 1.327-3.585m3.063.632c-.291.189-.49.447-1.05 1.131-.167.541-.334 1.082-.999 2.029.494 1.218.987 2.437 1.815 4.152.848.446 1.696.892 3.154 1.41.516-.269 1.032-.538 2.145-.993.455-.638.91-1.276 1.9-2.41.828-2.599.975-4.893-2.933-6.009-.81-.114-1.619-.228-2.932-.255-.21.256-.422.511-.668.733 0 0 .032.036-.432.212z"/><path fill="#F7F7F6" d="M431.348 332.1c-.649-3.269.19-5.365 4.262-5.121 1.031 1.957 1.667 3.921 2.259 6.247-1.38.501-2.718.641-4.462.78-.876-.588-1.345-1.174-2.059-1.905z"/><path fill="#253D5B" d="M445.98 352.577c-4.066 2.742-8.15 5.07-12.609 7.406-4.613-1.053-4.75-4.528-5.193-9.203 5.407-.232 10.735-.525 16.066-.596.564-.007 1.146 1.29 1.737 2.393z"/><path fill="#FAB243" d="M341.954 288.682c-.592-.135-1.23-.588-1.912-1.36.593.135 1.23.588 1.912 1.36z"/><path fill="#F7F7F6" d="M154.172 135.18c.81.114 1.619.228 2.782.89.918 2.35 1.48 4.154 2.043 5.957-.455.638-.91 1.276-1.961 1.99-1.118.332-1.638.589-2.159.845-.847-.446-1.695-.892-2.714-1.954-.496-1.725-.821-2.834-1.146-3.942.167-.54.334-1.082.958-1.892.747-.455.947-.712 1.057-1.038 0 0-.032-.036.21-.108.52-.25.749-.475.93-.748z"/><path fill="#FCEEB9" d="M159.265 141.779c-.83-1.555-1.393-3.358-2.089-5.491 3.332.35 3.185 2.644 2.089 5.49zM150.768 139.169c.574.905.899 2.014 1.227 3.49-.489-.85-.982-2.069-1.227-3.49zM155.183 144.898c.215-.292.735-.549 1.554-.788-.217.286-.733.555-1.554.788zM153.92 135.223c.07.23-.158.456-.66.722-.014-.167.197-.422.66-.722zM152.8 136.124c.122.238-.078.495-.598.773-.124-.238.075-.496.598-.773z"/></svg>