<svg xmlns="http://www.w3.org/2000/svg" xml:space="preserve" viewBox="0 0 2000 2000"><path fill="#FFF" d="M1 1530V1.06h2000c0 509.308 0 1018.676-.469 1528.492-77.8.448-155.133.407-232.464.55-4.702.008-6.193-1.076-6.177-5.998.175-54.998.11-109.998.111-164.997 0-6.85.213-7.085 6.983-7.092 15.833-.016 31.667.104 47.498-.101 3.042-.04 6.068-1.314 9.101-2.018-7.926.192-15.586.884-23.256 1.037-11.162.223-22.332.058-33.498.06-6.83 0-6.83 0-6.83-6.63v-252.995c0-7.361-.005-7.366-7.461-7.367-97.665 0-195.33-.013-292.995.028-6.327.002-12.644.362-18.446-3.502.592-18.814 1.254-37.166 2.384-55.52 16.3-.004 32.134.012 47.967-.016 6.221-.01 7.938-2.381 7.015-8.281-1.379-8.814-2.354-17.692-3.456-26.549-1.552-12.462-3.044-24.931-4.598-37.393-1.104-8.856-2.299-17.701-3.4-26.558-1.552-12.462-2.833-24.963-4.662-37.384-1.044-7.085-.806-7.825 6.242-7.825 80.833-.001 161.666-.028 242.499.076 4.272.005 6.033-.69 6.029-5.629-.14-178.333-.134-356.666-.019-534.998.003-4.468-1.253-5.546-5.614-5.543-141.166.118-282.332.103-423.963.102-2.294-.007-4.125-.01-5.957-.01-6.558.005-6.561.005-6.564 6.371-.013 35.79-.024 71.579-.408 107.478-2.89-.755-5.409-1.62-7.988-2.507-5.237 12.188-.075 25.77 12.107 30.857.254 2.138.504 4.277.562 6.755-1.789 2.089-3.384 3.84-5.511 6.172l3.197-.22c-.414 1.826-.752 3.604-1.224 5.346-1.794 6.63-4.354 12.971-2.88 20.294.626 3.113-1.29 6.948-2.666 10.194-1.385 3.272-3.533 6.22-5.79 10.065l10.475 3.065c.116 1.83.241 3.806.289 6.275-.115 16.905-.151 33.315-.476 49.93-6.35 3.01-5.009 7.71-3.862 12.596-8.846 2.24-17.253 4.353-25.91 6.157-.71-.47-1.16-.699-1.637-.788-10.802-2.02-21.607-4.025-32.39-6.49-.583-15.394-1.263-30.33-1.775-45.272-.745-21.762-1.37-43.527-2.044-65.291-.333-10.733-5.197-19.003-13.682-25.345-7.347-5.49-15.965-6.359-24.636-6.421-23.64-.17-47.283-.047-70.924-.06-49.28-.027-98.559-.067-147.833-.576.006-73.573.02-146.671-.043-219.77-.002-2.766-.757-5.533-1.162-8.3l-1.188.243c1.628 11.233 2.064 105.693.819 109.716h-34.727c-.388-1.704-.615-2.323-.66-2.956-.541-7.506-.534-7.508-8.1-7.508-25.309 0-50.618 0-76.397-.004-11.409-.004-22.348-.005-33.287-.005-8.714 0-8.71 0-9.441 8.604-.025.293-.306.563-.644 1.153-1.267.081-2.723.175-4.647.267-91.151.002-181.835.005-272.517-.454 0-9.57 0-9.57-9.28-9.57-21.908.003-43.817.006-66.194.007-9.486 0-18.503.003-27.989 0-37.163-.004-73.856-.032-110.55.014-8.985.011-10.205-2.256-10.458 10.006-10.283-.005-20.098-.007-29.913-.007-1.164 0-2.338-.081-3.491.036-4.692.474-8.187 3.443-7.984 6.706.212 3.392 3.842 6.18 8.42 6.207 10.813.067 21.626.027 32.439.48-1.318 17.431-2.668 34.41-3.942 51.395-1.065 14.19-2.032 28.386-3.055 42.579-1.319 18.314-2.659 36.627-3.974 54.942-1.35 18.813-2.697 37.626-4.014 56.441-1.028 14.691-1.995 29.387-3.01 44.079-.98 14.194-1.972 28.388-2.988 42.58-1.321 18.482-2.759 36.956-3.983 55.444-1.126 17.016-2.024 34.047-3.048 51.07-.308 5.122-.68 10.24-1.06 15.358-1.3 17.482-2.64 34.962-3.917 52.447-.747 10.234-1.391 20.476-2.105 30.713-.956 13.696-1.878 27.395-2.941 41.082-.28 3.593 1.17 4.53 4.578 4.485 12.155-.164 24.313-.063 36.473.407.003 36.705.06 72.942-.074 109.178-.015 3.975.845 5.507 5.175 5.44 16.286-.256 32.578-.118 49.122-.11.426.014.596.01 1.234.01 18.151.009 35.835.012 53.614.427.38 2.532.426 4.716.988 6.759 2.432 8.841 6.695 16.354 15.844 20.574 6.171 4.982 12.939 4.548 20.018 4.542 170.397-.166 340.795-.132 511.192-.097 1.96 0 3.919.488 5.873 1.223-.005 10.127-.181 19.784.082 29.429.099 3.617-1.389 5.268-4.59 5.792-1.788.292-3.631.343-5.45.343-45.764.018-91.528.077-137.292-.084-4.548-.017-5.872 1.157-5.855 5.8.172 45.43.1 90.862-.254 136.45-7.91 3.34-16.188 5.448-22.885 9.922-16.692 11.152-23.782 27.752-23.757 47.607.028 22.103-.004 44.206-.478 66.312-33.617.004-66.767.008-99.916.005-5.883-.001-6.327-.544-6.626-6.604-.285-5.79-.636-11.581-1.174-17.352-1.197-12.833-2.6-25.647-3.78-38.482-.834-9.062-1.359-18.153-2.167-27.218-1.22-13.665-2.594-27.315-3.85-40.976-.771-8.403-1.393-16.819-2.174-25.22-1.238-13.33-2.848-26.634-3.676-39.987-.294-4.739-1.485-6.253-6.314-6.246-91.951.13-183.903.103-276.32.102-4.714-.006-8.965-.006-13.752-.006.462 5.553.862 10.148 1.223 14.745.74 9.41 1.346 18.833 2.215 28.231 1.156 12.512 3.462 24.994 3.602 37.508.456 40.481.147 80.971-.33 121.475-57.833.022-115.203-.004-172.573.074-6.834.01-13.593.103-20.048-3.339-1.385-1.097-2.626-1.897-3.973-2.919-.301-.5-.563-.685-.931-1.1-.682-.772-1.322-1.223-1.963-2.038-.642-1.938-1.283-3.512-1.924-5.086l-1.45.85c1.129 1.53 2.257 3.06 3.426 4.911.68.774 1.318 1.228 2.06 1.903.304.498.568.682.933 1.132 1.343 1.123 2.649 1.888 4.014 3.015 3.546 1.455 7.031 3.49 10.523 3.502 60.788.21 121.576.173 182.373.655.008 59.454.006 118.443-.46 177.447-119.138.02-237.814.025-356.489.03M160.702 227.997c1.43-1.001 2.86-2.002 4.862-3.073l.977-.912c-.21-.182-.422-.363-.634-.545-.3.514-.6 1.027-1.607 1.538-1.432 1-2.863 1.999-4.711 3.243l.051 1.055c.118-.436.236-.872 1.062-1.306m1671.318 2.487.361.834.378-.262c-.253-.352-.506-.703-.828-1.74l-3.72-4.31-1.308 1.5c1.699 1.163 3.398 2.327 5.117 3.978M172.927 222c260.024 0 520.049-.001 780.522.536l4.98 1.143c.11-.392.218-.785.326-1.177-1.92-.494-3.84-.988-6.687-1.496-258.313-.003-516.626-.008-774.94.033-1.708 0-3.417.628-5.722.958l-1.587.252.204.633c.658-.294 1.317-.59 2.904-.882M1836 1100.5c0 70.985.044 141.97-.055 212.956-.012 8.98-.774 17.96-1.189 26.94.98-3.498 2.167-7.287 2.168-11.076.085-361.258.08-722.517.08-1083.775v-4.317l-1.004.033V1100.5m-1681-691V240.264l-.655.003V1333.32c.432-.73.588-.87.588-1.01.029-307.27.048-614.54.066-922.809m811.806-177.948 1.27 1.178 1.108-1.06-5.546-6.036-1.166 1.075c1.318 1.434 2.635 2.87 4.334 4.843m863.18 1111.99-2.776 3.596 1.244.886 4.441-5.044-.832-.802c-.534.303-1.068.605-2.078 1.364M156.924 233.31c-.094-.133-.164-.313-.293-.383-.091-.05-.354.012-.386.088-.419 1.004-.81 2.02-1.207 3.032l1.007.388c.311-.842.623-1.685.88-3.125m1679.005 2.232-1.258-.969.292 2.17c.334-.207.669-.414.966-1.201m-10.409-11.138s.076.12 0 0z"/><path fill="#FFF" d="M2001 1532v468.968H1c0-155.999 0-312.03.467-468.514 119.163-.467 237.859-.48 357.021-.484 13.809.004 27.152 0 40.964.008 124.502.004 248.534-.003 373.032-.003 36.81.002 73.155-.002 109.834.004.783.013 1.23.015 2.147.019 48.496-.003 96.523-.008 145.017-.01 72.791.004 145.116.006 217.575.398 1.662 11.196 3.189 22.002 4.242 32.93-2.565.122-4.657.122-7.24.122 1.111 7.94 2.17 15.51 3.314 23.675 6.776 0 13.178 0 19.562.46.408 13.122.834 25.784.925 38.59-.812.219-1.29.294-1.889-.017-1.53-3.107-2.536-6.184-4.507-8.405-1.08-1.218-3.859-1.461-5.727-1.18-.721.107-1.042 2.882-2.026 4.44-9.436-.333-18.389-.794-27.347-.97-21.123-.414-42.247-.794-63.372-1.004-41.123-.407-82.247-.901-123.372-.95-29.623-.036-59.247.646-88.871.907-43.624.386-87.249.627-130.871 1.043-17.46.167-34.916.63-52.373.97-16.79.327-33.582.642-50.372 1.012-13.125.288-26.25.611-39.371.995-21.583.632-43.164 1.29-64.744 2.005a9255.74 9255.74 0 0 0-55.244 1.997 5928.364 5928.364 0 0 0-46.245 2.003c-12.75.599-25.499 1.27-38.243 1.991-16.875.956-33.748 1.938-50.616 3.011-14.377.915-28.755 1.841-43.113 3.001-18.963 1.532-37.945 2.945-56.847 5.057-20.194 2.256-40.369 4.863-60.423 8.113-10.23 1.659-20.263 4.785-30.193 7.868-2.633.818-4.554 3.93-6.801 5.99 1.947 1.843 3.586 4.544 5.897 5.374 7.92 2.847 15.927 5.925 24.17 7.304a1382.528 1382.528 0 0 0 63.788 9.138c18.388 2.202 36.88 3.561 55.343 5.094a3401.392 3401.392 0 0 0 53.485 4.011c17.029 1.144 34.072 2.077 51.114 3.017 13.411.74 26.827 1.398 40.245 2.001 16.079.723 32.161 1.378 48.245 2.007 17.913.701 35.826 1.399 53.743 1.994 21.913.728 43.828 1.4 65.745 1.997 15.621.425 31.247.685 46.871 1.02 15.458.332 30.914.712 46.373.987 21.29.378 42.582.999 63.872.957 107.29-.213 214.58-.565 321.87-.975 21.457-.082 42.915-.595 64.371-.977 15.125-.27 30.248-.66 45.372-.985 15.958-.342 31.916-.628 47.872-1.02 10.126-.248 20.249-.65 30.373-.975 20.914-.673 41.83-1.32 62.743-2.02 7.96-.265 15.915-.652 23.873-.973 16.748-.676 33.495-1.377 50.245-2.004 10.622-.398 21.25-.635 31.871-1.035 6.794-.256 13.588-.583 20.37-1.042 18.667-1.265 37.326-2.616 55.989-3.935 9.747-.69 19.501-1.285 29.238-2.097 14.67-1.222 29.33-2.549 43.986-3.925 7.079-.664 14.155-1.407 21.2-2.354 13.263-1.782 26.53-3.566 39.744-5.67 13.06-2.081 26.2-4.05 38.318-9.812 6.381-3.034 6.603-5.584 1.08-9.88a7.877 7.877 0 0 0-2.61-1.34c-7.789-2.216-15.481-5.024-23.42-6.402-16.763-2.91-33.638-5.204-50.504-7.472-9.994-1.343-20.055-2.187-30.092-3.2-12.994-1.311-25.982-2.711-38.995-3.803-10.729-.901-21.496-1.34-32.238-2.107-17.666-1.26-35.318-2.74-52.992-3.897-13.234-.866-26.492-1.38-39.74-2.03-13.914-.683-27.827-1.383-41.744-1.995-16.246-.715-32.494-1.403-48.745-1.995-20.079-.73-40.16-1.431-60.243-1.993-16.454-.46-32.914-.697-49.433-1.472-.623-11.771-1.183-23.103-1.301-34.553 5.185-.117 9.928-.117 14.936-.117l1.71-20.743c-2.286-.373-4.07-.665-5.78-1.431.597-22.915 1.074-45.356 1.653-67.794 1.255-48.701 2.539-97.402 3.86-146.102.605-22.268 1.327-44.534 2.464-66.803 15.504-.013 30.54-.023 45.836.213 4.728 11.879 9.07 23.561 13.689 35.133 26.344 65.982 56.43 130.227 89.507 193.166-2.09.847-3.87 1.459-6.104 2.228 4.984 5.92 9.341 11.326 14.01 16.448.905.991 3.158 1.468 4.562 1.158 4.984-1.1 9.87-2.645 14.845-3.677 6.5 12.074 12.95 23.804 19.186 35.806-1.228.817-2.242 1.361-3.513 1.682-1.284-1.3-2.222-2.478-3.35-3.43-2.629-2.219-6.055-4.64-8.622-1.226-2.569 3.417 1.589 4.9 3.832 6.622.116.089.145.292.288.603-1.222.386-2.807.417-3.546 1.223-1.378 1.504-2.265 3.458-3.357 5.225 1.762.68 3.485 1.738 5.299 1.928 1.534.16 3.173-.683 4.588-.694-7.25 14.883-17.743 26.109-31.953 33.845-4.24 2.309-4.743 4.971-2.014 8.934 2.685 3.899 7.992 5.954 13.38 4.043 6.064-2.152 12.185-4.623 17.603-8.034 20.121-12.67 40.331-25.097 62.361-34.302 5.275-2.204 5.755-5.3 2.148-9.751-5.031-6.208-10.346-12.196-15.147-18.574-2.828-3.756-5.645-5.29-10.057-2.873-3.443-6.44-6.702-12.573-9.667-19.003 2.607-.433 4.918-.689 7.229-.689 153.494-.019 306.988-.017 460.482-.017z"/><path fill="#F4F4F4" d="M2001 1531.667c-153.494.333-306.988.331-460.482.35-2.311 0-4.622.256-7.494.475-2.514-3.764-4.468-7.611-6.083-11.662 5.642-1.846 10.944-3.487 16.493-5.205-2.57-6.845-4.812-13.235-7.453-19.455-.457-1.076-2.608-1.433-3.979-2.594-.002-45.394-.08-90.316.104-135.236.022-5.143-1.615-6.565-6.58-6.432-11.804.316-23.623.037-35.435.148-2.946.027-5.888.622-8.962.642-.164-.766-.198-1.217.244-1.68 15.43-.016 30.386-.151 45.337.06 4.046.058 5.433-.973 5.385-5.228-.222-19.936-.111-39.877.35-59.827 4.132-.015 7.824-.315 11.45.051 4.677.473 6.234-.957 6.217-5.923-.181-52.104-.182-104.209 0-156.313.018-4.983-1.587-5.967-6.224-5.94-33.625.189-67.252.099-100.968-.364.023-12.489.135-24.516.247-36.543 5.732 3.4 12.05 3.04 18.376 3.038 97.665-.041 195.33-.029 292.995-.028 7.456 0 7.461.006 7.461 7.367v252.996c0 6.628 0 6.628 6.83 6.628 11.166 0 22.336.164 33.498-.059 7.67-.153 15.33-.845 23.256-1.037-3.033.704-6.06 1.978-9.101 2.018-15.83.205-31.665.085-47.498.1-6.77.008-6.983.243-6.983 7.093-.002 55 .064 109.999-.111 164.997-.016 4.922 1.475 6.006 6.177 5.998 77.331-.143 154.664-.102 232.464-.102.469.444.469.889.469 1.667z"/><path fill="#F0F0F0" d="M358.022 1531.96 1.467 1532c-.467-.444-.467-.889-.467-1.667 118.675-.338 237.35-.343 356.507-.028.492.765.504 1.21.515 1.656z"/><path fill="#017CFF" d="M1480.897 1351.03c.034.45.068.902.26 2.035 6.895 21.33 13.278 42.103 20.46 62.596 9.267 26.442 19.173 52.66 28.488 79.15-20.636 6.61-40.956 13.045-61.276 19.48-33.389-62.705-63.475-126.95-89.819-192.932-4.62-11.572-8.96-23.254-13.7-35.517-1.754-4.866-3.132-9.141-4.742-13.327-12.79-33.265-21.157-67.542-23.886-103.14-1.28-16.695-2.742-33.375-4.21-51.142-6.596 35.535-11.746 70.179-12.349 105.368-.356 20.805-.737 41.61-1.106 62.414-.669 22.267-1.391 44.533-1.996 66.801-1.321 48.7-2.605 97.4-3.86 146.102-.579 22.438-1.056 44.88-2.08 67.865-20.103-.165-39.706-.877-59.309-1.589-1.526-10.806-3.053-21.612-4.668-33.205-.398-2.573-.706-4.358-.982-6.573-2.203-18.263-4.565-36.08-6.647-53.93-3.278-28.102-6.387-56.224-9.53-84.341-1.311-11.725-2.526-23.461-3.732-35.44-.018-.402-.089-.556-.098-1.162a2777.592 2777.592 0 0 0-2.43-32.257c-.87-10.752-1.795-21.5-2.615-32.713-.564-15.753-1.408-31.036-1.818-46.33-1.049-39.06 3.344-77.714 9.21-116.229 2.95-19.37 6.225-38.69 9.464-58.423 2.128-11.458 4.144-22.526 6.437-33.866.999-4.481 1.72-8.69 2.512-13.286 4.27-21.03 8.47-41.672 12.826-62.706 1.198-5.509 2.24-10.625 3.445-16.09 3.363-14.108 6.564-27.864 10.239-41.63 58.892-.004 117.31 0 175.815.467-.38 19.736-.693 39.017-1.358 58.285-.681 19.757-1.706 39.503-2.679 59.697-.115 3.479-.133 6.513-.15 9.548-.662 18.351-1.324 36.703-1.916 55.517-.042 12.49-.154 24.518-.273 37.468.073 38.684 2.153 76.328 8.54 113.575 3.132 18.274 7.71 36.3 11.618 54.841 5.96 21.808 11.938 43.213 17.915 64.619z"/><path fill="#95BEFF" d="M1246.805 1017.827c-.721 4.208-1.443 8.417-2.747 13.048-7.34 12.426-17.332 17.541-31.35 17.453-61.944-.39-123.891-.177-185.837-.135-2.292.001-4.583.489-7.122.726-.247-.024-.742.017-1.128-.133a2161.485 2161.485 0 0 0-38.758-.585c-2.623-.015-5.248.474-8.118.713a6.467 6.467 0 0 0-.74.028c-1.96-.26-3.918-.748-5.878-.748-170.397-.035-340.795-.069-511.192.097-7.08.006-13.847.44-20.112-4.807-9.123-8.034-14.091-17.146-14.188-29.067-.13-15.96-1.085-31.915-1.621-47.874-1.028-30.595-2.01-61.192-3.012-91.788-.997-30.433-2.013-60.865-2.987-91.3-1.042-32.596-2.023-65.196-3.07-97.793-1.32-41.074-2.669-82.147-4.027-123.22-.606-18.29-1.327-36.577-1.867-54.869-.176-5.983-.416-12.029.216-17.956.873-8.19 6.275-14.06 11.718-19.707.014.04-.065.066.17.08.681-.348 1.128-.71 1.633-1.535.119-.77.179-1.075.522-1.312 3.561-.714 6.808-1.958 10.123-2.182 6.508-.44 13.054-.311 19.997-.3 6.031-.097 11.649-.47 17.268-.496 19.085-.086 38.17-.05 57.585.17 5.625.089 10.922-.193 16.217-.169 40.596.189 81.192.515 121.789.644 35.455.112 70.912.038 106.368-.002 3.473-.004 6.946-.503 10.42-.504 11.955-.003 23.91.112 36.318.317 9.72-.072 18.985-.353 28.253-.455 4.443-.049 8.89.24 13.791.483 24.54.152 48.621.213 72.703.222 3.641.002 7.282-.24 11.375-.25 10.798-.107 21.145-.336 31.738-.548.244.015.734-.014.734-.014 49.28.034 98.558.074 147.838.1 23.641.014 47.284-.108 70.924.06 8.67.063 17.289.932 24.636 6.422 8.485 6.342 13.35 14.612 13.682 25.345.673 21.764 1.299 43.53 2.044 65.29.512 14.943 1.192 29.879 1.367 45.268-1.245.37-2.07.338-2.876.2-11.253-1.92-22.503-3.854-33.707-6.248-.293-13.602-.7-26.74-.953-39.88-.217-11.265-4.504-15.547-15.877-15.547h-717.41c-2.999 0-6-.055-8.998.02-6.951.175-11.573 4.718-11.533 11.71.032 5.642.583 11.278.78 16.922.7 20.11 1.351 40.222 2.013 60.334 1.001 30.426 2 60.853 2.99 91.28.677 20.778 1.344 41.557 2.007 62.336.678 21.28 1.327 42.561 2.026 63.84.629 19.118 1.355 38.232 1.953 57.35.748 23.943 1.508 47.886 2.067 71.833.28 11.96 4.297 16.157 16.299 16.157 239.136 0 478.273 0 717.409-.002 2.833 0 5.68.153 8.495-.083 7.373-.618 11.844-5.43 11.642-12.876-.333-12.289-.943-24.57-1.028-36.862 1.728.05 3.074-.043 4.362.187 10.657 1.901 21.304 3.862 31.931 6.27.334 15.05.568 29.64 1.1 44.219.244 6.718 1.07 13.416 1.633 20.123M686.5 480.029H435.07c-1.5 0-3.007-.081-4.498.03-13.052.984-19.21 11.843-13.273 23.513 3.495 6.87 9.749 8.44 16.792 8.439 253.43-.01 506.861-.009 760.292-.009 1 0 2 .024 2.999-.011 9.523-.337 16.608-10.218 13.923-19.407-2.645-9.052-7.89-12.551-18.944-12.551-168.287-.005-336.574-.004-505.861-.004z"/><path fill="#F5F5F5" d="M1019.007 1048.936s.495-.041.746.457c.253 10.316.206 20.134.277 29.95.034 4.616 2.093 6.268 6.638 5.544 1.137-.18 2.242-.56 3.355-.416.321 13.043.927 25.654.934 38.264.07 131.88.063 263.76-.04 395.64-.004 4.537-1.24 9.073-1.902 13.61-48.027.005-96.054.01-144.57-.285-.808-.767-1.13-1.233-1.45-2.169.002-78.416.027-156.365-.04-234.313-.006-6.953-.614-13.905-.941-20.857-.95-20.215-19.324-40.84-38.85-45.276-8.13-1.847-16.766-1.464-25.171-2.095.002-45.431.074-90.863-.098-136.293-.017-4.643 1.307-5.817 5.855-5.8 45.764.161 91.528.102 137.293.084 1.818 0 3.66-.05 5.449-.343 3.201-.524 4.689-2.175 4.59-5.792-.263-9.645-.087-19.302-.082-29.429.005-.475.498-.52.75-.027.254 10.482.383 20.474.19 30.46-.07 3.672.627 5.348 4.876 5.248 12.313-.29 24.64-.208 36.958-.04 3.841.051 5.361-1.169 5.286-5.155-.196-10.319-.058-20.644-.053-30.967z"/><path fill="#1B2E35" d="M1449.113 897.018c-58.418-.005-116.836-.009-175.88-.381-2.827-18.294-5.104-36.21-7.198-54.15-1.42-12.161-2.582-24.354-3.778-36.99-1.016-17.88-2.17-35.3-3.153-52.728-.162-2.859-.609-4.914-4.083-5.165-2.04-1.668-3.993-3.016-6.174-4.634-15.692-10.287-31.156-20.304-46.83-30.575-3.762-2.647-7.315-5.04-11.935-8.152 11.736-17.268 23.261-34.225 35.048-51.402 7.951-8.741 15.64-17.263 23.64-25.863 6.34-4.333 12.367-8.588 18.395-12.843 8.407-2.112 16.814-4.225 25.89-6.212 3.796 4.01 6.459 8.419 10.136 11.685 11.442 10.164 23.142 20.05 34.977 29.758 17.208 14.117 37.077 16.01 58.048 11.766 12.398-2.509 21.086-11.601 31.062-18.297 4.768-3.2 9.17-7.393 9.061-14.133-.01-.64.752-1.345 1.254-1.935 5.13-6.026 10.28-12.034 15.829-17.973 8.25.856 14.615 4.638 19.899 10.202 22.665 23.866 33.811 54.003 46.039 83.95-3.069 1.591-5.69 2.95-8.651 4.367-.627.222-.91.396-1.206.545-15.96 8.065-31.92 16.128-48.21 24.215-5.476 2.502-10.625 4.981-15.96 7.55 0 6.732 0 13.527-.09 20.787.079 14.888.247 29.312.329 44.151.102 2.088.291 3.761.385 5.895.502 14.901 1.14 29.34 1.686 43.783.539 14.258.984 28.52 1.47 42.779z"/><path fill="#F0F0F0" d="M772.018 1531.969c-124.032.006-248.064.013-372.512-.38-.226-2.007.246-3.64.106-5.219-.789-8.885-1.802-17.751-2.59-26.637-.819-9.232-1.372-18.487-2.214-27.717-1.186-13-2.58-25.982-3.79-38.981-.8-8.566-1.366-17.154-2.158-25.721-1.232-13.33-2.602-26.648-3.848-39.977-.785-8.401-1.403-16.818-2.177-25.22-1.244-13.496-2.611-26.98-3.815-40.479-.809-9.065-1.299-18.16-2.16-27.22-1.172-12.337-2.692-24.64-3.822-36.98-1.177-12.85-1.94-25.74-3.117-38.59-1.523-16.622-3.277-33.222-4.931-49.832 91.951-.005 183.903.022 275.854-.108 4.829-.007 6.02 1.507 6.314 6.246.828 13.353 2.438 26.657 3.676 39.987.78 8.401 1.403 16.817 2.175 25.22 1.255 13.66 2.63 27.311 3.849 40.976.808 9.065 1.333 18.156 2.166 27.218 1.181 12.835 2.584 25.649 3.78 38.482.539 5.77.89 11.562 1.175 17.352.299 6.06.743 6.603 6.626 6.604 33.15.003 66.299 0 99.917.253.467.427.465.6-.004.768-35.36-.004-70.252-.004-105.672-.004L681.052 1530c30.427 0 60.194 0 90.203.165.415.71.589 1.257.763 1.804M622.989 1353.7c-1.328-12.991-2.786-25.97-3.948-38.976-1.179-13.186-1.944-26.41-3.108-39.597-1.888-21.412-3.91-42.812-5.97-64.208-.628-6.528-1.567-13.025-2.367-19.565h-196.15c.2 3.3.332 6.25.564 9.191.688 8.745 1.334 17.494 2.148 26.226 1.212 13.001 2.607 25.986 3.825 38.986.818 8.733 1.392 17.488 2.205 26.221 1.21 13.002 2.583 25.988 3.795 38.99.798 8.567 1.356 17.157 2.161 25.724 1.221 13 2.663 25.98 3.826 38.986 1.15 12.856 1.936 25.744 3.123 38.596 1.506 16.294 3.554 32.545 4.718 48.86.346 4.846 1.581 5.975 6.27 5.963 61.644-.155 123.288-.103 184.931-.104 1 0 2.272.38 2.94-.093 1.2-.85 2.944-2.263 2.884-3.354-.43-7.758-1.241-15.496-1.965-23.237-1.278-13.66-2.595-27.318-3.866-40.98-.75-8.072-1.436-16.15-2.164-24.225-1.276-14.16-2.562-28.321-3.852-43.404z"/><path fill="#F5F5F5" d="M1446.053 809.995c-.19-1.673-.38-3.346-.29-5.549 9.934 1.855 19.59 4.24 29.243 7.058 1.008 9.456 1.896 18.495 3.177 27.478.166 1.162 2.284 2.785 3.63 2.924 14.62 1.511 29.262 2.83 43.91 4.072 9.556.81 19.135 1.355 28.696 2.117 15.81 1.26 31.615 2.602 47.423 3.905 8.567.706 17.135 1.398 25.702 2.101 15.807 1.298 31.615 2.6 47.87 3.9 8.52.006 8.286-.004 8.646-8.164.444-10.083 1.196-20.158 2.053-30.215 1.179-13.83 2.68-27.631 3.852-41.46.853-10.059 1.326-20.149 2.095-30.214 1.26-16.487 2.633-32.966 3.94-49.45.392-4.95.665-9.908 1.088-14.855 1.28-14.986 2.648-29.965 3.898-44.954.784-9.398 1.373-18.812 2.124-28.213 1.265-15.82 2.603-31.635 3.883-47.454.427-5.28.713-10.571 1.168-15.848 1.25-14.489 2.615-28.967 3.818-43.46.808-9.729 1.361-19.479 2.132-29.211a7164.784 7164.784 0 0 1 3.91-47.45c.451-5.263 1.3-10.493 1.684-15.758.598-8.2.956-16.417 1.451-25.265-3.56 0-6.343 0-9.413-.298-10.004-1.11-19.72-1.951-29.44-2.724-9.24-.734-18.487-1.361-27.725-2.099-15.992-1.277-31.978-2.613-47.968-3.904-5.116-.413-10.242-.704-15.355-1.148-14.494-1.26-28.978-2.63-43.475-3.835-9.732-.81-19.489-1.328-29.222-2.127-14.995-1.23-29.974-2.666-44.972-3.868-10.232-.82-20.491-1.287-30.724-2.097-15.495-1.226-30.98-2.582-46.464-3.95-5.923-.524-11.817-1.451-17.747-1.786-4.27-.242-8.727-.366-12.76.72-.997.27-.721 5.447-.943 8.374-1.336 17.653-2.647 35.307-4.307 53.159-6.971 1.695-13.55 3.509-20.25 4.562-3.596.566-7.823.76-10.948-.669-1.936-.884-2.336-5.128-3.932-9.132-4.677 3.983-9.384 7.993-14.452 11.74-.593-2.205-1.026-4.148-1.03-6.092-.048-28.613-.039-57.227-.044-85.841 141.167-.005 282.333.01 423.5-.108 4.36-.003 5.616 1.075 5.613 5.543-.115 178.332-.12 356.665.019 534.998.004 4.94-1.757 5.634-6.029 5.629-80.833-.104-161.666-.077-242.5-.076-7.047 0-7.285.74-6.241 7.825 1.829 12.42 3.11 24.922 4.661 37.384 1.102 8.857 2.297 17.702 3.401 26.558 1.554 12.462 3.046 24.931 4.598 37.393 1.102 8.857 2.077 17.735 3.456 26.549.923 5.9-.794 8.27-7.015 8.281-15.833.028-31.666.012-47.967.016-.45-3.032-.433-6.066.133-9.55 13.21-.453 25.873-.633 38.526-.362 4.171.09 5.32-1.442 4.876-5.194-.466-3.942-.7-7.913-1.201-11.85-1.564-12.286-3.288-24.551-4.798-36.843-1.793-14.596-3.3-29.228-5.167-43.813-1.783-13.923-4.06-27.782-5.779-41.712-2.528-20.496-4.768-41.028-7.087-61.55-.346-3.056-1.822-4.3-4.94-4.18-4.658.18-9.327.044-13.991.042z"/><path fill="#EEEEEF" d="M939.066 464.501c-3.642.13-7.283.372-10.924.37-24.082-.009-48.164-.07-72.687-.567-.233-1.582.213-2.727.145-3.84-.473-7.764-1.2-15.514-1.563-23.282-.48-10.283-.9-20.577-.941-30.868-.017-4.25-1.567-5.448-5.605-5.383-12.164.194-24.332.073-36.967.073-95.15 0-189.832.002-284.984.001-23.271-.004-46.073.028-68.875-.04-3.373-.01-5.797.24-5.758 4.678.045 5.113-.6 10.23-.946 15.347l-2.944 43.553c-6.53.107-13.076-.022-19.584.418-3.315.224-6.562 1.468-10.123 1.752.04-2.286.545-4.062.659-5.863 1.051-16.694 2.043-33.393 3.033-50.091.182-3.077 1.552-7.545.092-8.885-1.799-1.652-5.986-.83-9.143-.85-10.162-.065-20.328.12-30.486-.095-4.092-.087-5.44 1.254-5.573 5.428-.369 11.586-1.16 23.161-1.957 34.729-1.237 17.955-2.637 35.898-3.925 53.849-.45 6.28-.67 12.578-1.173 18.853-.872 10.876-1.987 21.732-2.8 32.612-.544 7.272-.59 14.582-1.126 21.856-1.216 16.496-2.692 32.973-3.879 49.47-.844 11.731-1.283 23.49-2.124 35.222-.314 4.374-1.255 8.703-2.307 12.961-.798-1.59-1.521-3.084-1.546-4.59-.122-7.264-.055-14.53-.055-21.795v-225.21c0-13.308 0-13.308 13.481-13.314 7.19-.003 8.233-1.332 8.58-8.795.406-8.745 1.27-17.47 2.405-26.203L418.15 366c6.851 0 6.851-.002 6.851-7.006 0-.33-.002-.662-.001-.994.001-.001.003-.003.472-.003 9.822.002 19.176.003 28.53.453.053 8.402-.757 7.532 7.294 7.541 22.569.026 45.138.008 68.176.008l279.995-.001c11.878.002 23.287.045 34.696-.011 8.889-.044 7.737 1.127 8.303-7.987 4.13-.002 7.796-.135 11.449.038 2.916.139 4.512-.733 4.082-3.903-.43-3.17 1.118-7.536-4.071-8.089-12.933-1.378-12.942-1.293-12.92 11.448 0 .166 0 .332-.468.5-14.16.006-27.852.01-41.541.008.003-.004.006-.02.005-.48-.001-4.147-.001-7.835.293-11.82 10.836-.432 21.378-.616 31.921-.688 9.774-.066 9.774-.014 9.79-10.006h75.929c7.565 0 7.558.002 8.099 7.508.045.633.272 1.252.66 2.956h34.727c1.245-4.023.81-98.483-.819-109.716l1.188-.243c.405 2.767 1.16 5.534 1.162 8.3.064 73.099.05 146.197.043 219.77-.005.475-.495.504-.745.014-.25-35.92-.25-71.35-.25-105.939h-35.704c.928 18.934 1.998 36.946 2.639 54.974.596 16.781.734 33.579 1.076 50.37.01.499.037.998.056 1.498z"/><path fill="#E7E7E7" d="M772.484 1531.975c-.64-.553-.814-1.1-1.23-2.279-.252-59.648-.26-118.664-.269-177.679.002-.172.004-.344.005-.774.005-22.36.037-44.464.009-66.567-.025-19.855 7.065-36.455 23.757-47.607 6.697-4.474 14.975-6.581 22.885-9.922 8.757.474 17.394.09 25.523 1.938 19.526 4.435 37.9 25.061 38.85 45.276.327 6.952.935 13.904.94 20.857.068 77.948.043 155.897-.202 234.477a64.594 64.594 0 0 0-.77 2.273c-36.343.005-72.687.01-109.498.007z"/><path fill="#F5F5F5" d="M308.011 901.002c-12.157 0-24.315-.102-36.47.062-3.408.046-4.857-.892-4.578-4.485 1.063-13.687 1.985-27.386 2.94-41.082.715-10.237 1.359-20.48 2.106-30.713 1.277-17.485 2.618-34.965 3.917-52.447.38-5.117.752-10.236 1.06-15.357 1.024-17.024 1.922-34.055 3.048-51.071 1.224-18.488 2.662-36.962 3.983-55.444 1.016-14.192 2.008-28.386 2.988-42.58 1.015-14.692 1.982-29.388 3.01-44.079 1.317-18.815 2.664-37.628 4.014-56.44 1.315-18.316 2.655-36.629 3.974-54.943 1.023-14.193 1.99-28.39 3.055-42.58 1.274-16.984 2.624-33.963 3.938-51.402-.004-.458-.003-.477.466-.465 15.16.015 29.85.019 44.54.466v7.56c-.002-.002 0 0-.468 0-12.461-.001-24.455.123-36.444-.075-3.767-.063-5.181.797-5.179 4.944.116 176.713.112 353.426.115 530.14-.008 0-.015-.009-.015-.009z"/><path fill="#1B2E35" d="m1311.42 427.21 14.091-12.002c1.596 4.004 1.996 8.248 3.932 9.132 3.125 1.428 7.352 1.235 10.948.67 6.7-1.054 13.279-2.868 20.684-4.448 5.545.1 10.333.07 15.078.506 15.46 1.421 22.295 8.728 22.16 23.416 12.615 2.164 18.861 5.514 23.161 12.68l-14.241-5.243c4.194 6.961 9.43 13.888 12.762 21.634 3.988 9.274 3.305 18.628-3.3 27.298-6.407 8.411-11.98 17.455-17.96 26.194-4.931 7.207-9.921 14.374-15.27 21.668-12.674 3.955-24.986 3.559-37.142-.244-7.324-2.29-13.284-6.694-17.481-13.328-1.557-2.462-1.677-4.403-.408-7.255 1.923-4.322 3.313-9.047 3.939-13.734.61-4.57-.729-9.148-5.304-11.486-4.376-2.236-8.367-.839-11.821 2.419-.416.392-1.026.58-2.79 1.537l-10.993-23.01c-.25-2.14-.5-4.278-.754-6.416-12.182-5.086-17.344-18.669-12.107-30.857 2.58.886 5.098 1.752 8.354 2.524 1.68-.38 2.644-.61 3.56-.966 7.443-2.884 8.906-5.237 9.128-13.086.072-2.549 1.153-5.069 1.773-7.602m92.773 24.282.702.056c-.108-.114-.217-.229-.702-.056z"/><path fill="#E7E7E7" d="M364.525 1149.01c2.12 16.616 3.873 33.216 5.396 49.838 1.177 12.85 1.94 25.74 3.117 38.59 1.13 12.34 2.65 24.643 3.823 36.98.86 9.06 1.35 18.155 2.159 27.22 1.204 13.5 2.571 26.983 3.815 40.479.774 8.402 1.392 16.819 2.177 25.22 1.246 13.329 2.616 26.646 3.848 39.977.792 8.567 1.359 17.155 2.157 25.721 1.212 12.999 2.605 25.98 3.79 38.981.843 9.23 1.396 18.485 2.215 27.717.788 8.886 1.801 17.752 2.59 26.637.14 1.579-.332 3.212-.576 5.208-13.396.393-26.739.396-40.548.392-.477-.454-.489-.9-.517-1.68-.016-59.324-.014-118.313-.009-178.045a32.256 32.256 0 0 0-.018-1.3c.015-40.486.324-80.976-.132-121.457-.14-12.514-2.446-24.996-3.602-37.508-.869-9.398-1.475-18.82-2.215-28.231-.361-4.597-.76-9.192-1.223-14.745 4.787 0 9.038 0 13.753.006z"/><path fill="#017CFF" d="M1453.016 608.72c-5.144 6.013-10.294 12.021-15.423 18.047-.502.59-1.264 1.294-1.254 1.935.108 6.74-4.293 10.933-9.06 14.133-9.977 6.696-18.665 15.788-31.063 18.297-20.971 4.243-40.84 2.351-58.048-11.766-11.835-9.708-23.535-19.594-34.977-29.758-3.677-3.266-6.34-7.674-9.698-11.812-1.815-5.013-3.155-9.711 3.588-12.72 4.753-1.072 8.823-1.94 13.348-2.78 10.482-1.135 20.509-2.299 30.982-3.403 14.534-.7 28.622-1.46 43.161-2.139 2.44.093 4.431.074 6.42.123 17.727.433 35.486.783 52.656 5.943 11.938 3.587 12.192 4.263 9.368 15.9z"/><path fill="#EEEEEF" d="M363.003 1015.984c-.17.005-.34.01-.76-.469-.247-6.145-.538-11.827-.157-17.463.34-4.998-1.685-6.28-6.362-6.138-9.65.294-19.316.094-28.975.086-6.732-.004-6.747-.012-6.748-6.566-.005-28.145 0-56.29.468-84.434 2.3 0 4.135.088 5.96-.018 4.252-.247 9.3.68 12.475-1.326 2.192-1.385 1.79-6.874 2.55-10.529.168-.809.446-1.609.504-2.425 1.36-18.964 2.67-37.932 4.046-56.895.944-13.021 2.088-26.03 2.94-39.056 1.437-21.956 2.683-43.923 4.131-65.878.088-1.328 1.254-2.586 1.92-3.407.004 24.698.004 48.927.005 73.156 0 9.073.115 18.148-.042 27.218-.097 5.623-.87 11.24-.86 16.859.012 6.12.84 12.238.858 18.358.094 31.81.077 63.62-.005 95.43-.009 3.547.596 5.679 4.848 5.626 4.448-.056 8.909.883 13.357.828 13.948-.173 27.892-.61 41.952-.496.655 18.15 1.195 35.853 1.276 53.555-13.244 0-26.055-.467-38.8.24-4.825.267-10.82-1.583-14.58 3.744z"/><path fill="#ABCCFE" d="M1266.915 613.828c-5.778 4.562-11.806 8.817-18.57 13.09-9.02-1.603-17.281-3.35-25.592-4.816-24.28-4.283-48.582-8.445-72.873-12.67-15.126-2.631-30.247-5.29-45.644-7.984-.468 1.932-.94 3.501-1.223 5.103-3.61 20.367-7.226 40.733-10.771 61.112-3.915 22.504-7.759 45.02-12.012 67.516-5.954.87-11.53 1.757-17.069 2.256.228-1.024.487-1.65.601-2.3 3.724-21.22 7.451-42.44 11.14-63.666 3.746-21.555 7.425-43.121 11.19-64.673 1.415-8.099 2.988-16.17 4.538-24.52 1.368.219 2.15.334 2.927.47 15.667 2.757 31.338 5.492 47 8.282 18.435 3.285 36.862 6.619 55.293 9.931 11.25 1.931 22.501 3.866 33.754 5.786.807.137 1.63.168 2.855.255a4614.94 4614.94 0 0 1 32.82 6.04c.475.088.925.316 1.636.788z"/><path fill="#FEB672" d="M1384.121 586.674c-14.088.76-28.176 1.519-42.698 1.785-.434-2.387-.434-4.281-.434-6.293-12.48-.667-22.22-5.862-31.07-13.663-6.437-7.024-9.82-15.299-12.678-23.853l-.367-5.781c-3.49-1.02-6.718-1.965-10.475-3.065 2.257-3.845 4.405-6.793 5.79-10.065 1.376-3.246 3.292-7.081 2.665-10.194-1.473-7.323 1.087-13.663 2.881-20.294.472-1.742.81-3.52 1.224-5.346l-3.197.22c2.127-2.333 3.722-4.083 5.51-6.172 3.804 7.22 7.416 14.779 11.186 22.67 1.764-.957 2.374-1.144 2.79-1.536 3.454-3.258 7.445-4.655 11.821-2.419 4.575 2.338 5.913 6.917 5.304 11.486-.626 4.687-2.016 9.412-3.94 13.734-1.268 2.852-1.148 4.793.409 7.255 4.197 6.634 10.157 11.038 17.48 13.328 12.157 3.803 24.469 4.199 37.153.64-4.623 8.65-5.129 17.456-2.317 26.642 1.103 3.605 1.982 7.278 2.963 10.92z"/><path fill="#E7E7E7" d="M809 346c0 3.688 0 7.376-.468 11.526-93.49.46-186.512.458-279.533-.004.002-4.144.003-7.829.22-11.62.492-.296.68-.552.78-.87 90.683-.003 181.367-.006 272.786.269 2.562.418 4.388.558 6.215.699zM320.001 901c0 28.145-.005 56.29 0 84.434.001 6.554.016 6.562 6.748 6.566 9.66.008 19.325.208 28.975-.086 4.677-.142 6.701 1.14 6.362 6.138-.381 5.636-.09 11.318-.098 17.445-16.295.474-32.587.336-48.873.592-4.33.067-5.19-1.465-5.175-5.44.134-36.236.077-72.473.074-109.178-.003-.469.004-.46.425-.466 3.307.273 3.518-1.502 3.603-3.769.218-5.785.603-11.565 1.011-17.341 1.294-18.3 2.63-36.597 4.232-55.156.427-2.087.571-3.913.715-6.114 0-1.125 0-1.875.062-2.962.686.299 1.844.923 1.858 1.573.37 16.536.79 33.074.835 49.614.031 11.382-.483 22.766-.754 34.15z"/><path fill="#EEEEEF" d="m529.002 346.008-.001 11.522c0 .468.006.477-.463.474-24.827-.005-49.184-.008-73.533-.412.508-2.83 1.466-5.286 1.328-7.678-.078-1.355-1.913-3.688-3.027-3.73-8.321-.317-16.666-.376-24.99-.09-4.756.162-6.168 3.037-4.464 7.629.51 1.377.774 2.847 1.15 4.275 0 0-.002.002-.472.002-15.157-.001-29.845-.003-44.485-.388.684-4.126 1.32-7.869 2.378-11.622 10.04-.337 19.654-.711 29.272-.968 4.6-.122 9.205-.02 13.743-.02l1.568-9.99c9.017-.002 18.034-.005 27.522.452.47 1.125.472 1.791.472 2.458.003 7.077.003 7.078 6.87 7.079 20.652 0 41.303-.024 61.955.044 1.727.006 3.451.627 5.177.963z"/><path fill="#017CFF" d="M416.842 1012.001c-.54-17.703-1.079-35.406-1.638-54.017-1.58-49.326-3.133-97.744-4.704-146.162-1.657-51.08-3.345-102.16-4.997-153.24-1.68-51.911-3.356-103.822-4.953-155.735-.148-4.797-.39-9.755.6-14.384 1.731-8.1 5.438-15.21 13.821-18.592-5.429 5.686-10.83 11.556-11.704 19.746-.632 5.927-.392 11.973-.216 17.956.54 18.292 1.261 36.579 1.867 54.869 1.358 41.073 2.707 82.146 4.027 123.22 1.047 32.597 2.028 65.197 3.07 97.794.974 30.434 1.99 60.866 2.987 91.299 1.002 30.596 1.984 61.193 3.012 91.788.536 15.96 1.49 31.913 1.62 47.874.098 11.921 5.066 21.033 13.873 28.831-8.739-3.72-13.002-11.232-15.434-20.073-.562-2.043-.608-4.227-.896-7.154a84.213 84.213 0 0 0-.335-4.02z"/><path fill="#E7E7E7" d="M1311.059 426.948c-.26 2.796-1.34 5.316-1.413 7.865-.222 7.85-1.685 10.202-9.128 13.086-.916.355-1.88.585-3.188.856-.354-35.806-.343-71.595-.33-107.385.003-6.366.006-6.366 6.564-6.37 1.832-.002 3.663.002 5.957.01.47 28.619.46 57.233.509 85.846.003 1.944.436 3.887 1.029 6.092z"/><path fill="#F4F4F4" d="M426.537 335.008c-.015 3.092-.5 6.18-1.099 9.993-4.538 0-9.143-.101-13.743.021-9.618.257-19.233.631-29.661.922-4.71-.67-8.622-1.934-12.5-1.833-15.186.395-30.358 1.293-45.54 1.852-5.992.221-11.998.043-18-.198l.003-.733c-.215-12.267 1.005-10 9.99-10.011 36.694-.046 73.387-.018 110.55-.013z"/><path fill="#EAEAEA" d="M1836 1100V241.261l1.005-.033v4.317c0 361.258.004 722.517-.081 1083.775-.001 3.79-1.189 7.578-2.168 11.076.415-8.98 1.177-17.96 1.19-26.94.098-70.985.054-141.97.054-213.456zM155 410c-.02 307.77-.038 615.039-.067 922.308 0 .14-.156.28-.588 1.01V240.269l.654-.004V410zM953 221.998 172.463 222c-.463 0-.46.002-.46.002 1.708-.335 3.417-.963 5.126-.963 258.313-.04 516.626-.036 775.404.218a.898.898 0 0 1 .467.741z"/><path fill="#F5F5F5" d="M529.22 345.903c-1.944-.23-3.668-.852-5.395-.858-20.652-.068-41.303-.043-61.955-.044-6.867 0-6.867-.002-6.87-7.08 0-.666-.001-1.332-.004-2.455 21.907-.46 43.816-.463 65.725-.466 9.279 0 9.279 0 9.279 9.57-.102.78-.29 1.036-.78 1.333z"/><path fill="#E7E7E7" d="M305.529 345.027c.468.005.464.494.465 1.16-.333 4.37-.667 8.074-1.001 11.777 0 0 0 .019.003.027-10.809.005-21.622.045-32.434-.022-4.579-.028-8.21-2.815-8.42-6.207-.204-3.263 3.29-6.232 7.983-6.706 1.153-.117 2.327-.035 3.491-.036 9.815 0 19.63.002 29.913.007zM1297.163 545.144c2.936 8.06 6.32 16.335 12.737 23.846.104 8.284.09 15.78.074 23.276-4.07.87-8.14 1.738-12.604 2.605-.358-16.412-.322-32.822-.207-49.727z"/><path fill="#F5F5F5" d="M809.294 345.703c-2.12.156-3.947.016-6.042-.401 1.189-.37 2.645-.464 3.912-.545.338-.59.62-.86.644-1.153.731-8.603.727-8.604 9.44-8.604 10.94 0 21.88.001 33.288.005.453 9.996.453 9.944-9.321 10.01-10.543.072-21.085.256-31.92.688z"/><path fill="#F0F0F0" d="M416.384 1012c.569 1.072.679 2.143.697 3.609-17.775.392-35.459.389-53.61.38 3.294-5.332 9.288-3.482 14.112-3.75 12.746-.706 25.557-.239 38.8-.239zM357.481 1350.963c.47.168.478.353.472.817-60.801.261-121.59.299-182.377.088-3.492-.012-6.977-2.047-10.52-3.504-.056-.364-.052-.369-.052-.369 6.312 3.145 13.07 3.051 19.905 3.042 57.37-.078 114.74-.052 172.572-.074z"/><path fill="#EEEEEF" d="M966.614 231.282c-1.508-1.704-2.825-3.139-4.143-4.573l1.166-1.075 5.546 6.036-1.108 1.06c-.424-.393-.847-.785-1.46-1.448z"/><path fill="#EAEAEA" d="M1830.222 1343.314c.772-.53 1.306-.833 1.84-1.136l.832.802-4.441 5.044-1.244-.886c.925-1.199 1.85-2.397 3.013-3.824zM1832 229.998l-5.097-3.493 1.308-1.5c1.24 1.438 2.48 2.875 3.755 4.653l.034.34z"/><path fill="#EEEEEF" d="M953.224 222.267c-.224-.269-.226-.758-.227-1.003 1.918.25 3.838.744 5.758 1.238l-.325 1.177c-1.66-.381-3.32-.762-5.206-1.412z"/><path fill="#EAEAEA" d="m158.005 1341.995-3.384-4.59 1.449-.85c.641 1.574 1.282 3.148 1.927 5.083.003.362.008.357.008.357zM160.005 228.003c1.432-.999 2.863-1.998 4.645-3 .35-.003.343-.01.343-.01-1.43 1.002-2.861 2.003-4.642 3.006-.351 0-.346.004-.346.004z"/><path fill="#F0F0F0" d="M164.997 1348.002c-1.31-.763-2.615-1.528-3.96-2.648-.037-.354-.044-.354-.044-.354 1.242.8 2.483 1.601 3.868 2.698.143.297.139.302.136.304z"/><path fill="#EAEAEA" d="M156.952 233.608c-.284 1.14-.596 1.984-.907 2.826l-1.007-.388c.398-1.013.788-2.028 1.207-3.032.032-.076.295-.137.386-.088.13.07.199.25.321.682zM1835.949 235.83c-.316.498-.65.705-.985.912l-.292-2.17c.419.323.838.646 1.277 1.259zM157.998 1342.002c.637.454 1.277.905 1.96 1.677.042.321.044.318.044.318-.638-.453-1.276-.907-1.956-1.68-.041-.322-.046-.317-.048-.315zM165.003 225.004c.304-.51.604-1.023.904-1.537l.634.545c-.325.304-.651.608-1.263.947-.285.034-.278.041-.275.045zM172 221.999l-1.977.883-.204-.633c.529-.084 1.058-.168 1.885-.25.298.003.296.001.295 0zM159.997 227.997c-.12.434-.239.87-.357 1.306-.017-.352-.034-.704.157-1.178.208-.122.203-.125.2-.128zM1832 230l.759 1.056-.378.262c-.12-.278-.24-.556-.371-1.077l-.01-.24zM1825.56 224.463c.037.06-.039-.06 0 0zM159.999 1344c.326.094.588.28.89.78.104.22.111.22.112.217-.327-.096-.591-.28-.895-.778-.104-.222-.106-.219-.107-.219z"/><path fill="#F5F5F5" d="M1302.005 1623.995c16.457.336 32.917.573 49.37 1.033 20.085.562 40.165 1.263 60.244 1.993 16.251.592 32.499 1.28 48.745 1.995 13.917.612 27.83 1.312 41.744 1.995 13.248.65 26.506 1.164 39.74 2.03 17.674 1.157 35.326 2.637 52.992 3.897 10.742.766 21.509 1.206 32.238 2.107 13.013 1.092 26.001 2.492 38.995 3.803 10.037 1.013 20.098 1.857 30.092 3.2 16.866 2.268 33.741 4.562 50.504 7.472 7.939 1.378 15.631 4.186 23.42 6.402.926.263 1.85.748 2.61 1.34 5.523 4.296 5.301 6.846-1.08 9.88-12.118 5.762-25.258 7.73-38.318 9.811-13.214 2.105-26.481 3.889-39.744 5.671-7.045.947-14.121 1.69-21.2 2.354-14.655 1.376-29.316 2.703-43.986 3.925-9.737.812-19.491 1.408-29.238 2.097-18.663 1.319-37.322 2.67-55.988 3.935-6.783.46-13.577.786-20.371 1.042-10.621.4-21.25.637-31.87 1.035-16.75.627-33.498 1.328-50.246 2.004-7.958.321-15.913.708-23.873.974-20.913.7-41.829 1.346-62.743 2.019-10.124.325-20.247.727-30.373.976-15.956.391-31.914.677-47.872 1.019-15.124.324-30.247.715-45.372.985-21.456.382-42.914.895-64.372.977-107.29.41-214.58.762-321.87.975-21.29.042-42.581-.58-63.871-.957-15.459-.275-30.915-.655-46.373-.987-15.624-.335-31.25-.595-46.871-1.02-21.917-.597-43.832-1.27-65.745-1.997-17.917-.595-35.83-1.293-53.743-1.994a8347.875 8347.875 0 0 1-48.245-2.007 3960.59 3960.59 0 0 1-40.245-2.001c-17.042-.94-34.085-1.873-51.114-3.017a3401.392 3401.392 0 0 1-53.485-4.01c-18.463-1.534-36.955-2.893-55.343-5.095a1382.528 1382.528 0 0 1-63.787-9.138c-8.244-1.38-16.251-4.457-24.171-7.304-2.311-.83-3.95-3.53-5.897-5.375 2.247-2.059 4.168-5.171 6.801-5.989 9.93-3.083 19.963-6.21 30.193-7.868 20.054-3.25 40.23-5.857 60.423-8.113 18.902-2.112 37.884-3.525 56.847-5.057 14.358-1.16 28.736-2.086 43.113-3 16.868-1.074 33.741-2.056 50.616-3.012a3971.476 3971.476 0 0 1 38.243-1.99c15.412-.725 30.827-1.4 46.245-2.004a9255.74 9255.74 0 0 1 55.244-1.997c21.58-.715 43.161-1.373 64.744-2.005 13.122-.384 26.246-.707 39.37-.995 16.79-.37 33.582-.685 50.373-1.012 17.457-.34 34.914-.803 52.373-.97 43.622-.416 87.247-.657 130.87-1.043 29.625-.261 59.249-.943 88.872-.908 41.125.05 82.249.544 123.372.951 21.125.21 42.25.59 63.372 1.004 8.958.176 17.911.637 27.63 1.219 1.166 1.173 1.57 2.097 1.88 2.808-2.591 0-4.962-.385-7.107.145-1.287.318-2.926 1.966-3.1 3.2-.15 1.07 1.294 2.97 2.476 3.483 2.066.898 4.472 1.014 6.38 1.7-8.166 3.018-15.816 6.439-23.822 8.42-11.925 2.951-24.108 4.852-36.168 7.27-5.254 1.054-6.639 3.867-4.123 8.57 2.812 5.256 7.559 7.25 13.302 7.145 13.978-.252 27.957-.804 41.934-.772 20.47.046 40.939.523 61.409.762 6.788.08 8.397-1.854 7.024-8.319-1.657-7.805-3.61-15.553-5.035-23.398-.777-4.275-2.543-6.671-7.123-6.681.023-1.462.054-2.525.084-3.588z"/><path fill="#EAEAEA" d="M1029.482 1531.988c.195-4.54 1.43-9.076 1.434-13.614.104-131.88.11-263.759.041-395.639-.007-12.61-.613-25.221-.468-38.27 16.246-.44 32.02-.44 47.637-.44 3.407-12.333 8.34-16.017 20.867-16.016 10.819 0 21.638-.007 32.457.002 9.606.008 14.86 4.18 17.756 13.344.484 1.535 2.843 3.2 4.55 3.473 3.408.544 6.964.166 10.46.167h23.267l-5.288-20.015h55.62c-3.128 19.343-6.403 38.664-9.353 58.034-5.866 38.515-10.259 77.169-9.21 116.228.41 15.295 1.254 30.578 1.35 46.322-55.712.454-110.875.45-166.037.453-6.57 0-6.578.013-6.582 6.731-.007 12.833.017 25.665-.013 38.497-.01 4.327.278 8.711-.312 12.967-.945 6.814-1.207 6.786 5.409 6.787l172.987-.003c.07.153.14.307-.321.724-57.497.27-114.46.337-171.423.178-4.884-.013-6.481.967-6.46 6.24.215 55.297.193 110.595.026 165.892-.014 4.8 1.268 6.107 6.082 6.094 58.629-.164 117.258-.106 175.887-.106h15.803l.44-4.172c.31 1.785.618 3.57.88 5.752-72.37.396-144.695.394-217.486.39z"/><path fill="#E7E7E7" d="M1319.485 1286.013c-.099-20.803.282-41.607.638-62.412.603-35.19 5.753-69.833 12.348-105.368 1.47 17.767 2.932 34.447 4.211 51.141 2.73 35.6 11.095 69.876 23.886 103.14 1.61 4.187 2.988 8.462 4.484 13.08-15.027.396-30.063.406-45.567.419z"/><path fill="#1B2E35" d="M1301.929 1627.981c4.572-.388 6.338 2.008 7.115 6.283 1.425 7.845 3.378 15.593 5.035 23.398 1.373 6.465-.236 8.399-7.024 8.32-20.47-.24-40.94-.717-61.41-.763-13.976-.032-27.955.52-41.933.772-5.743.104-10.49-1.889-13.302-7.146-2.516-4.702-1.131-7.515 4.123-8.569 12.06-2.418 24.243-4.319 36.168-7.27 8.006-1.981 15.656-5.402 24.02-8.495 1.496-.89 2.439-1.463 3.701-2.174.875-.535 1.43-.931 2.248-1.36a23.871 23.871 0 0 0 3.174-1.585c.077-.136.275-.376.534-.373.744-.16 1.23-.323 1.714-.486.478-.076.956-.151 2.212-.29 11.727-.13 22.676-.196 33.625-.262zM1511.761 1568.394c1.013-.545 2.027-1.09 3.606-1.958 9.634-5.022 18.702-9.722 27.771-14.421 4.23-2.724 7.047-1.19 9.875 2.567 4.8 6.378 10.116 12.366 15.147 18.574 3.607 4.45 3.127 7.547-2.148 9.75-22.03 9.206-42.24 21.632-62.361 34.303-5.418 3.41-11.539 5.882-17.603 8.034-5.388 1.911-10.695-.144-13.38-4.043-2.73-3.963-2.226-6.625 2.014-8.934 14.21-7.736 24.703-18.962 32.089-34.005.598-1.456.882-2.363 1.329-3.528.372-.8.582-1.342.934-2.095.408-.832.672-1.452.99-2.22.055-.15.201-.43.41-.528.58-.564.954-1.03 1.327-1.496zM1468.517 1514.525c20.632-6.669 40.952-13.104 61.882-19.738.942-.379 1.274-.56 1.605-.74 1.369.69 3.52 1.047 3.977 2.123 2.641 6.22 4.883 12.61 7.453 19.455-5.55 1.718-10.851 3.36-16.843 5.217-10.73 3.31-20.771 6.402-30.812 9.495-4.923 1.377-9.81 2.921-14.794 4.022-1.404.31-3.657-.167-4.561-1.158-4.67-5.122-9.027-10.527-14.01-16.448 2.234-.77 4.012-1.381 6.103-2.228zM1251.3 1565.316c20.075.59 39.678 1.302 59.706 1.943 2.211.22 3.996.51 6.282.884l-1.71 20.743c-5.008 0-9.751 0-15.42.061-11.684.096-22.445.131-33.205.166h-19.58l-3.314-23.675c2.583 0 4.675 0 7.24-.122z"/><path fill="#FEB672" d="M1266.935 1589.573c10.778-.495 21.539-.53 32.783-.509 1.042 11.389 1.602 22.72 2.225 34.492.032 1.502.001 2.565-.022 4.027-10.941.464-21.89.53-33.283.516-.87-12.742-1.295-25.404-1.703-38.526zM1495.83 1530.682c9.99-3.438 20.03-6.53 30.421-9.636 2.305 3.835 4.259 7.682 6.478 11.742 3.525 6.348 6.784 12.481 10.227 18.92-8.887 5.006-17.955 9.706-27.375 14.457-6.8-11.679-13.25-23.409-19.751-35.483z"/><path fill="#017CFF" d="M1265.971 1628.146c-.364.55-.849.712-1.65.501-2.7-7.976-3.838-9.055-9.911-7.586l9.356 8.466c-.944.473-1.888.945-3.355 1.162-8.79-3.824-10.482-3.869-13.764.448l11.456 1.338a111.92 111.92 0 0 1-3.026 1.794c-2.462-.37-4.868-.485-6.934-1.383-1.182-.513-2.626-2.414-2.476-3.482.174-1.235 1.813-2.883 3.1-3.201 2.145-.53 4.516-.145 7.107-.145-.31-.711-.714-1.635-1.4-2.807.22-1.808.542-4.583 1.263-4.69 1.868-.281 4.646-.038 5.727 1.18 1.97 2.22 2.977 5.298 4.507 8.405zM1511.503 1568.17c-.115.69-.488 1.156-1.215 1.404-2.844-2.82-4.848-6.519-8.993-5.388l-.953 2.096 9.628 4.284c-.264.62-.528 1.24-1.366 2.036-3.179.498-5.842.605-8.358 1.27-.788.209-1.179 1.92-1.751 2.943 1.015.289 2.16 1.026 3.02.779 2.208-.635 4.29-1.707 6.422-2.604-.284.908-.568 1.815-.988 2.883-1.729.56-3.368 1.402-4.902 1.242-1.814-.19-3.537-1.247-5.299-1.928 1.092-1.767 1.979-3.721 3.357-5.225.74-.806 2.324-.837 3.546-1.223-.143-.31-.172-.514-.288-.603-2.243-1.722-6.401-3.205-3.832-6.622 2.567-3.414 5.993-.993 8.621 1.225 1.129.953 2.067 2.13 3.35 3.43z"/><path fill="#F0F0F0" d="M882.318 1531.98c-.16-.558.015-1.105.433-1.816.565.303.886.77 1.226 1.533-.428.297-.876.295-1.66.282z"/><path fill="#E7E7E7" d="M1462.999 1286.01c-3.924-18.14-8.503-36.166-11.636-54.44-6.386-37.247-8.466-74.89-8.45-113.114 33.723-.46 67.35-.37 100.975-.559 4.637-.026 6.242.958 6.225 5.941-.183 52.104-.182 104.209 0 156.313.016 4.966-1.54 6.396-6.219 5.923-3.625-.366-7.317-.066-11.915-.059-23.617 0-46.298-.003-68.98-.006z"/><path fill="#FFF" d="M1462.982 1286.411c22.699-.399 45.38-.396 68.528-.385.474 19.947.363 39.888.585 59.824.048 4.255-1.339 5.286-5.385 5.229-14.951-.212-29.907-.077-45.337-.06-6.453-21.395-12.43-42.8-18.39-64.608zM1532.002 1493.576c-.33.652-.66.832-1.287 1.036-9.925-26.29-19.831-52.509-29.098-78.95-7.182-20.494-13.565-41.266-20.33-62.282 2.916-.702 5.858-1.297 8.804-1.324 11.812-.111 23.63.168 35.435-.148 4.965-.133 6.602 1.29 6.58 6.432-.184 44.92-.106 89.842-.104 135.236zM1246.122 1525.416c-.202 2.03-.371 3.63-.474 4.602h-15.803c-58.63 0-117.258-.058-175.887.106-4.814.013-6.096-1.295-6.082-6.094.167-55.297.189-110.595-.027-165.893-.02-5.272 1.577-6.252 6.46-6.239 56.964.16 113.927.093 171.37.07 1.74 11.716 2.955 23.452 4.266 35.177 3.143 28.117 6.252 56.239 9.53 84.34 2.082 17.85 4.444 35.668 6.647 53.931z"/><path fill="#D6E6FF" d="M1262.175 805.954c1.278 12.18 2.44 24.372 3.86 36.534 2.094 17.938 4.371 35.855 6.723 54.158-3.048 14.133-6.249 27.89-10.046 42.005-8.279-.807-15.987-1.824-23.637-3.168-17.43-3.064-34.819-6.37-52.25-9.43-27.856-4.89-55.736-9.644-83.6-14.487-16.295-2.832-32.574-5.76-48.874-8.557-2.444-.42-3.476-1.213-2.947-3.938 1.355-6.977 2.342-14.026 3.651-21.014a858.778 858.778 0 0 1 6.197-30.194c7.166-5.06 13.989-10.02 20.879-14.883 12.822-9.05 25.635-18.117 38.556-27.026 4.734-3.265 9.763-6.102 15.026-9.146 1.33.169 2.292.349 3.315.854.797 1.618 1.438 2.976 2.283 4.193 9.725 14.021 19.451 28.042 29.243 42.016 4.041 5.767 8.241 11.424 12.451 17.244l79.17-55.16z"/><path fill="#FFF" d="M1226.115 1350.543c-57.724.454-115.386.456-173.048.456-6.616 0-6.354.027-5.409-6.787.59-4.256.303-8.64.312-12.967.03-12.832.006-25.664.013-38.497.004-6.718.012-6.73 6.582-6.731 55.162-.002 110.325.001 165.956.011 1.369 10.758 2.293 21.506 3.164 32.258.859 10.6 1.663 21.203 2.43 32.257z"/><path fill="#E7E7E7" d="M1445.957 810.456c4.76-.46 9.43-.322 14.086-.503 3.12-.12 4.595 1.124 4.94 4.18 2.32 20.522 4.56 41.054 7.088 61.55 1.718 13.93 3.996 27.79 5.779 41.712 1.868 14.585 3.374 29.217 5.167 43.813 1.51 12.292 3.234 24.557 4.798 36.843.501 3.937.735 7.908 1.201 11.85.445 3.752-.705 5.284-4.876 5.194-12.653-.27-25.317-.09-38.428-.081.424-19.746 1.449-39.492 2.13-59.249.665-19.268.978-38.549 1.358-58.285-.573-14.722-1.018-28.983-1.557-43.241-.546-14.443-1.184-28.882-1.686-43.783z"/><path fill="#FFF" d="M1237.927 1064.59c-18.399.39-36.686.39-55.732.39l5.288 20.015h-23.267c-3.496 0-7.052.377-10.46-.167-1.707-.273-4.066-1.938-4.55-3.473-2.895-9.164-8.15-13.336-17.756-13.344-10.819-.009-21.638-.001-32.457-.002-12.527 0-17.46 3.683-20.867 16.016-15.617 0-31.391 0-47.63.007-1.586.295-2.69.675-3.828.855-4.545.724-6.604-.928-6.638-5.543-.07-9.817-.024-19.635-.03-29.927 2.288-.735 4.58-1.223 6.871-1.224 61.946-.042 123.893-.254 185.837.135 14.018.088 24.01-5.027 31.073-17.18-1.711 10.917-3.727 21.985-5.854 33.443z"/><path fill="#ABCCFE" d="M1060.938 848.006c-1.968 10.016-4.003 20.02-5.883 30.051-1.309 6.988-2.296 14.037-3.651 21.014-.53 2.725.503 3.519 2.947 3.938 16.3 2.798 32.579 5.725 48.873 8.557 27.865 4.843 55.745 9.597 83.6 14.486 17.432 3.06 34.82 6.367 52.25 9.43 7.651 1.345 15.36 2.362 23.476 3.519-.609 5.107-1.651 10.223-3.25 15.72-5.439-.312-10.322-1.006-15.206-1.7-10.65-1.944-21.296-3.905-31.953-5.806-1.288-.23-2.634-.138-4.696-.45-58.904-10.567-117.065-20.88-175.557-31.25 2.932-16.832 5.762-33.127 8.612-49.418 3.168-18.112 6.316-36.228 9.548-54.328 2.24-12.544 4.607-25.065 7.34-37.644 5.486.628 10.548 1.305 15.602 2.388-2.27 13.047-4.615 25.673-6.767 38.332-1.875 11.034-3.532 22.106-5.285 33.161z"/><path fill="#E7E7E7" d="M1244.072 953.485c4.906.23 9.79.924 15.073 1.629-3.8 20.653-8 41.295-12.27 62.325-.632-6.32-1.459-13.017-1.704-19.735-.53-14.579-.765-29.169-1.099-44.219z"/><path fill="#FFF" d="M1056.965 774.172c-2.31 12.532-4.678 25.053-6.917 37.597-3.232 18.1-6.38 36.216-9.548 54.328-2.85 16.29-5.68 32.586-8.612 49.417 58.492 10.372 116.653 20.684 175.148 31.259.828 12.547 1.438 24.828 1.771 37.117.202 7.446-4.269 12.258-11.642 12.876-2.814.236-5.662.083-8.495.083-239.136.003-478.273.003-717.41.002-12 0-16.018-4.198-16.298-16.157-.559-23.947-1.319-47.89-2.067-71.833-.598-19.118-1.324-38.232-1.953-57.35-.699-21.279-1.348-42.56-2.026-63.84-.663-20.779-1.33-41.558-2.006-62.336-.991-30.427-1.99-60.854-2.991-91.28-.662-20.112-1.313-40.224-2.013-60.334-.197-5.644-.748-11.28-.78-16.922-.04-6.992 4.582-11.535 11.533-11.71 2.998-.075 6-.02 8.999-.02h717.41c11.372 0 15.659 4.282 15.876 15.547.253 13.14.66 26.278.953 39.88-18.478-2.85-36.905-6.183-55.34-9.468-15.662-2.79-31.333-5.525-47-8.281-.778-.137-1.56-.252-2.927-.472-1.55 8.35-3.123 16.422-4.538 24.521-3.765 21.552-7.444 43.118-11.19 64.673-3.689 21.226-7.416 42.445-11.14 63.665-.114.651-.373 1.277-1.006 2.413-7.471 1.885-14.5 3.271-21.845 4.719 3.737 9.984 7.043 19.337 10.845 28.483.66 1.589 3.42 2.305 5.209 3.423m-301.88-56.587c-.788 1.83-1.85 3.595-2.305 5.505-.907 3.802-2.872 5.483-6.94 6.377-9.67 2.126-17.88 7.26-24.137 15.028-12.582 15.625-14.823 33.067-6.556 51.034 8.757 19.033 24.323 29.377 45.48 29.51 46.157.292 92.318.117 138.478.078 16.764-.014 30.036-9.429 34.554-24.313 4.68-15.417-1.555-32.563-15.52-41.37-3.187-2.01-4.44-4.326-5.156-7.757-5.19-24.835-30.317-41.99-55.033-37.296-4.267.81-6.37.045-8.935-3.42-24.497-33.087-73.745-29.867-93.93 6.624m-89.567 221.422c-4.5.41-3.498-2.915-3.486-5.348.013-2.662-2.208-5.156-3.355-3.259-1.743 2.881-1.274 7.194-1.368 10.908-.021.848 1.432 2.406 2.311 2.485 3.275.296 6.605.255 9.888.005.813-.062 2.077-1.344 2.137-2.14.06-.79-.976-2.025-1.83-2.422-.966-.449-2.265-.182-4.297-.229m90.057 4.563c2.825-3.388.827-4.431-2.359-4.514-5.141-.134-10.297-.197-15.427.076-1.242.066-2.41 1.559-3.61 2.396 1.222.819 2.419 2.295 3.672 2.344 5.63.222 11.277.038 17.724-.302m-43.534-4.509c-5.48-.014-10.967-.165-16.437.062-1.214.05-2.372 1.435-3.556 2.206 1.071.884 2.104 2.472 3.219 2.532 5.134.274 10.291.167 15.44.11 3.877-.044 4.052-1.94 1.334-4.91m67.83 4.92c5.48-.004 10.966.116 16.435-.133.917-.042 1.76-1.685 2.639-2.588-.873-.743-1.724-2.097-2.623-2.13-5.473-.203-10.958-.177-16.435-.04-.93.024-2.673 1.132-2.609 1.435.255 1.204 1.078 2.286 2.593 3.456m103.05-4.717c-5.805-.083-11.615-.299-17.413-.136-1.176.032-2.312 1.494-3.466 2.296 1.105.853 2.174 2.384 3.32 2.443 5.136.268 10.293.068 15.441.133 3.2.04 3.634-1.603 2.118-4.736m85.002 0c-5.807-.082-11.618-.299-17.419-.137-1.174.033-2.31 1.5-3.462 2.305 1.106.85 2.178 2.374 3.325 2.433 5.137.267 10.296.067 15.446.136 3.21.042 3.628-1.607 2.11-4.736m-130.707-.252c-4.792.002-9.593-.162-14.369.118-1.263.074-2.447 1.513-3.667 2.325 1.189.84 2.342 2.34 3.573 2.407 5.107.275 10.242.219 15.357.03.973-.037 1.903-1.229 2.852-1.887-.942-.996-1.885-1.99-3.746-2.993m70.643.007-2.821 2.991c.951.657 1.882 1.845 2.856 1.882 5.115.189 10.249.245 15.356-.03 1.23-.066 2.382-1.568 3.57-2.409-1.22-.811-2.405-2.25-3.669-2.323-4.775-.28-9.575-.116-15.292-.11m89.591 4.967c4.723.838 6.255-1.366 5.606-5.783-.166-1.132.234-2.387-.086-3.446-.487-1.612-1.375-3.103-2.093-4.646-.637 1.446-1.836 2.906-1.798 4.334.087 3.29-.746 4.943-4.408 4.64-1.875-.155-4.976-.964-4.46 2.559.142.97 2.784 1.643 4.341 2.304.56.237 1.305.038 2.898.038M653.04 677.64l-2.263-2.513c-.589.833-1.702 1.679-1.681 2.496.138 5.437.405 10.878.918 16.29.1 1.05 1.472 1.977 2.258 2.96.577-1.183 1.668-2.377 1.644-3.548-.104-4.94-.54-9.873-.877-15.685M998.012 779.11c-.095-5.137-.02-10.286-.405-15.4-.095-1.26-1.687-2.406-2.591-3.604-.674 1.257-1.938 2.525-1.917 3.77.089 5.277.502 10.553.956 15.815.066.764 1.002 1.452 1.536 2.176.796-.622 1.592-1.243 2.421-2.757m-2.02 74.43c.015 3.156-.273 6.356.181 9.447.207 1.406 1.882 2.596 2.892 3.884.643-1.289 1.827-2.579 1.825-3.866-.007-3.45-.26-6.952-.922-10.334-.5-2.545 2.145-6.11-2.169-7.56-.602 2.489-1.205 4.978-1.807 8.43m-338.124 55.192c2.663.728 3.245-.786 3.123-2.957-.307-5.443-.573-10.89-1.06-16.318-.073-.818-1.246-1.537-1.911-2.302-.671.758-1.947 1.54-1.918 2.27.25 6.252.736 12.495 1.766 19.307m.117-86.696c-.02-5.452.122-10.913-.187-16.349-.069-1.198-1.735-2.305-2.665-3.455-.71 1.136-2.042 2.283-2.021 3.405.098 5.42.416 10.847.954 16.242.278 2.793 1.952 2.63 3.92.157M992.05 607.31c-.011-2.163.256-4.38-.15-6.465-.207-1.064-1.543-2.581-2.511-2.697-2.952-.353-5.984-.264-8.96-.03-.804.063-1.519 1.25-2.274 1.922.77.661 1.473 1.77 2.324 1.898 2.371.357 4.803.308 7.515.434 0 2.444-.232 4.302.08 6.064.215 1.213 1.183 2.293 1.815 3.433.72-1.215 1.441-2.43 2.161-4.559m5.89 290.496c.023 2.986-.095 5.984.166 8.95.067.765 1.323 1.427 2.034 2.136.614-.637 1.75-1.263 1.762-1.912.115-5.802.136-11.612-.11-17.407-.035-.827-1.546-1.931-2.569-2.224-.463-.132-2.005 1.402-2.017 2.195-.035 2.445.431 4.898.735 8.262m-8.953-261.013c.196 4.8.243 9.614.711 14.387.098.989 1.765 1.823 2.708 2.728.532-1.067 1.545-2.15 1.514-3.201-.15-5.125-.497-10.25-.992-15.354-.078-.81-1.264-1.512-1.937-2.264-.667.929-1.334 1.858-2.004 3.704m5.552 39.557c-3.563-2.79-4.705-1.264-4.486 2.55.282 4.93.499 9.871 1.008 14.78.116 1.122 1.312 2.132 2.011 3.193.652-1.108 1.835-2.203 1.865-3.328.144-5.458-.02-10.924-.398-17.195m-338.483 95.816c-.022-3.318.084-6.646-.164-9.947-.056-.744-1.35-1.396-2.073-2.09-.601.652-1.712 1.295-1.724 1.959-.111 5.803-.11 11.612.097 17.411.03.804 1.594 2.323 2.047 2.185 1.023-.31 2.479-1.401 2.536-2.257.14-2.09-.415-4.227-.72-7.26m-9.106-169.538c.028 2.476-.076 4.965.17 7.42.067.661 1.184 1.674 1.84 1.69.65.017 1.747-.926 1.902-1.616.319-1.42.273-2.963.136-4.432-.264-2.858 1.011-3.92 3.748-3.653.98.095 2.087.255 2.94-.094.866-.354 1.491-1.3 2.222-1.986-.776-.645-1.503-1.758-2.338-1.845-2.45-.256-4.948-.011-7.419-.136-2.779-.14-3.391 1.4-3.201 4.652m122.852-4.634-3.692 2.112c1.12.647 2.219 1.806 3.363 1.853 4.978.206 9.974.205 14.952.002 1.162-.048 2.28-1.181 3.417-1.815-1.216-.717-2.4-1.983-3.653-2.053-4.473-.253-8.97-.1-14.387-.099m224.764 140.967c.795-.803 2.288-1.62 2.273-2.407-.107-5.45-.45-10.9-.937-16.33-.07-.766-1.34-1.424-2.054-2.132-.619.808-1.743 1.598-1.773 2.428-.17 4.646-.212 9.308.006 13.95.069 1.464 1.078 2.883 2.485 4.491M695.409 602.05c1.661-.006 3.359.192 4.969-.098.903-.163 1.661-1.134 2.485-1.74-.863-.734-1.703-2.071-2.591-2.103a232.95 232.95 0 0 0-16.438-.01c-.924.032-1.805 1.3-2.705 1.998.95.648 1.866 1.79 2.854 1.855 3.473.233 6.97.095 11.426.098m-39.67 264.507c2.572.938 3.315-.372 3.305-2.66-.022-5.162.09-10.328-.13-15.48-.048-1.125-1.251-2.202-1.922-3.3-.678 1.095-1.917 2.179-1.939 3.287-.115 5.817.077 11.64.687 18.153m195.362-266.989c.612.81 1.203 2.304 1.839 2.323 5.99.18 11.988.166 17.98.029.655-.015 1.285-1.153 1.926-1.77-.719-.706-1.445-2.03-2.156-2.023-6.431.075-12.859.382-19.589 1.441m51.435 2.482c3.32-.008 6.647.107 9.953-.11.834-.056 1.598-1.175 2.394-1.805-.722-.702-1.427-1.991-2.169-2.013a300.035 300.035 0 0 0-17.422.004c-.731.021-1.426 1.327-2.137 2.037.81.622 1.56 1.656 2.44 1.78 1.953.278 3.971.1 6.941.107m-247.53 123.534c-.001-1.32.05-2.644-.016-3.962-.197-3.932-.7-4.189-4.013-2.785 0 5.864-.113 11.441.1 17.006.04 1.046 1.384 2.042 2.127 3.06.608-.98 1.667-1.927 1.74-2.946.225-3.12.071-6.267.063-10.373m159.696-127.59c-.824 0-1.772-.26-2.449.056-1.422.666-2.702 1.635-4.04 2.48 1.394.507 2.774 1.393 4.188 1.45 4.61.187 9.242.22 13.848-.025 1.245-.066 2.427-1.324 3.639-2.035-1.117-.64-2.201-1.755-3.355-1.832-3.613-.242-7.252-.092-11.83-.094m123.283.048c-2.842 1.148-2.966 3.453-.201 3.713 6.582.618 13.262.199 19.902.199l.473-2.159c-1.47-.6-2.92-1.65-4.414-1.715-4.945-.218-9.906-.08-15.76-.038m-287.554 35.05c-.824 1.096-2.298 2.158-2.359 3.295-.257 4.775-.05 9.573-.092 14.361-.03 3.474 1.706 3.794 4.426 2.754-.126-2.56-.225-4.995-.368-7.428-.247-4.227-.521-8.453-1.607-12.982M994.97 814.474c.009 2.166-.18 4.359.11 6.487.142 1.042 1.172 1.963 1.8 2.939.718-.884 2.026-1.746 2.059-2.655.187-5.158.173-10.332-.04-15.49-.038-.917-1.332-1.782-2.045-2.671-.632.972-1.7 1.898-1.81 2.926-.264 2.47-.078 4.99-.074 8.464M727.79 602.052c4.785-.004 9.574.098 14.35-.103.946-.04 1.842-1.251 2.76-1.922-.915-.675-1.81-1.898-2.749-1.934-5.107-.191-10.228-.165-15.338-.018-.917.026-1.807.97-2.71 1.489.922.827 1.844 1.655 3.688 2.488z"/><path fill="#F4F4F4" d="M414.985 469.91c-8.397 3.343-12.104 10.453-13.835 18.553-.99 4.629-.748 9.587-.6 14.384 1.597 51.913 3.274 103.824 4.953 155.734 1.652 51.08 3.34 102.16 4.997 153.24 1.571 48.419 3.123 96.837 4.589 145.716-14.041.795-27.985 1.23-41.933 1.404-4.448.055-8.909-.884-13.357-.828-4.252.053-4.857-2.08-4.848-5.626.082-31.81.1-63.62.005-95.43-.018-6.12-.846-12.238-.858-18.358-.01-5.619.763-11.236.86-16.86.157-9.07.042-18.144.042-27.217l-.003-73.576c-.256-2.991-.797-5.104-.72-7.194.501-13.62 1.136-27.235 1.999-41.084.422-1.411.571-2.59.72-4.145l.002-2.623c.655-4.35 1.596-8.678 1.91-13.052.84-11.731 1.28-23.491 2.124-35.222 1.187-16.497 2.663-32.974 3.88-49.47.535-7.274.58-14.584 1.124-21.856.814-10.88 1.929-21.736 2.801-32.612.504-6.275.723-12.573 1.173-18.853 1.288-17.951 2.688-35.894 3.925-53.849.797-11.568 1.588-23.143 1.957-34.729.133-4.174 1.48-5.515 5.573-5.428 10.158.216 20.324.03 30.486.094 3.157.02 7.344-.8 9.143.851 1.46 1.34.09 5.808-.092 8.885-.99 16.698-1.982 33.397-3.033 50.091-.114 1.8-.62 3.577-.943 5.794-.06.736-.119 1.042-.519 1.743a41.457 41.457 0 0 1-1.587 1.59s.079-.028.065-.067M394.21 741.472c.223 5.975.53 11.948.635 17.925.057 3.24 1.473 3.618 4.325 2.379L397.4 709.4c-4.43-1.265-4.259 1.21-4.167 3.682.339 9.132.653 18.265.978 28.39m1.788-75.729c.124-3.707-1.866-2.946-3.58-2.313 0 7.377-.129 14.333.117 21.275.045 1.276 1.611 2.498 2.475 3.744.572-1.298 1.641-2.6 1.63-3.894-.047-5.959-.397-11.915-.642-18.812z"/><path fill="#579DFF" d="M687 480.03c168.787 0 337.074-.002 505.361.003 11.053 0 16.3 3.499 18.944 12.551 2.685 9.19-4.4 19.07-13.923 19.407-.999.035-2 .011-3 .011-253.43 0-506.86-.001-760.29.009-7.044 0-13.298-1.568-16.793-8.44-5.937-11.67.22-22.528 13.273-23.511 1.491-.112 2.998-.03 4.497-.03H687m-240.616 22.918c3.537-1.584 4.945-4.384 4.202-8.084-.842-4.189-4.746-6.601-9.045-5.86-3.858.664-6.125 4.02-5.492 8.132.708 4.604 4.094 6.722 10.335 5.812m46.812-13.99c-4.176-.353-7.223 1.1-8.103 5.478-.818 4.076 1.526 7.668 5.465 8.77 3.911 1.094 7.436-.71 8.742-4.473 1.398-4.029-.37-7.256-6.104-9.774m-26.969 14.339c2.69-1.104 6.292-1.527 7.782-3.525 1.227-1.645.853-5.806-.476-7.66-1.31-1.828-5-3.35-7.114-2.831-2.32.57-5.03 3.305-5.778 5.666-1.177 3.713 1.324 6.545 5.586 8.35z"/><path fill="#FFF" d="M526.01 401.008c94.682-.002 189.364-.004 284.517.463.801 6.407 1.274 12.342 1.434 18.286.403 14.908.664 29.82.981 44.73-11.955-.07-23.91-.186-35.866-.183-3.473.001-6.946.5-10.42.504-35.455.04-70.912.114-106.367.002-40.597-.129-81.193-.455-121.79-.644-5.294-.024-10.591.258-16.2-.309-.286-4.85-.495-9.01-.193-13.134 1.215-16.578 2.589-33.144 3.904-49.715z"/><path fill="#F4F4F4" d="M525.54 401.005c-.845 16.574-2.219 33.14-3.434 49.718-.302 4.124-.093 8.284-.135 12.905-19.103.487-38.188.45-57.273.537-5.62.025-11.237.4-17.268.496.568-14.636 1.55-29.154 2.53-43.671.346-5.116.992-10.234.947-15.347-.039-4.437 2.385-4.688 5.758-4.678 22.802.068 45.604.036 68.875.04z"/><path fill="#FFF" d="M939.517 464.622c-.47-.62-.497-1.12-.507-1.62-.342-16.79-.48-33.588-1.076-50.369-.64-18.028-1.711-36.04-2.639-54.974H971c0 34.589 0 70.019.006 105.923-10.343.703-20.69.932-31.488 1.04z"/><path fill="#F5F5F5" d="M813.395 464.621c-.77-15.045-1.031-29.956-1.434-44.864-.16-5.944-.633-11.879-.966-18.284 12.164-.469 24.332-.348 36.496-.542 4.038-.065 5.588 1.133 5.605 5.383.041 10.29.46 20.585.941 30.868.363 7.768 1.09 15.518 1.563 23.282.068 1.113-.378 2.258-.602 3.733-4.46.21-8.907-.08-13.35-.03-9.268.101-18.534.382-28.253.454z"/><path fill="#FFF" d="M1018.621 1048.786c.381 10.473.243 20.798.439 31.117.075 3.986-1.445 5.206-5.286 5.154-12.318-.167-24.645-.249-36.958.04-4.249.1-4.946-1.575-4.875-5.247.192-9.986.063-19.978.056-30.443 2.618-.732 5.243-1.22 7.866-1.206 12.791.071 25.582.276 38.758.585z"/><path fill="#017CFF" d="M415.155 469.99c.181-.411.597-.81 1.294-1.14-.166.43-.613.792-1.294 1.14z"/><path fill="#FFF" d="M1384.572 586.754c-1.432-3.723-2.31-7.396-3.414-11.001-2.812-9.186-2.306-17.993 2.701-26.751 4.955-7.581 9.945-14.748 14.876-21.955 5.98-8.739 11.553-17.783 17.96-26.194 6.605-8.67 7.288-18.024 3.3-27.298-3.332-7.746-8.568-14.673-12.762-21.634l14.241 5.243c-4.3-7.166-10.546-10.516-23.161-12.68.135-14.688-6.7-21.995-22.16-23.416-4.745-.437-9.533-.406-14.736-.704.884-17.769 2.195-35.423 3.531-53.076.222-2.927-.054-8.105.942-8.373 4.034-1.087 8.492-.963 12.761-.721 5.93.335 11.824 1.262 17.747 1.786 15.483 1.368 30.969 2.724 46.464 3.95 10.233.81 20.492 1.277 30.724 2.097 14.998 1.202 29.976 2.638 44.972 3.868 9.733.8 19.49 1.318 29.222 2.127 14.497 1.205 28.981 2.576 43.475 3.835 5.113.444 10.239.735 15.355 1.148 15.99 1.29 31.976 2.627 47.968 3.904 9.238.738 18.485 1.365 27.724 2.1 9.721.772 19.437 1.614 29.436 3.182-.083 7.544-.318 14.34-.835 21.115-1.232 16.162-2.612 32.313-3.9 48.47-.737 9.24-1.363 18.488-2.123 27.725-1.26 15.328-2.607 30.65-3.878 45.977-.752 9.07-1.386 18.151-2.145 27.221-1.255 14.995-2.624 29.98-3.837 44.978-.801 9.9-1.303 19.825-2.138 29.721-1.197 14.168-2.676 28.312-3.844 42.482-.856 10.395-1.262 20.827-2.126 31.222-1.533 18.456-3.354 36.887-4.876 55.344-1.17 14.186-2.058 28.395-3.083 42.592-1.323 18.321-2.657 36.641-3.987 54.962-15.807-1.3-31.615-2.601-47.422-3.899-8.567-.703-17.135-1.395-25.702-2.101-15.808-1.303-31.612-2.645-47.423-3.905-9.561-.762-19.14-1.306-28.697-2.117-14.647-1.242-29.289-2.56-43.91-4.072-1.345-.139-3.463-1.762-3.629-2.924-1.281-8.983-2.17-18.022-2.747-27.515 6.877-.47 13.423.267 19.75-.6 22.559-3.093 34.713-21.242 32.363-41.682-2.457-21.38-8.492-41.954-16.501-61.93 2.621-1.36 5.243-2.718 8.312-4.308-12.228-29.948-23.374-60.085-46.04-83.951-5.283-5.564-11.648-9.346-19.898-10.202 2.418-11.711 2.164-12.387-9.774-15.974-17.17-5.16-34.929-5.51-52.656-5.943-1.989-.05-3.98-.03-6.42-.123zM1080.609 735.195c3.874-22.511 7.718-45.028 11.633-67.532 3.545-20.379 7.162-40.745 10.77-61.112.285-1.602.756-3.17 1.224-5.103 15.397 2.694 30.518 5.353 45.644 7.984 24.291 4.225 48.593 8.387 72.873 12.67 8.31 1.466 16.572 3.213 25.28 4.893-7.263 8.583-14.952 17.105-23.34 25.836-6.452.193-12.232-.2-17.95.23-17.035 1.278-30.177 9.868-39.79 23.44-14.713 20.769-13.54 47.444 2.036 67.885-7.503 7.438-16.455 9.358-26.346 8.714-22.003-1.431-42.98-6.306-62.034-17.905z"/><path fill="#FEB672" d="M1080.23 735.179c19.432 11.615 40.41 16.49 62.413 17.921 9.89.644 18.843-1.276 26.642-8.853 2.388-1.998 4.44-3.426 6.2-5.15 8.955-8.774 17.835-17.624 26.741-26.448 15.465 10.017 30.929 20.034 46.458 30.6-5.408 6.285-10.88 12.019-16.583 18.015-7.54 6.279-14.813 12.338-22.164 18.302-20.886 16.947-43.978 25.168-70.97 17.771-.962-.18-1.924-.36-3.533-.777-12.755-6.261-24.857-12.3-36.982-18.293-1.152-.57-2.427-1.16-3.673-1.229-7.256-.396-14.52-.638-21.782-.932-5.061-.676-10.123-1.353-15.609-1.981-2.213-1.071-4.971-1.787-5.632-3.376-3.802-9.146-7.108-18.5-10.845-28.483a5267.983 5267.983 0 0 0 21.808-4.331 856.301 856.301 0 0 1 17.511-2.756z"/><path fill="#FFF" d="M1139.028 797.662c26.93 7.072 50.023-1.15 70.909-18.096 7.35-5.964 14.624-12.023 22.539-18.286 2.615-.822 4.91-.959 6.58-2.051 5.473-3.581 10.72-7.51 16.052-11.305 3.387-.069 3.834 1.986 3.996 4.845.982 17.428 2.137 34.848 3.153 52.728-26.306 18.729-52.53 37-79.252 55.618-4.21-5.82-8.41-11.477-12.451-17.244-9.792-13.974-19.518-27.995-29.243-42.016-.845-1.217-1.486-2.575-2.283-4.193z"/><path fill="#FEB672" d="M1510.709 707.313c8.348 19.918 14.383 40.493 16.84 61.872 2.35 20.44-9.804 38.589-32.363 41.682-6.327.867-12.873.13-19.748.166-10.085-2.348-19.741-4.732-29.588-7.002-.36-14.309-.528-28.733-.223-43.604 9.293 1.072 18.111 2.592 26.93 4.111l.917-1.567-11.851-30.922 47.88-24.19c.296-.15.579-.324 1.206-.546z"/><path fill="#ABCCFE" d="M1202.017 712.395c-8.697 9.078-17.577 17.928-26.532 26.701-1.76 1.725-3.812 3.153-6.026 4.858-16.047-20.01-17.219-46.684-2.506-67.454 9.613-13.57 22.755-22.16 39.79-23.44 5.718-.429 11.498-.036 17.688-.01-11.088 16.968-22.613 33.925-34.349 51.193 4.62 3.111 8.173 5.505 11.935 8.152z"/><path fill="#FFF" d="M1461.294 732.073c4.279 10.284 8.23 20.59 12.18 30.898l-.917 1.567a5198.865 5198.865 0 0 0-26.84-4.575c-.384-6.813-.384-13.608-.384-20.34 5.335-2.569 10.484-5.048 15.96-7.55z"/><path fill="#D6E6FF" d="M1255.02 747.604c-5.245 4.115-10.49 8.044-15.964 11.625-1.67 1.092-3.965 1.23-6.349 1.789 5.097-5.75 10.57-11.484 16.205-17.498 2.116 1.068 4.069 2.416 6.109 4.084z"/><path fill="#FFF" d="M622.993 1354.16c1.286 14.623 2.572 28.783 3.848 42.944.728 8.075 1.413 16.153 2.164 24.225 1.27 13.662 2.588 27.32 3.866 40.98.724 7.741 1.535 15.479 1.965 23.237.06 1.09-1.683 2.504-2.885 3.354-.667.473-1.94.093-2.939.093-61.643 0-123.287-.051-184.93.104-4.69.012-5.925-1.117-6.27-5.963-1.165-16.315-3.213-32.566-4.719-48.86-1.187-12.852-1.974-25.74-3.123-38.596-1.163-13.005-2.605-25.985-3.826-38.986-.805-8.567-1.363-17.157-2.161-25.725-1.212-13.001-2.584-25.987-3.795-38.989-.813-8.733-1.387-17.488-2.205-26.22-1.218-13.001-2.613-25.986-3.825-38.987-.814-8.732-1.46-17.481-2.148-26.226-.232-2.941-.364-5.89-.563-9.191h196.15c.8 6.54 1.738 13.037 2.367 19.565 2.06 21.396 4.081 42.796 5.97 64.208 1.163 13.188 1.928 26.41 3.107 39.597 1.162 13.006 2.62 25.985 3.952 39.437zM770.518 1352.014c.476 59.018.484 118.034.493 177.517-29.765.469-59.532.469-89.959.469l-16.206-177.99c35.42 0 70.313 0 105.672.004z"/><path fill="#E7E7E7" d="M1675.413 858c.883-18.32 2.217-36.64 3.54-54.962 1.025-14.197 1.913-28.406 3.083-42.592 1.522-18.457 3.343-36.888 4.876-55.344.864-10.395 1.27-20.827 2.126-31.222 1.168-14.17 2.647-28.314 3.844-42.482.835-9.896 1.337-19.82 2.138-29.72 1.213-14.999 2.582-29.984 3.837-44.979.76-9.07 1.393-18.15 2.145-27.221 1.27-15.328 2.618-30.649 3.878-45.977.76-9.237 1.386-18.485 2.122-27.724 1.289-16.158 2.67-32.31 3.901-48.471.517-6.775.752-13.571 1.12-20.817 2.79-.459 5.573-.459 9.133-.459-.495 8.848-.853 17.065-1.451 25.265-.385 5.265-1.233 10.495-1.684 15.757a7164.784 7164.784 0 0 0-3.91 47.45c-.77 9.733-1.324 19.483-2.132 29.212-1.203 14.493-2.568 28.971-3.818 43.46-.455 5.277-.74 10.568-1.168 15.848-1.28 15.819-2.618 31.634-3.883 47.454-.751 9.4-1.34 18.815-2.124 28.213-1.25 14.989-2.619 29.968-3.898 44.954-.423 4.947-.696 9.906-1.088 14.855-1.307 16.484-2.68 32.963-3.94 49.45-.77 10.065-1.242 20.155-2.095 30.213-1.172 13.83-2.673 27.631-3.852 41.46-.857 10.058-1.609 20.133-2.053 30.216-.36 8.16-.126 8.17-8.647 8.164z"/><path fill="#EAEAEA" d="M356.601 665.91c.396.84.396 1.589.054 2.77-.445 1.727-.548 3.024-.651 4.32-.591 13.617-1.226 27.232-1.727 40.852-.077 2.09.464 4.203.718 6.725-.666 1.71-1.832 2.968-1.92 4.296-1.448 21.955-2.694 43.922-4.13 65.878-.853 13.027-1.997 26.035-2.941 39.056-1.376 18.963-2.686 37.93-4.046 56.895-.058.816-.336 1.616-.504 2.425-.76 3.655-.358 9.144-2.55 10.53-3.175 2.004-8.223 1.078-12.476 1.325-1.824.106-3.66.018-5.959.018-.197-11.384.317-22.768.286-34.15-.046-16.54-.465-33.078-.835-49.614-.014-.65-1.172-1.274-2.237-1.65-.837-.729-1.648-1.754-1.565-2.7.506-5.756 1.248-11.49 1.852-17.237 1.708-16.27 3.592-32.524 5.022-48.818 1.561-17.799 2.716-35.633 3.995-53.455.45-6.28.655-12.577 1.123-18.856 1.253-16.824 2.644-33.64 3.864-50.466.515-7.108.567-14.25 1.127-21.354 1.196-15.164 2.713-30.303 3.857-45.47.885-11.726 1.26-23.49 2.117-35.219 1.18-16.163 2.738-32.3 3.879-48.466.887-12.56 1.362-25.148 2.066-37.72.277-4.959.668-9.91 1.024-14.864 1.315-18.32 2.638-36.639 3.958-54.958 0 0-.002-.003.468-.002h28.529l-.001.001c-.666 8.734-1.531 17.458-1.937 26.203-.347 7.463-1.39 8.792-8.58 8.795-13.481.006-13.481.006-13.481 13.313v225.211c0 7.265-.067 14.531.055 21.795.025 1.506.748 3 1.546 4.59z"/><path fill="#FFF" d="M529 357.99c93.02-.006 186.042-.004 279.534-.004.468-.003.465.013.465.46l-.001 7.552c-93.02 0-186.04.002-279.529-.442-.467-2.813-.464-5.18-.462-7.549 0 0-.006-.01-.008-.017z"/><path fill="#F5F5F5" d="M528.538 358.004c.467 2.371.464 4.74.463 7.55-22.568.446-45.137.464-67.706.438-8.051-.01-7.241.861-7.046-7.543.25-.452.747-.456.747-.456 24.358.003 48.715.006 73.542.011z"/><path fill="#EAEAEA" d="M455.005 357.592c-.009.4-.506.405-.755.407-9.603.002-18.957.001-28.78 0-.844-1.429-1.107-2.899-1.618-4.276-1.704-4.592-.292-7.467 4.464-7.63 8.324-.285 16.669-.226 24.99.09 1.114.043 2.949 2.376 3.027 3.73.138 2.393-.82 4.849-1.328 7.679z"/><path fill="#F5F5F5" d="m379.998 357.995 44.531.007c.47.331.471.662.471.993 0 7.004 0 7.005-6.851 7.006h-38.683c-.468.001-.466-.001-.467-.444 0-2.814.002-5.184.252-7.556l.747-.006zM809.466 365.999c-.468-2.37-.468-4.737-.47-7.547 13.689-.447 27.38-.45 41.789-.454.717 0 1.213.004 1.213.004-.099 9.113 1.053 7.942-7.836 7.986-11.409.056-22.818.013-34.696.011z"/><path fill="#E7E7E7" d="M852.465 358c-.467.002-.963-.001-1.21-.004-.25-.169-.25-.335-.25-.501-.022-12.741-.013-12.826 12.92-11.448 5.189.553 3.64 4.919 4.07 8.09.43 3.169-1.165 4.041-4.081 3.902-3.653-.173-7.32-.04-11.449-.038z"/><path fill="#EEEEEF" d="M349.534 366.002c-.852 18.32-2.175 36.64-3.49 54.959-.356 4.953-.747 9.905-1.024 14.863-.704 12.573-1.18 25.161-2.066 37.72-1.141 16.167-2.698 32.304-3.88 48.467-.857 11.729-1.231 23.493-2.116 35.219-1.144 15.167-2.66 30.306-3.857 45.47-.56 7.103-.612 14.246-1.127 21.354-1.22 16.827-2.61 33.642-3.864 50.466-.468 6.279-.673 12.576-1.123 18.856-1.279 17.822-2.434 35.656-3.995 53.455-1.43 16.294-3.314 32.549-5.022 48.818-.604 5.747-1.346 11.481-1.852 17.236-.083.947.728 1.972 1.504 3.038.378.827.378 1.577.04 2.754-1.816 2.318-3.95 4.172-.66 6.323-1.32 18.298-2.655 36.595-3.949 54.895-.408 5.776-.793 11.556-1.01 17.341-.086 2.267-.297 4.042-3.596 3.77-.424-176.709-.42-353.422-.536-530.135-.002-4.147 1.412-5.007 5.18-4.944 11.988.198 23.982.074 36.443.075z"/><path fill="#EAEAEA" d="M380.045 357.612c-.047.383-.545.387-1.263.388l-28.78-.002c-14.69-.003-29.38-.007-44.54-.022-.135-3.715.2-7.419.534-11.544 6-.426 12.006-.248 17.998-.469 15.182-.559 30.354-1.457 45.54-1.852 3.878-.101 7.79 1.162 12.077 1.844-.247 3.788-.882 7.531-1.566 11.657z"/><path fill="#EEEEEF" d="M350.002 358.442c9.354-.443 18.709-.442 28.532-.44.467 2.37.466 4.741.464 7.556-9.353.444-18.706.444-28.527.444-.468-2.372-.468-4.744-.469-7.56z"/><path fill="#FFF" d="M1404.38 451.35c.297-.03.406.085.514.199-.234-.019-.468-.037-.514-.2z"/><path fill="#F4F4F4" d="M1310.429 592.295c-.44-7.525-.425-15.021-.39-23.004 8.73 7.013 18.47 12.208 30.95 12.875 0 2.012 0 3.906-.012 6.234-10.039 1.597-20.066 2.76-30.548 3.895z"/><path fill="#EAEAEA" d="M317.285 824.74c-3.572-1.89-1.439-3.745.377-5.688.194 1.774.05 3.6-.377 5.687z"/><path fill="#EEEEEF" d="M1258.422 1632.337c-3.92-.282-7.52-.703-11.775-1.2 3.282-4.317 4.973-4.272 13.5-.416-.296.685-.85 1.08-1.725 1.616z"/><path fill="#F0F0F0" d="M1508.1 1574.733c-2.295 1.154-4.377 2.226-6.585 2.86-.86.248-2.005-.49-3.02-.778.572-1.023.963-2.734 1.751-2.943 2.516-.665 5.179-.772 8.215-1.059.22.578.01 1.12-.361 1.92z"/><path fill="#EEEEEF" d="M1263.844 1629.392c-2.98-2.492-5.884-5.118-9.434-8.33 6.073-1.47 7.211-.391 9.652 7.583.057.371-.141.611-.218.747z"/><path fill="#F4F4F4" d="M1510.025 1570.417c-3.264-1.279-6.474-2.707-9.683-4.135l.953-2.096c4.145-1.13 6.15 2.568 8.785 5.486.145.316 0 .597-.055.745z"/><path fill="#FFF" d="M1072.99 776.513c7.269-.113 14.533.13 21.789.525 1.246.068 2.52.66 3.673 1.229a4194.368 4194.368 0 0 1 36.614 18.305c-4.616 3.28-9.645 6.117-14.38 9.382-12.92 8.909-25.733 17.975-38.555 27.026-6.89 4.864-13.713 9.823-20.88 14.883a900.552 900.552 0 0 1 4.972-33.018c2.152-12.659 4.497-25.285 6.767-38.332z"/><path fill="#017CFF" d="M755.256 717.257c20.014-36.163 69.262-39.383 93.76-6.296 2.565 3.465 4.667 4.23 8.934 3.42 24.716-4.694 49.843 12.46 55.033 37.296.716 3.43 1.969 5.748 5.155 7.757 13.966 8.807 20.2 25.953 15.52 41.37-4.517 14.884-17.789 24.299-34.553 24.313-46.16.04-92.32.214-138.478-.077-21.157-.134-36.723-10.478-45.48-29.51-8.267-17.968-6.026-35.41 6.556-51.035 6.256-7.768 14.468-12.902 24.137-15.028 4.068-.894 6.033-2.575 6.94-6.377.455-1.91 1.517-3.675 2.476-5.833m170.368 74.906c.19-11.294-4.243-20.462-14.329-25.475-5.102-2.536-6.563-5.559-7.284-10.67-3.015-21.394-23.909-36.13-45.133-32.082-3.683.703-7.24 2.07-10.787 3.11-15.82-23.606-30.41-32.267-51.266-28.846-21.747 3.567-33.866 17.548-37.834 37.35-7.68 2.734-15.01 4.237-21.183 7.764-13.846 7.91-20.067 23.823-16.844 40.014 3.139 15.772 16.876 30.083 32.867 31.414 16.871 1.404 33.92.73 50.89.757.969.002 2.763-1.86 2.782-2.882.205-10.766.127-21.538.127-32.82h-22.405l36.293-37.573 38.876 37.668h-20.526v35.432c2.242.14 3.705.313 5.168.311 17.821-.017 35.643-.005 53.464-.112 15.267-.09 24.242-7.639 27.124-23.36z"/><path fill="#D6E6FF" d="M665.957 939.008c1.593.046 2.892-.22 3.858.228.854.397 1.89 1.633 1.83 2.422-.06.796-1.324 2.078-2.137 2.14-3.283.25-6.613.29-9.888-.005-.879-.079-2.332-1.637-2.31-2.485.093-3.714-.376-8.027 1.367-10.908 1.147-1.897 3.368.597 3.355 3.26-.012 2.432-1.013 5.757 3.925 5.348zM755.172 943.721c-6.044.19-11.69.373-17.321.151-1.253-.05-2.45-1.525-3.673-2.344 1.202-.837 2.369-2.33 3.611-2.396 5.13-.273 10.286-.21 15.427-.076 3.186.083 5.184 1.126 1.956 4.665zM712.474 939.157c2.285 2.875 2.11 4.77-1.768 4.813-5.148.058-10.305.165-15.44-.11-1.114-.059-2.147-1.647-3.218-2.531 1.184-.77 2.342-2.156 3.556-2.206 5.47-.227 10.956-.076 16.87.034zM779.42 943.96c-1.064-1.149-1.887-2.231-2.142-3.435-.064-.303 1.679-1.411 2.61-1.434 5.476-.138 10.961-.164 16.434.039.9.033 1.75 1.387 2.623 2.13-.878.903-1.722 2.546-2.64 2.588-5.468.25-10.954.13-16.885.112zM883.26 939.542c1.177 2.855.743 4.498-2.457 4.458-5.148-.065-10.305.135-15.44-.133-1.147-.06-2.216-1.59-3.321-2.443 1.154-.802 2.29-2.264 3.466-2.296 5.798-.163 11.608.053 17.752.414zM968.262 939.543c1.18 2.851.761 4.5-2.449 4.458-5.15-.069-10.309.131-15.446-.136-1.147-.06-2.219-1.583-3.325-2.433 1.153-.806 2.288-2.272 3.462-2.305 5.8-.162 11.612.055 17.758.416zM837.675 939.016c1.402 1 2.345 1.994 3.287 2.99-.95.658-1.88 1.85-2.852 1.886-5.115.19-10.25.246-15.357-.029-1.23-.066-2.384-1.566-3.573-2.407 1.22-.812 2.404-2.251 3.667-2.325 4.776-.28 9.577-.116 14.828-.115zM908.322 939.017c5.254-.002 10.054-.166 14.83.114 1.263.074 2.447 1.512 3.668 2.323-1.188.841-2.34 2.343-3.57 2.409-5.107.275-10.241.219-15.356.03-.974-.037-1.905-1.225-2.856-1.882.94-.997 1.88-1.994 3.284-2.994zM996.984 943.988c-1.127 0-1.872.199-2.432-.038-1.557-.661-4.2-1.334-4.341-2.304-.516-3.523 2.585-2.714 4.46-2.559 3.662.303 4.495-1.35 4.408-4.64-.038-1.428 1.16-2.888 1.798-4.334.718 1.543 1.606 3.034 2.093 4.646.32 1.06-.08 2.314.086 3.446.649 4.417-.883 6.621-6.072 5.783zM653.05 678.08c.326 5.373.762 10.306.866 15.246.024 1.17-1.067 2.365-1.644 3.548-.786-.983-2.158-1.91-2.258-2.96-.513-5.412-.78-10.853-.918-16.29-.021-.817 1.092-1.663 1.68-2.496.755.838 1.51 1.676 2.275 2.952zM997.995 779.556c-.812 1.068-1.608 1.69-2.404 2.31-.534-.723-1.47-1.411-1.536-2.175-.454-5.262-.867-10.538-.956-15.814-.021-1.246 1.243-2.514 1.917-3.77.904 1.197 2.496 2.343 2.59 3.602.386 5.115.311 10.264.39 15.847zM995.992 853.06c.602-2.971 1.205-5.46 1.807-7.95 4.314 1.45 1.67 5.016 2.169 7.561.662 3.382.915 6.883.922 10.334.002 1.287-1.182 2.577-1.825 3.866-1.01-1.288-2.685-2.478-2.892-3.884-.454-3.09-.166-6.29-.181-9.928zM657.561 908.45c-.723-6.529-1.209-12.772-1.459-19.024-.03-.73 1.247-1.512 1.918-2.27.665.765 1.838 1.484 1.911 2.302.487 5.428.753 10.875 1.06 16.318.122 2.17-.46 3.685-3.43 2.674zM657.897 822.473c-1.88 2.037-3.553 2.2-3.831-.593a200.85 200.85 0 0 1-.954-16.242c-.02-1.122 1.312-2.27 2.02-3.405.931 1.15 2.597 2.257 2.666 3.455.309 5.436.167 10.897.099 16.785zM992.05 607.766c-.72 1.672-1.44 2.887-2.161 4.102-.632-1.14-1.6-2.22-1.815-3.433-.312-1.762-.08-3.62-.08-6.064-2.712-.126-5.144-.077-7.515-.434-.85-.129-1.554-1.237-2.324-1.898.755-.671 1.47-1.86 2.273-1.922 2.977-.234 6.009-.323 8.96.03.97.116 2.305 1.633 2.512 2.697.406 2.085.139 4.302.15 6.922zM997.925 897.348c-.288-2.907-.754-5.36-.719-7.805.012-.793 1.554-2.327 2.017-2.195 1.023.293 2.534 1.397 2.57 2.224.245 5.795.224 11.605.11 17.407-.014.649-1.149 1.275-1.763 1.912-.71-.71-1.967-1.37-2.034-2.137-.261-2.965-.143-5.963-.181-9.406zM988.99 636.333c.668-1.387 1.335-2.316 2.002-3.245.673.752 1.859 1.454 1.937 2.264.495 5.104.842 10.229.992 15.354.03 1.052-.982 2.134-1.514 3.201-.943-.905-2.61-1.74-2.708-2.728-.468-4.773-.515-9.587-.71-14.846zM994.7 676.752c.217 5.868.382 11.334.237 16.792-.03 1.125-1.212 2.22-1.864 3.328-.699-1.061-1.895-2.07-2.011-3.193-.51-4.909-.726-9.85-1.008-14.78-.219-3.814.923-5.34 4.647-2.147zM656.071 772.623c.29 2.576.844 4.713.705 6.803-.057.856-1.513 1.948-2.536 2.257-.453.138-2.018-1.38-2.047-2.185-.207-5.799-.208-11.608-.097-17.411.012-.664 1.123-1.307 1.724-1.96.724.695 2.017 1.347 2.073 2.091.248 3.301.142 6.629.178 10.405zM646.95 602.162c-.19-2.786.422-4.326 3.201-4.186 2.47.125 4.969-.12 7.42.136.834.087 1.561 1.2 2.337 1.845-.73.686-1.356 1.632-2.223 1.986-.852.35-1.96.19-2.94.094-2.736-.267-4.011.795-3.747 3.653.137 1.47.183 3.013-.136 4.432-.155.69-1.253 1.633-1.902 1.617-.656-.017-1.773-1.03-1.84-1.692-.246-2.454-.142-4.943-.17-7.885zM770.267 597.993c4.952 0 9.449-.153 13.922.1 1.253.07 2.437 1.336 3.653 2.053-1.138.634-2.255 1.767-3.417 1.815-4.978.203-9.974.204-14.952-.002-1.144-.047-2.243-1.206-3.363-1.853 1.23-.704 2.462-1.408 4.157-2.113zM994.152 738.877c-.993-1.524-2.002-2.943-2.07-4.406-.22-4.643-.177-9.305-.007-13.95.03-.83 1.154-1.62 1.773-2.43.714.709 1.985 1.367 2.054 2.133.487 5.43.83 10.88.937 16.33.015.787-1.478 1.604-2.687 2.323zM694.926 602.05c-3.972-.004-7.47.134-10.943-.099-.988-.066-1.905-1.207-2.854-1.855.9-.697 1.781-1.966 2.705-1.998a232.95 232.95 0 0 1 16.438.01c.888.032 1.728 1.369 2.59 2.102-.823.607-1.58 1.578-2.484 1.74-1.61.291-3.308.093-5.452.1zM655.477 866.21c-.347-6.167-.54-11.99-.424-17.807.022-1.108 1.261-2.192 1.939-3.288.67 1.1 1.874 2.176 1.922 3.301.22 5.152.108 10.318.13 15.48.01 2.288-.733 3.598-3.567 2.314zM851.253 599.157c6.579-.649 13.007-.956 19.438-1.03.71-.009 1.437 1.316 2.156 2.022-.641.617-1.271 1.755-1.927 1.77-5.991.137-11.99.151-17.979-.029-.636-.019-1.227-1.513-1.688-2.733zM902.048 602.05c-2.48-.008-4.499.17-6.452-.107-.88-.125-1.63-1.16-2.44-1.781.711-.71 1.406-2.016 2.137-2.037 5.805-.17 11.618-.171 17.422-.004.742.022 1.447 1.311 2.17 2.013-.797.63-1.56 1.75-2.395 1.804-3.306.218-6.633.103-10.442.111zM655.009 726.068c.007 3.621.16 6.768-.064 9.888-.073 1.019-1.132 1.967-1.74 2.947-.743-1.019-2.086-2.015-2.127-3.06-.213-5.566-.1-11.143-.1-17.007 3.313-1.404 3.816-1.147 4.013 2.785.066 1.318.015 2.641.018 4.447zM815.18 597.993c4.103.002 7.742-.148 11.355.094 1.154.077 2.238 1.192 3.355 1.832-1.212.71-2.394 1.969-3.64 2.035-4.605.245-9.236.212-13.847.025-1.414-.057-2.794-.943-4.189-1.45 1.339-.845 2.62-1.814 4.041-2.48.677-.317 1.625-.056 2.924-.056zM938.438 598.02c5.404-.021 10.365-.159 15.31.059 1.494.065 2.944 1.116 4.414 1.715l-.473 2.159c-6.64 0-13.32.42-19.902-.2-2.765-.26-2.641-2.564.65-3.733zM650.845 633.242c.675 4.378.949 8.604 1.196 12.831.143 2.433.242 4.867.368 7.428-2.72 1.04-4.457.72-4.426-2.754.042-4.788-.165-9.586.092-14.361.061-1.137 1.535-2.199 2.77-3.144zM994.97 813.986c-.004-2.986-.19-5.505.074-7.976.11-1.028 1.178-1.954 1.81-2.926.713.889 2.007 1.754 2.045 2.671.213 5.158.227 10.332.04 15.49-.033.909-1.34 1.771-2.06 2.655-.627-.976-1.657-1.897-1.799-2.939-.29-2.128-.101-4.321-.11-6.975zM727.33 602.049c-1.383-.83-2.305-1.658-3.227-2.485.903-.52 1.793-1.463 2.71-1.49 5.11-.146 10.23-.172 15.338.02.94.035 1.834 1.258 2.75 1.933-.92.67-1.815 1.882-2.76 1.922-4.777.201-9.566.099-14.81.1z"/><path fill="#017CFF" d="M394.21 740.976a8152.72 8152.72 0 0 0-.977-27.894c-.092-2.472-.262-4.947 4.167-3.682l1.77 52.376c-2.85 1.239-4.267.862-4.324-2.379-.105-5.977-.412-11.95-.635-18.42zM396 666.213c.244 6.427.594 12.383.642 18.342.01 1.294-1.059 2.596-1.631 3.894-.864-1.246-2.43-2.468-2.475-3.744-.246-6.942-.117-13.898-.117-21.275 1.714-.633 3.704-1.394 3.582 2.783z"/><path fill="#EEEEEF" d="M356.276 672.768c-.169-1.064-.066-2.361.38-3.714.191 1.123.042 2.303-.38 3.714z"/><path fill="#F5F5F5" d="M446.025 503.05c-5.882.808-9.268-1.31-9.976-5.914-.633-4.112 1.634-7.468 5.492-8.133 4.3-.74 8.203 1.672 9.045 5.861.743 3.7-.665 6.5-4.56 8.186zM493.595 489.003c5.335 2.474 7.103 5.701 5.705 9.73-1.306 3.763-4.83 5.567-8.742 4.473-3.94-1.102-6.283-4.694-5.465-8.77.88-4.379 3.927-5.83 8.502-5.433zM465.871 503.187c-3.906-1.694-6.407-4.526-5.23-8.24.748-2.36 3.458-5.096 5.778-5.665 2.113-.519 5.804 1.003 7.114 2.832 1.329 1.853 1.703 6.014.476 7.659-1.49 1.998-5.093 2.42-8.138 3.414z"/><path fill="#FFF" d="M925.582 792.577c-2.84 15.307-11.815 22.855-27.082 22.946-17.821.107-35.643.095-53.464.112-1.463.002-2.926-.17-5.168-.31v-35.433h20.526l-38.876-37.668-36.293 37.573h22.405c0 11.282.078 22.054-.127 32.82-.02 1.022-1.813 2.884-2.781 2.882-16.972-.026-34.02.647-50.891-.757-15.99-1.331-29.728-15.642-32.867-31.414-3.223-16.191 2.998-32.104 16.844-40.014 6.173-3.527 13.503-5.03 21.183-7.763 3.968-19.803 16.087-33.784 37.834-37.35 20.856-3.422 35.445 5.239 51.266 28.846 3.547-1.04 7.104-2.408 10.787-3.111 21.224-4.049 42.118 10.688 45.133 32.081.72 5.112 2.182 8.135 7.284 10.67 10.086 5.014 14.518 14.182 14.287 25.89z"/></svg>